<svg width="22" height="22" viewBox="0 0 22 22" fill="none" xmlns="http://www.w3.org/2000/svg">
<rect width="22" height="22" rx="11" fill="#CCE5F6"/>
<path fill-rule="evenodd" clip-rule="evenodd" d="M8.55279 13.1635L15.8128 5.76909C16.5461 5.02354 17.6583 5.89132 16.7417 6.8691C16.7417 6.8691 9.77501 15.6202 9.40834 16.1213C9.29873 16.2982 9.14578 16.4441 8.96397 16.5454C8.78217 16.6466 8.57753 16.6997 8.36945 16.6997C8.16137 16.6997 7.95674 16.6466 7.77493 16.5454C7.59313 16.4441 7.44018 16.2982 7.33057 16.1213L5.04501 12.2102C4.92886 11.998 4.89237 11.7513 4.94213 11.5145C4.99189 11.2778 5.12462 11.0666 5.31637 10.9191C5.50812 10.7716 5.74627 10.6975 5.98786 10.7101C6.22945 10.7227 6.45858 10.8213 6.6339 10.988L8.55279 13.1635Z" fill="#027DD1"/>
</svg>
