<svg width="26" height="26" viewBox="0 0 26 26" fill="none" xmlns="http://www.w3.org/2000/svg">
<rect width="26" height="26" rx="13" fill="#CCE5F6"/>
<path fill-rule="evenodd" clip-rule="evenodd" d="M10.1078 15.5568L18.6878 6.81795C19.5545 5.93684 20.8689 6.9624 19.7856 8.11796C19.7856 8.11796 11.5523 18.4602 11.1189 19.0524C10.9894 19.2614 10.8086 19.4339 10.5938 19.5535C10.3789 19.6732 10.1371 19.7359 9.89117 19.7359C9.64526 19.7359 9.40342 19.6732 9.18856 19.5535C8.9737 19.4339 8.79293 19.2614 8.66339 19.0524L5.96228 14.4302C5.82501 14.1794 5.78189 13.8878 5.8407 13.608C5.8995 13.3282 6.05636 13.0786 6.28298 12.9043C6.50959 12.73 6.79105 12.6424 7.07656 12.6573C7.36208 12.6723 7.63286 12.7887 7.84006 12.9857L10.1078 15.5568Z" fill="#027DD1"/>
</svg>
