<svg width="22" height="22" viewBox="0 0 22 22" fill="none" xmlns="http://www.w3.org/2000/svg">
<rect x="0.5" y="0.5" width="21" height="21" rx="10.5" stroke="#EB455F"/>
<path d="M16.0646 6.31158C16.4695 6.72718 16.4695 7.40081 16.0646 7.8164L12.6504 11.32L16.0646 14.8237C16.4695 15.2391 16.4695 15.9129 16.0646 16.3283C15.6598 16.7438 15.0032 16.7438 14.5984 16.3283L11.1841 12.8246L7.77003 16.3283C7.36504 16.7438 6.70861 16.7438 6.30362 16.3283C5.89879 15.9129 5.89879 15.2391 6.30362 14.8237L9.71788 11.32L6.30362 7.8164C5.89879 7.40081 5.89879 6.72718 6.30362 6.31158C6.70861 5.89614 7.36504 5.89614 7.77003 6.31158L11.1841 9.81529L14.5984 6.31158C15.0032 5.89614 15.6598 5.89614 16.0646 6.31158Z" fill="#EB455F"/>
</svg>
