<svg width="202" height="69" viewBox="0 0 202 69" fill="none" xmlns="http://www.w3.org/2000/svg">
<path fill-rule="evenodd" clip-rule="evenodd" d="M30.0108 0.0537109L30.9885 0.399576L31.0541 0.423428C38.4942 3.47062 54.078 10.6563 59.0321 16.6671L59.9622 17.7942L59.5448 19.1955C59.0918 20.7161 58.5373 22.2546 57.9769 23.7395C56.5521 27.55 54.9365 31.3068 53.1718 34.9741C47.6692 46.4413 40.5987 57.4136 32.0377 66.8354C31.3998 67.5331 30.7262 68.2368 30.0108 68.9166C29.2954 68.2368 28.6217 67.5391 27.9838 66.8354C19.4229 57.4136 12.3523 46.4413 6.84972 34.9741C5.09103 31.3068 3.46946 27.55 2.04462 23.7395C1.49019 22.2546 0.935751 20.7161 0.476704 19.1955L0.0593872 17.7942L0.989406 16.6671C5.94951 10.6622 21.5333 3.47658 28.9734 0.423428L29.039 0.399576L30.0167 0.0537109H30.0108Z" fill="#4B66EA"/>
<path d="M30.011 68.9881L29.9752 68.9523C29.3016 68.3142 28.6219 67.6165 27.9423 66.8711C23.7751 62.2855 19.8285 57.181 16.2217 51.7008C12.7758 46.4711 9.6102 40.8478 6.79629 34.9979C4.97799 31.2053 3.35642 27.4247 1.9912 23.7573C1.44868 22.3023 0.882326 20.7459 0.423278 19.2074L0 17.7822L0.947904 16.6313C3.12391 13.9896 7.52362 10.8768 14.0218 7.38242C20.3531 3.98937 26.5711 1.35364 28.9558 0.375681L29.0214 0.351828L30.017 0L31.0126 0.351828L31.0781 0.381644C33.4568 1.35961 39.6749 3.99533 46.0002 7.39435C52.4984 10.8888 56.8981 14.0016 59.0741 16.6432L60.022 17.7941L59.5987 19.2193C59.1397 20.7519 58.5733 22.3142 58.0308 23.7693C56.6656 27.4306 55.05 31.2113 53.2257 35.0099C50.4178 40.8597 47.2462 46.483 43.8003 51.7127C40.1935 57.1929 36.2529 62.2974 32.0797 66.8831C31.406 67.6285 30.7204 68.3262 30.0468 68.9642L30.011 69V68.9881ZM0.125195 17.812L0.53655 19.1836C0.995598 20.7161 1.55599 22.2725 2.0985 23.7215C3.46373 27.3829 5.07934 31.1576 6.89764 34.9502C12.7043 47.0436 19.8106 57.7594 28.0198 66.7996C28.6816 67.5271 29.3493 68.2129 30.005 68.839C30.6608 68.2129 31.3285 67.5271 31.9903 66.7996C40.2054 57.7594 47.3118 47.0495 53.1124 34.9502C54.9308 31.1576 56.5464 27.377 57.9116 23.7215C58.4541 22.2665 59.0205 20.7101 59.4735 19.1836L59.8849 17.812L58.9728 16.7088C56.8027 14.0791 52.4149 10.9782 45.9286 7.48976C39.6272 4.08478 33.4092 1.44905 31.0304 0.477055L30.9649 0.453202L30.011 0.119264L29.0512 0.459165L28.9916 0.483018C26.6129 1.45502 20.3948 4.09074 14.0755 7.48976C7.59516 10.9723 3.20737 14.0731 1.03733 16.7029L0.125195 17.8061V17.812Z" fill="#4B66EA"/>
<path fill-rule="evenodd" clip-rule="evenodd" d="M30.0111 2.96387C30.0111 2.96387 51.4015 11.7297 56.916 18.4145C56.916 18.4145 49.3805 43.6865 30.0111 64.9929C10.6476 43.6865 3.10608 18.4145 3.10608 18.4145C8.62658 11.7297 30.0111 2.96387 30.0111 2.96387Z" fill="#D8EFFC"/>
<path fill-rule="evenodd" clip-rule="evenodd" d="M30.0101 60.4608C37.2058 52.0349 43.2211 42.452 47.9964 32.4935C49.6836 28.9812 51.2336 25.3854 52.5988 21.7359C52.9088 20.9011 53.2248 20.0483 53.5169 19.1896C48.5926 14.6159 36.2818 8.85545 30.0101 6.2078C23.7384 8.85545 11.4276 14.6159 6.50325 19.1896C6.79538 20.0483 7.11134 20.9011 7.42135 21.7359C8.78657 25.3854 10.3366 28.9812 12.0238 32.4935C16.799 42.452 22.8144 52.0349 30.0101 60.4608ZM30.0101 61.9099C37.5814 53.2275 43.8769 43.269 48.8549 32.905C50.554 29.3688 52.1159 25.7432 53.4871 22.0699C53.8687 21.0382 54.2562 19.9828 54.6079 18.9273C49.7492 14.0613 36.4845 7.88941 30.016 5.18213C23.5476 7.88941 10.277 14.0613 5.42419 18.9273C5.76997 19.9828 6.15748 21.0382 6.54499 22.0699C7.91617 25.7492 9.48409 29.3688 11.1772 32.905C16.1492 43.269 22.4507 53.2275 30.022 61.9099H30.0101Z" fill="#4B66EA"/>
<path d="M30.011 61.9874L29.9693 61.9397C22.696 53.5972 16.3528 43.8295 11.1185 32.9228C9.35979 29.2555 7.79784 25.612 6.48031 22.0817C6.10473 21.0799 5.71126 20.0066 5.35952 18.9392L5.3476 18.9093L5.37144 18.8855C11.1423 13.1072 28.0734 5.93345 29.9812 5.12842H29.9991H30.017C31.9306 5.92748 48.8618 13.1072 54.6267 18.8855L54.6505 18.9093L54.6386 18.9392C54.2869 20.0066 53.8934 21.0799 53.5178 22.0817C52.2003 25.612 50.6443 29.2555 48.8796 32.9228C43.6453 43.8295 37.3021 53.5972 30.0289 61.9397L29.9871 61.9874H30.011ZM5.47875 18.9392C5.82453 19.9946 6.218 21.0561 6.58762 22.046C7.90515 25.5702 9.46114 29.2137 11.2198 32.8811C16.4422 43.7639 22.7616 53.5018 30.011 61.8264C37.2604 53.5018 43.5857 43.7579 48.8021 32.8811C50.5608 29.2197 52.1168 25.5702 53.4344 22.046C53.804 21.0561 54.1915 19.9946 54.5432 18.9392C48.7843 13.2026 32.0141 6.07656 30.011 5.24172C28.0079 6.08253 11.2318 13.2026 5.47875 18.9392ZM30.011 60.5383L29.9693 60.4906C23.0478 52.3926 16.9967 42.9767 11.971 32.5173C10.2242 28.8798 8.6742 25.2542 7.3686 21.7538C7.07052 20.9487 6.74859 20.0841 6.4505 19.2075L6.43858 19.1717L6.46243 19.1479C10.9277 15.0035 21.921 9.55906 29.9871 6.16005H30.005H30.0229C38.0831 9.56503 49.0823 15.0094 53.5476 19.1479L53.5715 19.1717L53.5596 19.2075C53.2615 20.0841 52.9395 20.9487 52.6415 21.7538C51.3359 25.2542 49.7858 28.8738 48.0391 32.5173C43.0193 42.9827 36.9623 52.3926 30.0408 60.4906L29.9991 60.5383H30.011ZM6.56974 19.2075C6.86782 20.0722 7.17783 20.9249 7.47591 21.718C8.78151 25.2184 10.3315 28.8321 12.0723 32.4696C17.0801 42.9052 23.1133 52.2912 30.011 60.3773C36.9086 52.2972 42.9418 42.9052 47.9496 32.4696C49.6964 28.8321 51.2405 25.2124 52.5461 21.718C52.8442 20.9249 53.1542 20.0722 53.4522 19.2075C48.987 15.081 38.0413 9.6664 30.005 6.26739C21.9687 9.66044 11.0231 15.081 6.55781 19.2075H6.56974Z" fill="white"/>
<path fill-rule="evenodd" clip-rule="evenodd" d="M30.0113 13.0288C21.2953 13.0288 13.3246 19.5227 13.3246 28.5331C13.3246 37.5435 21.2953 44.0374 30.0113 44.0374C38.7272 44.0374 46.698 37.5435 46.698 28.5331C46.698 19.5227 38.7272 13.0288 30.0113 13.0288ZM30.0113 14.8655C21.808 14.8655 15.1608 20.9837 15.1608 28.5331C15.1608 36.0825 21.808 42.2007 30.0113 42.2007C38.2145 42.2007 44.8618 36.0825 44.8618 28.5331C44.8618 20.9837 38.2145 14.8655 30.0113 14.8655Z" fill="#4B66EA"/>
<path fill-rule="evenodd" clip-rule="evenodd" d="M38.3467 13.9794C38.5792 14.0509 38.8177 14.1642 39.0323 14.2775C39.5748 14.5638 40.0815 14.9335 40.5227 15.3569C40.6777 15.2376 40.8327 15.0229 40.94 14.856C41.2441 14.367 41.3931 13.7945 41.4408 13.2221C41.4766 12.739 41.5123 12.256 41.5362 11.767C41.5362 11.6895 41.5421 11.606 41.5421 11.5285C41.5421 11.4808 41.5779 11.4391 41.6256 11.4391L57.7936 10.0497C58.044 10.0139 58.3481 10.1152 58.5448 10.2643C59.1529 10.7354 59.1589 11.773 59.0933 12.4647C58.98 13.6156 58.4971 14.683 57.7936 15.5894C57.4777 15.9949 57.0842 16.4303 56.6728 16.7403C56.9173 16.8119 57.2034 17.0206 57.3763 17.2114C57.8652 17.7481 57.9367 18.4756 57.8234 19.1674C57.6684 20.0976 57.3942 20.9146 56.7801 21.6421C56.0469 22.5067 54.944 23.115 53.9305 23.5861C54.0676 23.759 54.1868 23.9737 54.2822 24.1764C54.4968 24.6237 54.622 25.1246 54.6101 25.6255C54.5922 26.2576 54.2345 26.8837 53.8291 27.3548C53.382 27.8796 52.7739 28.3387 52.1301 28.6011C51.6054 28.8158 51.0748 29.0066 50.5383 29.1795C50.3177 29.2511 50.0971 29.3227 49.8765 29.3823C49.8527 29.3883 49.8348 29.4121 49.8348 29.436C49.8229 29.5135 49.9302 29.6149 49.9779 29.6626C50.2044 29.8713 50.425 30.235 50.5442 30.5153C50.741 30.9566 50.8244 31.4575 50.6516 31.9166C50.2581 32.9483 48.72 33.6937 47.7363 34.0276C46.9553 34.296 46.0969 34.5822 45.2622 34.5822C45.4291 34.6776 45.602 34.8386 45.7272 34.9877C45.9657 35.2858 46.0432 35.6257 45.8345 35.9657C45.5365 36.4487 44.7555 36.9317 44.2607 37.2C43.5572 37.5817 42.7464 37.9156 41.9595 38.0766C41.2143 38.2257 40.4094 37.8202 39.8073 37.4087C39.5152 37.206 39.235 36.9794 38.9667 36.7409C38.7998 36.5918 38.6448 36.4367 38.4838 36.2877C38.3407 36.1565 38.144 35.9716 38.0426 35.8046L36.6357 38.3688L35.4732 41.7499L37.3094 44.0756L37.3272 44.0875C37.3272 44.0875 37.3332 44.0935 37.3392 44.0994L40.5465 48.2438C40.5465 48.2438 40.5465 48.2438 40.5525 48.2498C40.7969 48.6613 40.9817 49.2576 41.0473 49.7287C41.2083 50.8617 40.8685 51.8754 40.0696 52.6924C39.2529 53.5213 38.2155 53.9506 37.053 53.9804C36.5701 53.9924 35.9561 53.9327 35.497 53.7717C35.4434 53.9804 35.3539 54.1951 35.2645 54.3919C35.0499 54.8689 34.7637 55.3221 34.4239 55.7157C33.9589 56.2584 33.3926 56.6937 32.7427 56.9978C31.8842 57.3973 30.9423 57.5285 30.0004 57.4868C30.0004 57.4868 29.9884 57.4868 29.9825 57.4868L29.9348 57.4749L29.8871 57.4868C29.8871 57.4868 29.8752 57.4868 29.8692 57.4868C28.9273 57.5285 27.9853 57.3973 27.1268 56.9978C26.477 56.6937 25.9107 56.2584 25.4457 55.7157C25.1058 55.3162 24.8197 54.8689 24.6051 54.3919C24.5156 54.1951 24.4262 53.9804 24.3726 53.7717C23.9135 53.9327 23.3054 53.9924 22.8166 53.9804C21.654 53.9506 20.6227 53.5213 19.8 52.6924C18.9951 51.8814 18.6553 50.8617 18.8222 49.7287C18.8878 49.2576 19.0726 48.6613 19.3171 48.2498C19.3171 48.2498 19.3171 48.2498 19.323 48.2438L22.5304 44.0994C22.5304 44.0994 22.5364 44.0935 22.5423 44.0875L22.5602 44.0756L24.3964 41.7499L23.2339 38.3688L21.8269 35.8046C21.7315 35.9716 21.5288 36.1565 21.3858 36.2877C21.2248 36.4367 21.0698 36.5918 20.9029 36.7409C20.6346 36.9794 20.3604 37.206 20.0623 37.4087C19.4601 37.8202 18.6613 38.2257 17.9101 38.0766C17.1232 37.9156 16.3124 37.5817 15.6089 37.2C15.1141 36.9317 14.3331 36.4487 14.035 35.9657C13.8264 35.6257 13.8979 35.2858 14.1423 34.9877C14.2616 34.8386 14.4404 34.6836 14.6074 34.5822C13.7727 34.5822 12.9142 34.296 12.1333 34.0276C11.1496 33.6937 9.60552 32.9423 9.21801 31.9166C9.04512 31.4575 9.12859 30.9506 9.32532 30.5153C9.45052 30.235 9.6711 29.8713 9.89168 29.6626C9.93937 29.6149 10.0467 29.5135 10.0348 29.436C10.0348 29.4121 10.0109 29.3883 9.99303 29.3823C9.77245 29.3227 9.55187 29.2511 9.33128 29.1795C8.79474 29.0066 8.26415 28.8098 7.73952 28.6011C7.09566 28.3387 6.49353 27.8796 6.04045 27.3548C5.64102 26.8837 5.27736 26.2576 5.25947 25.6255C5.24755 25.1246 5.37274 24.6296 5.58736 24.1764C5.68275 23.9737 5.80198 23.759 5.9391 23.5861C4.92562 23.109 3.82271 22.5067 3.08943 21.6421C2.47537 20.9146 2.20114 20.0976 2.04613 19.1674C1.93286 18.4756 2.0044 17.7481 2.49326 17.2114C2.66615 17.0206 2.94635 16.8119 3.19673 16.7403C2.78538 16.4303 2.39191 15.9949 2.07594 15.5894C1.37247 14.6771 0.889572 13.6156 0.7763 12.4647C0.710722 11.767 0.716684 10.7354 1.32477 10.2643C1.52151 10.1152 1.82555 10.0139 2.07594 10.0497L18.244 11.4391C18.2917 11.4391 18.3274 11.4808 18.3274 11.5285C18.3274 11.606 18.3274 11.6895 18.3334 11.767C18.3513 12.2501 18.393 12.739 18.4288 13.2221C18.4705 13.7945 18.6255 14.367 18.9296 14.856C19.0309 15.0229 19.1919 15.2376 19.3469 15.3569C19.788 14.9275 20.2948 14.5638 20.8373 14.2775C21.0519 14.1642 21.2904 14.0509 21.5229 13.9794C22.6019 11.7313 24.3308 10.0437 26.7036 9.20884C27.419 8.95839 28.1701 8.79142 28.9273 8.72582C29.2313 8.69601 29.5532 8.67812 29.8632 8.70197H29.9169H29.9706C30.2806 8.67812 30.5965 8.70197 30.9065 8.72582C31.6637 8.79142 32.4148 8.95839 33.1302 9.20884C35.503 10.0437 37.2259 11.7313 38.3109 13.9794H38.3467Z" fill="#4B66EA"/>
<path d="M30.3524 57.552C30.2391 57.552 30.1318 57.552 30.0126 57.5461C30.0007 57.5461 29.9947 57.5461 29.9888 57.5461H29.953H29.9172C29.9053 57.5461 29.8993 57.5461 29.8934 57.5461C28.868 57.5938 27.9379 57.4268 27.1272 57.0511C26.4773 56.747 25.905 56.3117 25.4281 55.7571C25.0883 55.3576 24.8021 54.9103 24.5815 54.4154C24.51 54.2544 24.4206 54.0516 24.3609 53.8429C23.9496 53.9801 23.3832 54.0516 22.8407 54.0397C21.6603 54.0099 20.6051 53.5627 19.7884 52.7397C18.9716 51.9109 18.6258 50.8733 18.7928 49.7343C18.8703 49.2036 19.067 48.6192 19.2995 48.2375C19.2995 48.2375 19.3055 48.2256 19.3114 48.2256L22.5188 44.0812C22.5188 44.0812 22.5307 44.0693 22.5367 44.0633L22.5486 44.0514L24.3609 41.7556L23.2103 38.4043L21.8451 35.9176C21.7319 36.0726 21.5649 36.2277 21.4457 36.335C21.3801 36.3947 21.3205 36.4543 21.2549 36.5139C21.1595 36.6034 21.0641 36.6988 20.9628 36.7882C20.6707 37.0506 20.3905 37.2712 20.1162 37.4621C19.2816 38.0345 18.5483 38.2611 17.9283 38.1359C17.0221 37.951 16.1696 37.5575 15.6152 37.2593C15.1561 37.0089 14.3334 36.5139 14.0234 36.0071C13.8207 35.6731 13.8565 35.3094 14.1307 34.9695C14.2202 34.8562 14.3394 34.7429 14.4646 34.6474C13.6657 34.6117 12.8609 34.3374 12.1455 34.0929C10.9591 33.6874 9.55814 32.9122 9.19448 31.9461C8.99178 31.4094 9.14082 30.8668 9.30179 30.503C9.41506 30.2407 9.63564 29.859 9.88603 29.6324C10.0172 29.5131 10.0172 29.4654 10.0112 29.4535C10.0112 29.4535 10.0112 29.4475 10.0053 29.4475C9.77276 29.382 9.54025 29.3104 9.34352 29.2448C8.80697 29.0719 8.27042 28.8751 7.74579 28.6604C7.12578 28.41 6.49981 27.9508 6.02883 27.4022C5.74267 27.0682 5.25382 26.3884 5.23593 25.643C5.22401 25.166 5.33728 24.6531 5.56979 24.1701C5.67113 23.9555 5.77844 23.7706 5.89172 23.6215C4.97362 23.1862 3.8409 22.578 3.08377 21.6894C2.52934 21.0395 2.20741 20.2642 2.02856 19.1909C1.89144 18.362 2.05241 17.6703 2.48761 17.1932C2.63665 17.0322 2.88108 16.8414 3.11954 16.74C2.6903 16.4001 2.31472 15.9588 2.06433 15.6368C1.31316 14.6648 0.860073 13.5736 0.752763 12.4823C0.645454 11.3672 0.836227 10.6098 1.31912 10.2342C1.5397 10.0612 1.86163 9.97179 2.11202 10.0076L18.2741 11.397C18.3516 11.403 18.4052 11.4626 18.4052 11.5401C18.4052 11.5997 18.4052 11.6594 18.4052 11.713V11.7727C18.4291 12.2378 18.4589 12.685 18.5006 13.2277C18.5483 13.8419 18.7153 14.3965 18.9895 14.8377C19.0491 14.9332 19.1922 15.1538 19.3591 15.2969C19.8003 14.8735 20.2951 14.5217 20.8257 14.2414C21.0105 14.146 21.2549 14.0208 21.4993 13.9433C22.6261 11.6176 24.4206 9.96582 26.6979 9.16676C27.4252 8.91034 28.1764 8.74933 28.9395 8.67778C29.2257 8.65392 29.5595 8.63007 29.8814 8.65392C29.8814 8.65392 29.8874 8.65392 29.8934 8.65392H29.9351H29.9828C29.9828 8.65392 29.9828 8.65392 29.9947 8.65392C30.3226 8.63007 30.6565 8.65392 30.9367 8.67778C31.6938 8.74337 32.4509 8.91034 33.1782 9.16676C35.4556 9.96582 37.2501 11.6176 38.3768 13.9433C38.6212 14.0208 38.8657 14.1401 39.0505 14.2414C39.5811 14.5217 40.0759 14.8735 40.517 15.2969C40.678 15.1538 40.8271 14.9332 40.8867 14.8377C41.1609 14.3965 41.3278 13.8419 41.3755 13.2277C41.4173 12.691 41.453 12.2438 41.4709 11.7727V11.713C41.4709 11.6534 41.4769 11.5997 41.4769 11.5401C41.4769 11.4626 41.5365 11.403 41.608 11.397L57.7761 10.0076C58.0205 9.97179 58.3424 10.0612 58.563 10.2342C59.0459 10.6098 59.2367 11.3672 59.1294 12.4823C59.022 13.5736 58.569 14.6648 57.8178 15.6368C57.5734 15.9529 57.1918 16.4001 56.7626 16.74C57.001 16.8354 57.2455 17.0322 57.3945 17.1932C57.8357 17.6703 57.9907 18.362 57.8536 19.1909C57.6747 20.2642 57.3528 21.0395 56.7983 21.6894C56.0472 22.578 54.9145 23.1862 53.9904 23.6215C54.0977 23.7646 54.205 23.9495 54.3123 24.1701C54.5448 24.6531 54.6581 25.16 54.6462 25.643C54.6283 26.3884 54.1394 27.0682 53.8533 27.4022C53.3823 27.9508 52.7563 28.41 52.1363 28.6604C51.6177 28.8691 51.0811 29.0659 50.5386 29.2448C50.3419 29.3104 50.1094 29.382 49.8769 29.4475C49.8769 29.4475 49.8769 29.4475 49.8769 29.4535C49.8769 29.4595 49.8769 29.5131 50.0021 29.6324C50.2465 29.859 50.4671 30.2466 50.5863 30.503C50.7473 30.8668 50.8963 31.4154 50.6936 31.9461C50.3299 32.9062 48.929 33.6814 47.7426 34.0929C47.0272 34.3374 46.2224 34.6117 45.4235 34.6474C45.5487 34.7429 45.6679 34.8562 45.7573 34.9695C46.0316 35.3153 46.0733 35.6731 45.8647 36.0071C45.5547 36.5139 44.7319 37.0089 44.2729 37.2593C43.7185 37.5575 42.8659 37.957 41.9598 38.1359C41.3398 38.2611 40.6005 38.0345 39.7718 37.4621C39.4976 37.2712 39.2174 37.0506 38.9253 36.7882C38.8239 36.6988 38.7286 36.6034 38.6332 36.5139C38.5676 36.4543 38.508 36.3947 38.4424 36.335C38.3232 36.2277 38.1562 36.0667 38.043 35.9176L36.6777 38.4043L35.5271 41.7556L37.3395 44.0514L37.3514 44.0633C37.3514 44.0633 37.3633 44.0752 37.3693 44.0812L40.5767 48.2256C40.5767 48.2256 40.5826 48.2316 40.5886 48.2375C40.8211 48.6192 41.0178 49.2095 41.0953 49.7343C41.2623 50.8733 40.9165 51.9168 40.0997 52.7397C39.2889 53.5627 38.2337 54.0159 37.0474 54.0397C36.5049 54.0516 35.9445 53.9801 35.5271 53.8429C35.4675 54.0516 35.3781 54.2604 35.3066 54.4154C35.086 54.9044 34.7998 55.3576 34.46 55.7571C33.9831 56.3177 33.4107 56.753 32.7609 57.0511C32.0455 57.3851 31.2288 57.552 30.3345 57.552H30.3524ZM29.953 57.4208L30.0126 57.4328C30.0126 57.4328 30.0126 57.4328 30.0186 57.4328C31.0261 57.4805 31.9442 57.3135 32.7311 56.9498C33.3631 56.6576 33.9235 56.2282 34.3885 55.6796C34.7223 55.286 35.0025 54.8447 35.2171 54.3677C35.2946 54.2007 35.39 53.9741 35.4437 53.7535L35.4556 53.6998L35.5093 53.7177C35.9862 53.8847 36.6181 53.9383 37.0474 53.9264C38.2039 53.8966 39.2293 53.4613 40.0222 52.6563C40.8151 51.8572 41.149 50.8435 40.988 49.7403C40.9165 49.2274 40.7197 48.655 40.4992 48.2793L37.2918 44.1289L37.2679 44.111L35.4139 41.7615L36.5883 38.3446L38.043 35.697L38.0907 35.7804C38.186 35.9415 38.3887 36.1323 38.5199 36.2515C38.5855 36.3112 38.651 36.3708 38.7107 36.4304C38.8061 36.5199 38.9014 36.6153 39.0028 36.6988C39.2949 36.9612 39.5632 37.1758 39.8374 37.3607C40.6482 37.9153 41.3576 38.1359 41.9478 38.0166C42.8421 37.8377 43.6827 37.4442 44.2371 37.146C44.6902 36.9015 45.495 36.4185 45.7931 35.9355C45.9779 35.6373 45.9422 35.3272 45.6918 35.0172C45.5725 34.8681 45.3996 34.719 45.2446 34.6236L45.0777 34.5222H45.2745C46.1151 34.5222 46.9735 34.23 47.7307 33.9676C48.8932 33.5681 50.2644 32.8108 50.6161 31.8865C50.8069 31.3856 50.6638 30.8668 50.5088 30.5209C50.3955 30.2705 50.1869 29.9007 49.9544 29.6861C49.8351 29.5787 49.7815 29.4893 49.7934 29.4118C49.7994 29.37 49.8351 29.3283 49.8769 29.3164C50.1094 29.2508 50.3359 29.1792 50.5386 29.1136C51.0752 28.9407 51.6057 28.7439 52.1244 28.5352C52.7325 28.2907 53.3406 27.8375 53.7996 27.3008C54.0798 26.9728 54.5508 26.3228 54.5687 25.6073C54.5806 25.1481 54.4673 24.6531 54.2468 24.1821C54.1335 23.9435 54.0143 23.7467 53.901 23.6036L53.8593 23.55L53.9189 23.5201C54.837 23.0908 55.9935 22.4825 56.7507 21.5881C57.2872 20.95 57.6091 20.1986 57.782 19.1432C57.8714 18.5886 57.8714 17.8074 57.3468 17.2349C57.1918 17.068 56.9176 16.8533 56.6672 16.7817L56.5658 16.7519L56.6493 16.6863C57.1024 16.3464 57.5018 15.8753 57.7582 15.5414C58.4974 14.5873 58.9445 13.5139 59.0459 12.4405C59.1472 11.3791 58.9684 10.6337 58.5213 10.2878C58.3245 10.1328 58.0324 10.0493 57.8118 10.0791L41.6378 11.4685C41.6378 11.4685 41.6021 11.4864 41.6021 11.5043C41.6021 11.564 41.6021 11.6236 41.6021 11.6832V11.7429C41.5782 12.2139 41.5484 12.6612 41.5067 13.1979C41.459 13.83 41.2861 14.4024 40.9999 14.8556C40.9344 14.963 40.7615 15.2254 40.5707 15.3685L40.5349 15.3983L40.4992 15.3685C40.058 14.9391 39.5572 14.5813 39.0207 14.2951C38.8299 14.1937 38.5855 14.0745 38.341 13.9969H38.3172L38.3053 13.9671C37.1964 11.6594 35.4139 10.0195 33.1544 9.22639C32.439 8.97594 31.6938 8.80897 30.9426 8.74337C30.6624 8.71952 30.3345 8.69567 30.0186 8.71952H29.9589H29.8993C29.5774 8.69567 29.2495 8.71952 28.9693 8.74337C28.2181 8.80897 27.4729 8.97594 26.7575 9.22639C24.4981 10.0195 22.7215 11.6594 21.6067 13.9671L21.5947 13.991H21.5709C21.3265 14.0745 21.082 14.1937 20.8913 14.2951C20.3547 14.5754 19.8599 14.9391 19.4128 15.3685L19.377 15.3983L19.3412 15.3685C19.1505 15.2194 18.9776 14.957 18.912 14.8556C18.6318 14.4024 18.4529 13.824 18.4052 13.1979C18.3635 12.6612 18.3277 12.208 18.3099 11.7429V11.6832C18.3099 11.6236 18.3039 11.564 18.3039 11.5043C18.3039 11.4864 18.286 11.4685 18.2681 11.4685L2.1001 10.0791C1.87952 10.0493 1.5874 10.1328 1.39066 10.2878C0.943537 10.6337 0.758725 11.3791 0.866035 12.4405C0.967383 13.5139 1.41451 14.5873 2.15375 15.5414C2.41011 15.8753 2.8155 16.3405 3.26262 16.6863L3.34609 16.7519L3.24474 16.7817C2.99435 16.8533 2.72011 17.068 2.56511 17.2349C2.04048 17.8074 2.04048 18.5886 2.12991 19.1432C2.3028 20.1986 2.62473 20.956 3.16127 21.5881C3.91841 22.4825 5.06901 23.0908 5.99306 23.5201L6.05268 23.55L6.01095 23.6036C5.89172 23.7527 5.77844 23.9435 5.66517 24.1821C5.44459 24.6531 5.33132 25.1421 5.34324 25.6073C5.36113 26.3228 5.8321 26.9728 6.1123 27.3008C6.57135 27.8375 7.1854 28.2847 7.78752 28.5352C8.30619 28.7439 8.83678 28.9407 9.37333 29.1136C9.57006 29.1792 9.80257 29.2508 10.0291 29.3164C10.0708 29.3283 10.1066 29.37 10.1126 29.4118C10.1245 29.4833 10.0708 29.5728 9.95161 29.6861C9.7191 29.9007 9.50448 30.2705 9.39717 30.5209C9.24217 30.8668 9.09909 31.3856 9.28986 31.8865C9.6416 32.8108 11.0128 33.5681 12.1753 33.9676C12.9324 34.2241 13.7909 34.5222 14.6315 34.5222H14.8282L14.6613 34.6236C14.5063 34.719 14.3334 34.8681 14.2142 35.0172C13.9638 35.3272 13.928 35.6373 14.1128 35.9355C14.4109 36.4245 15.2158 36.9015 15.6688 37.146C16.2173 37.4442 17.0579 37.8318 17.9581 38.0166C18.5483 38.1359 19.2578 37.9153 20.0686 37.3607C20.3428 37.1758 20.6111 36.9552 20.9032 36.6988C21.0045 36.6093 21.0999 36.5199 21.1953 36.4304C21.2609 36.3708 21.3205 36.3112 21.3861 36.2515C21.5172 36.1263 21.7199 35.9415 21.8153 35.7804L21.863 35.697L23.3177 38.3565L24.4861 41.7675L22.6261 44.1229L22.6082 44.1349L19.4008 48.2793C19.1743 48.655 18.9835 49.2274 18.906 49.7403C18.7451 50.8494 19.0789 51.8572 19.8718 52.6563C20.6647 53.4613 21.6961 53.8966 22.8467 53.9264C23.2759 53.9383 23.9019 53.8847 24.3848 53.7177L24.4384 53.6998L24.4504 53.7535C24.51 53.9741 24.6054 54.2007 24.6769 54.3677C24.8915 54.8447 25.1717 55.292 25.5056 55.6796C25.9706 56.2282 26.531 56.6516 27.1629 56.9498C27.9558 57.3195 28.868 57.4805 29.8755 57.4328C29.8755 57.4328 29.8755 57.4328 29.8814 57.4328L29.9411 57.4208H29.953Z" fill="white"/>
<path fill-rule="evenodd" clip-rule="evenodd" d="M13.5104 12.3809C11.7994 12.2259 10.0884 12.0708 8.37742 11.9217C7.15527 11.8144 5.92717 11.713 4.70503 11.6117C4.27579 11.5759 3.84655 11.5461 3.41731 11.5162C3.28019 11.5103 3.14904 11.4984 3.01192 11.4924C2.94038 11.4924 2.8748 11.4864 2.80326 11.4924C2.33825 11.5282 2.16536 11.8084 2.29652 12.2438C2.5648 13.1382 2.94038 13.9433 3.47097 14.7125C3.81078 15.2134 4.2281 15.6726 4.68119 16.0721C4.82427 16.1973 5.31312 16.5909 5.48601 16.5909C5.5337 16.5909 5.57543 16.579 5.61717 16.573C5.71851 16.5551 5.8139 16.5373 5.91525 16.5194C6.24314 16.4597 6.57103 16.4001 6.89892 16.3405C7.85875 16.1675 8.81858 15.9886 9.77841 15.8097C11.1317 15.5593 12.485 15.3088 13.8323 15.0584C13.88 15.0524 13.9098 15.0047 13.9039 14.957L13.5879 12.4525C13.5879 12.4107 13.5462 12.3749 13.5044 12.3749L13.5104 12.3809Z" fill="#D8EFFC"/>
<path fill-rule="evenodd" clip-rule="evenodd" d="M29.4344 23.6275C29.4105 23.5022 29.3807 23.377 29.3569 23.2518C29.2555 22.7747 29.1482 22.3036 29.029 21.8325C28.6892 20.4968 28.2719 19.1551 27.6936 17.9028C27.3418 17.1335 26.7874 15.9767 26.1376 15.44C25.6666 15.0584 25.2016 15.0405 24.6352 15.1836C24.051 15.3327 23.5741 15.7441 23.3296 16.2987C23.0316 16.9785 23.1389 17.7299 23.4548 18.3799C24.2418 20.0018 27.6995 22.8224 29.2913 23.7348C29.3271 23.7527 29.3688 23.7527 29.3986 23.7348C29.4284 23.7109 29.4463 23.6752 29.4403 23.6334L29.4344 23.6275Z" fill="#D8EFFC"/>
<path fill-rule="evenodd" clip-rule="evenodd" d="M30.6204 23.7348C32.2121 22.8225 35.6699 20.0019 36.4568 18.3799C36.7728 17.7299 36.8801 16.9785 36.582 16.2987C36.3376 15.7501 35.8607 15.3327 35.2764 15.1836C34.7101 15.0405 34.2451 15.0524 33.7741 15.44C33.1183 15.9767 32.5698 17.1396 32.2181 17.9028C31.6398 19.1611 31.2225 20.4968 30.8827 21.8326C30.7635 22.3037 30.6561 22.7748 30.5548 23.2518C30.5309 23.377 30.5011 23.5023 30.4773 23.6275C30.4713 23.6692 30.4833 23.705 30.519 23.7289C30.5488 23.7527 30.5906 23.7527 30.6263 23.7289L30.6204 23.7348Z" fill="#D8EFFC"/>
<path fill-rule="evenodd" clip-rule="evenodd" d="M29.9521 11.1167C29.4931 11.0929 29.0162 11.1227 28.5631 11.1763C27.5496 11.2896 26.5361 11.5341 25.5942 11.9277C25.5584 11.9396 25.5405 11.9694 25.5345 12.0052C25.5345 12.041 25.5405 12.0708 25.5703 12.0947C25.9757 12.4465 26.3573 12.8281 26.7209 13.2158C27.3827 13.9254 28.1338 14.8437 28.4796 15.7561C28.8075 16.6267 29.0937 17.5092 29.3321 18.4037C29.5467 19.2207 29.7196 20.0436 29.8627 20.8725C29.8687 20.9202 29.9104 20.956 29.9641 20.956C30.0177 20.956 30.0535 20.9202 30.0654 20.8725C30.2085 20.0436 30.3814 19.2207 30.596 18.4037C30.8285 17.5033 31.1206 16.6207 31.4485 15.7561C31.7943 14.8437 32.5455 13.9254 33.2072 13.2158C33.5709 12.8281 33.9524 12.4465 34.3578 12.0947C34.3876 12.0708 34.3995 12.035 34.3936 12.0052C34.3936 11.9694 34.3638 11.9396 34.334 11.9277C33.3861 11.5401 32.3785 11.2896 31.365 11.1763C30.912 11.1286 30.435 11.0929 29.976 11.1167H29.9521Z" fill="#D8EFFC"/>
<path fill-rule="evenodd" clip-rule="evenodd" d="M33.4339 42.2681C33.2789 43.6933 33.2193 45.1423 33.2729 46.5795C33.2968 47.2235 33.3385 47.8735 33.4339 48.5175C33.4995 48.9707 33.5889 49.4656 33.7737 49.8831C34.0479 50.5211 34.507 51.0817 35.127 51.4156C35.6099 51.678 36.206 51.7913 36.7366 51.6124C37.2911 51.4275 37.6249 50.9743 37.7442 50.4138C37.929 49.5551 37.6249 48.5414 37.2851 47.7542C36.9989 47.0983 36.6412 46.4781 36.2597 45.8698C35.8603 45.2377 35.437 44.6235 35.0018 44.0213C34.5547 43.407 34.1016 42.8048 33.6187 42.2204C33.5948 42.1906 33.5531 42.1786 33.5114 42.1846C33.4696 42.1965 33.4458 42.2263 33.4398 42.2681H33.4339Z" fill="#D8EFFC"/>
<path fill-rule="evenodd" clip-rule="evenodd" d="M29.9584 55.149C31.5025 55.0953 32.2417 54.3499 32.4683 53.1752C32.665 52.1197 32.4444 51.0225 32.3133 49.967C32.2358 49.3528 32.045 48.7386 31.8244 48.1482C31.5979 47.5459 31.3296 46.9496 31.0315 46.3712C30.7275 45.7749 30.4055 45.1845 30.0478 44.6121C30.0299 44.5822 29.9942 44.5703 29.9584 44.5703C29.9226 44.5703 29.8869 44.5882 29.869 44.6121C29.5113 45.1845 29.1894 45.7749 28.8853 46.3712C28.5872 46.9556 28.319 47.5459 28.0924 48.1482C27.8718 48.7386 27.6811 49.3528 27.6036 49.967C27.4664 51.0225 27.2459 52.1197 27.4485 53.1752C27.6691 54.3499 28.4084 55.0953 29.9584 55.149C29.9584 55.149 29.9584 55.149 29.9644 55.149H29.9584Z" fill="#D8EFFC"/>
<path fill-rule="evenodd" clip-rule="evenodd" d="M26.292 42.2209C25.8151 42.8053 25.3561 43.4136 24.9089 44.0218C24.4678 44.6241 24.0445 45.2383 23.651 45.8704C23.2695 46.4727 22.9118 47.0988 22.6256 47.7548C22.2858 48.5419 21.9758 49.5556 22.1666 50.4143C22.2858 50.9749 22.6197 51.4281 23.1741 51.6129C23.7047 51.7918 24.3009 51.6785 24.7837 51.4161C25.3978 51.0822 25.8628 50.5217 26.137 49.8836C26.3159 49.4662 26.4053 48.9712 26.4769 48.518C26.5722 47.88 26.614 47.23 26.6378 46.58C26.6915 45.1488 26.6378 43.6998 26.4769 42.2686C26.4769 42.2269 26.447 42.1971 26.4053 42.1851C26.3636 42.1732 26.3278 42.1851 26.298 42.2209H26.292Z" fill="#D8EFFC"/>
<path fill-rule="evenodd" clip-rule="evenodd" d="M25.5524 16.1074C24.8847 16.1074 24.3481 16.6441 24.3481 17.312C24.3481 17.9799 24.8847 18.5165 25.5524 18.5165C26.2201 18.5165 26.7567 17.9799 26.7567 17.312C26.7567 16.6441 26.2201 16.1074 25.5524 16.1074Z" fill="#447EF7"/>
<path fill-rule="evenodd" clip-rule="evenodd" d="M34.3516 16.1074C35.0193 16.1074 35.5559 16.6441 35.5559 17.312C35.5559 17.9799 35.0193 18.5165 34.3516 18.5165C33.6839 18.5165 33.1473 17.9799 33.1473 17.312C33.1473 16.6441 33.6839 16.1074 34.3516 16.1074Z" fill="#447EF7"/>
<path fill-rule="evenodd" clip-rule="evenodd" d="M15.15 12.6136C15.15 12.6792 15.15 12.7507 15.15 12.8163C15.15 15.8635 17.0816 18.5827 19.9611 19.5786C20.0088 19.5965 20.0624 19.5726 20.0743 19.5249L20.6526 17.8791C20.6526 17.8791 20.6586 17.8314 20.6526 17.8075C20.6407 17.7837 20.6228 17.7717 20.599 17.7598C18.5601 17.1814 17.1531 15.3149 17.1531 13.198C17.1531 13.0549 17.1591 12.9177 17.171 12.7805C17.171 12.7567 17.171 12.7328 17.1472 12.715C17.1293 12.6971 17.1114 12.6851 17.0875 12.6851L15.2573 12.5241C15.2573 12.5241 15.2096 12.5241 15.1858 12.548C15.1679 12.5659 15.156 12.5897 15.156 12.6136H15.15ZM15.3348 18.1355C15.2335 17.7717 14.995 17.1873 14.6969 16.9548C14.4704 16.7759 14.1961 16.7461 13.9159 16.758C13.4807 16.7699 13.0455 16.8653 12.6223 16.9369C12.0142 17.0442 11.4001 17.1396 10.7861 17.241C9.79047 17.402 8.80083 17.563 7.80523 17.724C6.48174 17.9387 5.15826 18.1474 3.83477 18.3621C3.799 18.3621 3.77515 18.3919 3.76323 18.4217C3.67976 18.6722 3.66188 19.0121 3.67976 19.2804C3.73938 20.0318 4.11497 20.6579 4.6694 21.1588C5.27749 21.7015 5.975 22.1487 6.72021 22.4767C7.03022 22.6138 7.36407 22.745 7.69196 22.8166C7.69196 22.8166 7.69196 22.8166 7.69792 22.8166C7.8887 22.8404 8.13313 22.7987 8.30601 22.7212C8.81872 22.4826 9.31353 22.2203 9.80239 21.946C10.3986 21.612 10.9888 21.2721 11.579 20.9203C12.664 20.2703 13.743 19.6024 14.7923 18.8868C15.0188 18.7318 15.3527 18.4515 15.3408 18.1534C15.3408 18.1474 15.3408 18.1415 15.3408 18.1355H15.3348ZM16.4258 19.6561L7.32234 25.023C7.20311 25.0945 7.07791 25.2317 7.01233 25.3569C6.83944 25.673 6.95868 25.9771 7.17926 26.2335C7.57273 26.6867 8.39544 27.128 8.93199 27.4023C9.2718 27.5752 9.62354 27.7362 9.97528 27.8734C10.2197 27.9688 10.482 28.0761 10.7443 28.1298C10.9649 28.1715 11.2451 28.2371 11.4657 28.2073C11.6326 28.1894 11.7399 28.1179 11.8711 28.0224C12.1632 27.8078 12.4553 27.605 12.7475 27.4023C13.3436 26.9789 13.9398 26.5555 14.536 26.1262C15.2335 25.6252 15.925 25.1124 16.6106 24.5996C17.2008 24.1523 17.791 23.7051 18.3574 23.234C18.7628 22.8941 19.5855 22.1905 19.7584 21.7015C19.8538 21.4272 19.7345 21.284 19.5318 21.123C19.4603 21.0694 19.3828 21.0276 19.3053 20.9859C19.1741 20.9143 19.043 20.8487 18.9118 20.7831C18.572 20.6102 18.2262 20.4492 17.8745 20.2882C17.4214 20.0795 16.9623 19.8708 16.5093 19.6621C16.4795 19.6501 16.4496 19.6501 16.4258 19.6621V19.6561ZM19.4901 24.0689C18.4408 24.862 17.3975 25.667 16.3602 26.472C15.5375 27.116 14.7148 27.766 13.8981 28.422C13.5463 28.7082 13.2005 28.9944 12.8607 29.2807C12.6044 29.5013 12.348 29.716 12.1096 29.9486C11.7638 30.2825 11.0126 30.9981 10.9888 31.493C10.9649 31.9164 11.4776 32.143 11.8055 32.2802C12.0976 32.3994 12.3778 32.5425 12.6699 32.6618C13.0098 32.8049 13.3555 32.9242 13.7132 32.9957C14.6969 33.2045 15.6389 33.0613 16.5689 32.7035C16.6523 32.6857 16.7537 32.632 16.8252 32.5843C17.0637 32.4412 17.2783 32.2325 17.4631 32.0237C18.1726 31.2008 18.888 30.3839 19.6034 29.5669C19.6034 29.5669 19.6034 29.561 19.6093 29.555C19.8418 29.1912 19.9968 28.6426 19.9968 28.2073C19.9968 27.6647 19.9789 27.128 19.9551 26.5913C19.9313 26.0069 19.9014 25.4285 19.8597 24.8441C19.8478 24.6831 19.818 24.0927 19.6809 24.0152C19.6689 24.0092 19.657 24.0033 19.6451 24.0033C19.5974 24.0033 19.5437 24.0331 19.502 24.0569C19.502 24.0569 19.502 24.0569 19.4961 24.0569L19.4901 24.0689ZM15.9489 35.2916C15.8058 35.4228 15.9966 35.6911 16.0919 35.8044C16.6941 36.514 17.4512 36.9136 18.3872 36.6452C18.9893 36.4723 19.5318 36.025 19.9611 35.5838C20.2711 35.2618 20.5334 34.9099 20.7957 34.5521C20.8493 34.4806 20.9567 34.3554 20.9686 34.2659C20.9805 34.1705 20.903 33.9677 20.8732 33.8723C20.7242 33.3953 20.599 32.6916 20.6347 32.1967C20.6526 31.988 20.6168 31.7614 20.5692 31.5586C20.5453 31.4572 20.4917 31.2903 20.438 31.2068C20.4201 31.1829 20.4022 31.171 20.3724 31.165C20.3426 31.165 20.3188 31.165 20.3009 31.1889L15.9548 35.2856C15.9548 35.2856 15.9548 35.2856 15.9489 35.2856V35.2916ZM43.9568 35.2916C44.0998 35.4228 43.9091 35.6911 43.8137 35.8044C43.2115 36.514 42.4544 36.9136 41.5184 36.6452C40.9163 36.4723 40.3738 36.025 39.9446 35.5838C39.6345 35.2618 39.3722 34.9099 39.1099 34.5521C39.0563 34.4806 38.949 34.3554 38.937 34.2659C38.9251 34.1705 39.0026 33.9677 39.0324 33.8723C39.1815 33.3953 39.3067 32.6916 39.2709 32.1967C39.253 31.988 39.2888 31.7614 39.3365 31.5586C39.3603 31.4572 39.414 31.2903 39.4676 31.2068C39.4855 31.1829 39.5034 31.171 39.5332 31.165C39.563 31.165 39.5869 31.165 39.6047 31.1889L43.9508 35.2856C43.9508 35.2856 43.9508 35.2856 43.9568 35.2856V35.2916ZM40.4155 24.0689C41.4648 24.862 42.5081 25.667 43.5454 26.472C44.3681 27.116 45.1908 27.766 46.0076 28.422C46.3593 28.7082 46.7051 28.9944 47.0449 29.2807C47.3012 29.5013 47.5576 29.716 47.7961 29.9486C48.1418 30.2825 48.893 30.9981 48.9169 31.493C48.9407 31.9164 48.428 32.143 48.1001 32.2802C47.808 32.3994 47.5278 32.5425 47.2357 32.6618C46.8959 32.8049 46.5501 32.9242 46.1924 32.9957C45.2087 33.2045 44.2668 33.0613 43.3367 32.7035C43.2533 32.6857 43.1519 32.632 43.0804 32.5843C42.8419 32.4412 42.6273 32.2325 42.4425 32.0237C41.7331 31.2008 41.0177 30.3839 40.3023 29.5669C40.3023 29.5669 40.3023 29.561 40.2963 29.555C40.0638 29.1912 39.9088 28.6426 39.9088 28.2073C39.9088 27.6647 39.9267 27.128 39.9505 26.5913C39.9744 26.0069 40.0042 25.4285 40.0459 24.8441C40.0578 24.6831 40.0876 24.0927 40.2248 24.0152C40.2367 24.0092 40.2486 24.0033 40.2605 24.0033C40.3082 24.0033 40.3619 24.0331 40.4036 24.0569C40.4036 24.0569 40.4036 24.0569 40.4096 24.0569L40.4155 24.0689ZM46.3891 12.3751C48.1001 12.22 49.8111 12.065 51.5221 11.9159C52.7442 11.8085 53.9723 11.7072 55.1945 11.6058C55.6237 11.57 56.053 11.5402 56.4822 11.5104C56.6193 11.5044 56.7505 11.4925 56.8876 11.4865C56.9591 11.4865 57.0247 11.4806 57.0963 11.4865C57.5613 11.5223 57.7342 11.8026 57.603 12.2379C57.3347 13.1324 56.9591 13.9374 56.4285 14.7067C56.0887 15.2076 55.6714 15.6667 55.2183 16.0663C55.0753 16.1915 54.5864 16.5851 54.4135 16.5851C54.3658 16.5851 54.3241 16.5731 54.2824 16.5672C54.181 16.5493 54.0856 16.5314 53.9843 16.5135C53.6564 16.4539 53.3285 16.3942 53.0006 16.3346C52.0408 16.1617 51.0809 15.9828 50.1211 15.8039C48.7678 15.5534 47.4145 15.303 46.0672 15.0525C46.0195 15.0466 45.9897 14.9989 45.9956 14.9511L46.3116 12.4466C46.3116 12.4049 46.3533 12.3691 46.3951 12.3691L46.3891 12.3751ZM44.5648 18.1295C44.6662 17.7658 44.9047 17.1814 45.2027 16.9488C45.4293 16.7699 45.7035 16.7401 45.9837 16.752C46.4189 16.764 46.8541 16.8594 47.2774 16.9309C47.8855 17.0383 48.4995 17.1337 49.1136 17.235C50.1092 17.3961 51.0988 17.5571 52.0944 17.7181C53.4179 17.9327 54.7414 18.1415 56.0649 18.3561C56.1007 18.3561 56.1245 18.3859 56.1364 18.4158C56.2199 18.6662 56.2378 19.0061 56.2199 19.2745C56.1603 20.0258 55.7847 20.652 55.2303 21.1529C54.6222 21.6955 53.9247 22.1427 53.1794 22.4707C52.8694 22.6079 52.5356 22.7391 52.2077 22.8106C52.2077 22.8106 52.2077 22.8106 52.2017 22.8106C52.011 22.8345 51.7665 22.7927 51.5936 22.7152C51.0809 22.4767 50.5861 22.2143 50.0973 21.94C49.5011 21.6061 48.9109 21.2662 48.3207 20.9143C47.2357 20.2643 46.1566 19.5965 45.1074 18.8809C44.8808 18.7258 44.547 18.4456 44.5589 18.1474C44.5589 18.1415 44.5589 18.1355 44.5589 18.1295H44.5648ZM43.4739 19.6501L52.5773 25.017C52.6965 25.0886 52.8217 25.2257 52.8873 25.3509C53.0602 25.667 52.941 25.9711 52.7264 26.2275C52.3329 26.6807 51.5102 27.122 50.9736 27.3963C50.6338 27.5692 50.2821 27.7303 49.9303 27.8674C49.6859 27.9628 49.4236 28.0702 49.1613 28.1238C48.9407 28.1656 48.6605 28.2312 48.4399 28.2013C48.273 28.1835 48.1657 28.1119 48.0345 28.0165C47.7424 27.8018 47.4503 27.5991 47.1582 27.3963C46.562 26.9729 45.9658 26.5495 45.3697 26.1202C44.6721 25.6193 43.9806 25.1065 43.295 24.5936C42.7048 24.1464 42.1146 23.6991 41.5482 23.228C41.1428 22.8881 40.3201 22.1845 40.1473 21.6955C40.0519 21.4212 40.1711 21.2781 40.3738 21.1171C40.4453 21.0634 40.5228 21.0217 40.6003 20.9799C40.7315 20.9084 40.8626 20.8428 40.9938 20.7772C41.3336 20.6042 41.6794 20.4432 42.0311 20.2822C42.4842 20.0735 42.9433 19.8648 43.3964 19.6561C43.4262 19.6442 43.456 19.6442 43.4798 19.6561L43.4739 19.6501ZM44.7437 12.6017C44.7437 12.6672 44.7437 12.7388 44.7437 12.8044C44.7437 15.8516 42.8121 18.5708 39.9326 19.5667C39.8849 19.5845 39.8313 19.5607 39.8194 19.513L39.2411 17.8671C39.2411 17.8671 39.2351 17.8194 39.2411 17.7956C39.253 17.7717 39.2709 17.7598 39.2947 17.7479C41.3336 17.1695 42.7406 15.303 42.7406 13.186C42.7406 13.0429 42.7346 12.9058 42.7227 12.7686C42.7227 12.7448 42.7227 12.7209 42.7465 12.703C42.7644 12.6851 42.7823 12.6732 42.8062 12.6732L44.6364 12.5122C44.6364 12.5122 44.6841 12.5122 44.7079 12.5361C44.7258 12.5539 44.7377 12.5778 44.7377 12.6017H44.7437Z" fill="#D8EFFC"/>
<path fill-rule="evenodd" clip-rule="evenodd" d="M10.9464 12.149C10.9464 12.149 10.1833 14.4806 9.47383 15.876C8.61535 16.037 7.76283 16.192 6.90435 16.3471C6.57646 16.4067 6.24857 16.4664 5.92068 16.526C5.81933 16.5439 5.72394 16.5618 5.62259 16.5797C5.58086 16.5856 5.53317 16.5975 5.49144 16.5975C5.31855 16.5975 4.82969 16.204 4.68661 16.0787C4.22756 15.6852 3.81621 15.2201 3.47639 14.7191C2.94581 13.9499 2.57618 13.1389 2.30195 12.2504C2.17079 11.8091 2.33772 11.5288 2.80869 11.499C2.88023 11.499 2.94581 11.499 3.01735 11.499C3.15446 11.505 3.29158 11.5109 3.42274 11.5229C3.85198 11.5527 4.28122 11.5825 4.71046 11.6183C5.9326 11.7137 7.1607 11.821 8.38284 11.9284C9.24132 11.9999 10.0938 12.0775 10.9523 12.155L10.9464 12.149ZM13.0031 16.8719C13.021 17.3787 12.872 18.8814 10.9881 21.2667C10.5946 21.4993 10.2011 21.7259 9.80172 21.9465C9.31286 22.2208 8.81208 22.4832 8.30534 22.7217C8.13245 22.8052 7.88802 22.841 7.69725 22.8171C7.69725 22.8171 7.69725 22.8171 7.69129 22.8171C7.3634 22.7396 7.02954 22.6084 6.71954 22.4772C5.97433 22.1493 5.27085 21.708 4.66873 21.1594C4.11429 20.6644 3.73871 20.0323 3.67909 19.281C3.66121 19.0186 3.67909 18.6787 3.76255 18.4223C3.77448 18.3865 3.79832 18.3626 3.83409 18.3626C5.15758 18.1539 6.48107 17.9393 7.80456 17.7246C8.80016 17.5636 9.78979 17.4026 10.7854 17.2416C11.3994 17.1402 12.0075 17.0448 12.6216 16.9374C12.7527 16.9136 12.8779 16.8897 13.0091 16.8659L13.0031 16.8719ZM16.4192 19.6626H16.5086C16.5086 19.6626 16.7828 20.0741 17.5221 20.3544C18.2613 20.6346 17.5757 22.4236 17.2121 22.9901C16.9796 23.3538 15.8349 24.779 15.0539 25.7451C14.8811 25.8703 14.7082 25.9955 14.5353 26.1208C13.9391 26.5501 13.3429 26.9735 12.7468 27.3969C12.4547 27.6056 12.1566 27.8083 11.8704 28.017C11.7393 28.1125 11.626 28.184 11.465 28.2019C11.2444 28.2258 10.9642 28.1661 10.7437 28.1244C10.4813 28.0707 10.219 27.9693 9.9746 27.868C9.6169 27.7248 9.27113 27.5638 8.93131 27.3969C8.39476 27.1285 7.56609 26.6873 7.17859 26.2281C6.958 25.9717 6.84473 25.6675 7.01166 25.3515C7.07724 25.2263 7.20243 25.0951 7.32167 25.0176L16.4192 19.6507V19.6626ZM17.7128 25.429C17.7128 25.429 18.464 26.1267 18.5057 26.729C18.5534 27.3313 18.6131 28.6193 17.9096 29.6748C17.2061 30.7303 16.9796 31.905 17.0034 32.4715C16.9438 32.5192 16.8842 32.561 16.8186 32.5968C16.7471 32.6385 16.6457 32.6981 16.5622 32.716C15.6322 33.0738 14.6903 33.2169 13.7066 33.0082C13.3489 32.9307 13.0031 32.8114 12.6633 32.6743C12.3712 32.555 12.091 32.4179 11.7989 32.2926C11.4769 32.1555 10.9583 31.9349 10.9821 31.5055C11.006 31.0106 11.7571 30.295 12.1029 29.961C12.3473 29.7285 12.5977 29.5078 12.8541 29.2932C13.1939 29.001 13.5456 28.7147 13.8914 28.4345C14.7022 27.7726 15.5249 27.1285 16.3536 26.4845C16.8007 26.1327 17.2538 25.7868 17.7069 25.435L17.7128 25.429ZM18.5892 32.8114L19.2033 36.2522C18.9529 36.4251 18.6786 36.5683 18.3925 36.6517C17.4565 36.9201 16.6994 36.5146 16.0972 35.8109C16.0018 35.6976 15.8111 35.4293 15.9542 35.2981C15.9542 35.2981 15.9542 35.2981 15.9601 35.2981L18.5892 32.8234V32.8114ZM48.9639 12.149C48.9639 12.149 49.727 14.4806 50.4364 15.876C51.2949 16.037 52.1474 16.192 53.0059 16.3471C53.3338 16.4067 53.6617 16.4664 53.9896 16.526C54.0909 16.5439 54.1863 16.5618 54.2876 16.5797C54.3294 16.5856 54.3771 16.5975 54.4188 16.5975C54.5917 16.5975 55.0805 16.204 55.2236 16.0787C55.6827 15.6852 56.094 15.2201 56.4338 14.7191C56.9644 13.9499 57.334 13.1389 57.6083 12.2504C57.7394 11.8091 57.5725 11.5288 57.1015 11.499C57.03 11.499 56.9644 11.499 56.8929 11.499C56.7558 11.505 56.6186 11.5109 56.4875 11.5229C56.0582 11.5527 55.629 11.5825 55.1998 11.6183C53.9776 11.7137 52.7495 11.821 51.5274 11.9284C50.6689 11.9999 49.8164 12.0775 48.9579 12.155L48.9639 12.149ZM46.9071 16.8719C46.8892 17.3787 47.0383 18.8814 48.9221 21.2667C49.3156 21.4993 49.7091 21.7259 50.1085 21.9465C50.5974 22.2208 51.0981 22.4832 51.6049 22.7217C51.7778 22.8052 52.0222 22.841 52.213 22.8171C52.213 22.8171 52.213 22.8171 52.2189 22.8171C52.5468 22.7396 52.8807 22.6084 53.1907 22.4772C53.9359 22.1493 54.6394 21.708 55.2415 21.1594C55.7959 20.6644 56.1715 20.0323 56.2311 19.281C56.249 19.0186 56.2311 18.6787 56.1477 18.4223C56.1357 18.3865 56.1119 18.3626 56.0761 18.3626C54.7526 18.1539 53.4292 17.9393 52.1057 17.7246C51.1101 17.5636 50.1204 17.4026 49.1248 17.2416C48.5108 17.1402 47.9027 17.0448 47.2886 16.9374C47.1575 16.9136 47.0323 16.8897 46.9011 16.8659L46.9071 16.8719ZM43.4911 19.6626H43.4016C43.4016 19.6626 43.1274 20.0741 42.3882 20.3544C41.6489 20.6346 42.3345 22.4236 42.6982 22.9901C42.9307 23.3538 44.0753 24.779 44.8563 25.7451C45.0292 25.8703 45.2021 25.9955 45.3749 26.1208C45.9711 26.5501 46.5673 26.9735 47.1634 27.3969C47.4556 27.6056 47.7537 27.8083 48.0398 28.017C48.171 28.1125 48.2842 28.184 48.4452 28.2019C48.6658 28.2258 48.946 28.1661 49.1666 28.1244C49.4229 28.0707 49.6912 27.9693 49.9356 27.868C50.2933 27.7248 50.6391 27.5638 50.9789 27.3969C51.5155 27.1285 52.3441 26.6873 52.7316 26.2281C52.9522 25.9717 53.0655 25.6675 52.8926 25.3515C52.827 25.2263 52.7018 25.0951 52.5826 25.0176L43.4851 19.6507L43.4911 19.6626ZM42.1974 25.429C42.1974 25.429 41.4462 26.1267 41.4045 26.729C41.3568 27.3313 41.2972 28.6193 42.0007 29.6748C42.7041 30.7303 42.9307 31.905 42.9068 32.4715C42.9664 32.5192 43.0261 32.561 43.0916 32.5968C43.1632 32.6385 43.2645 32.6981 43.348 32.716C44.278 33.0738 45.2199 33.2169 46.2036 33.0082C46.5613 32.9307 46.9071 32.8114 47.2469 32.6743C47.539 32.555 47.8192 32.4179 48.1114 32.2926C48.4333 32.1555 48.9519 31.9349 48.9281 31.5055C48.9043 31.0106 48.1531 30.295 47.8073 29.961C47.5629 29.7285 47.3125 29.5078 47.0561 29.2932C46.7163 29.001 46.3646 28.7147 46.0188 28.4345C45.208 27.7726 44.3853 27.1285 43.5566 26.4845C43.1095 26.1327 42.6564 25.7868 42.2033 25.435L42.1974 25.429ZM41.321 32.8114L40.707 36.2522C40.9574 36.4251 41.2316 36.5683 41.5178 36.6517C42.4537 36.9201 43.2109 36.5146 43.813 35.8109C43.9084 35.6976 44.0992 35.4293 43.9561 35.2981C43.9561 35.2981 43.9561 35.2981 43.9501 35.2981L41.321 32.8234V32.8114Z" fill="#B4E0D9"/>
<path d="M33.298 38.1302C33.0297 37.522 32.684 36.9734 32.3442 36.4426C32.2309 36.2637 32.1116 36.0729 31.9984 35.8881C31.7838 35.5362 31.5453 35.1546 31.3128 34.7849C31.0385 34.3496 30.7583 33.9023 30.508 33.4849L30.037 32.6978L29.566 33.4849C29.3454 33.8546 29.1249 34.2422 28.9102 34.6239C28.6718 35.0472 28.4214 35.4826 28.1829 35.8821C28.0696 36.067 27.9504 36.2518 27.8371 36.4367C27.4973 36.9674 27.1515 37.516 26.8833 38.1243C26.2275 39.621 26.5494 41.0104 27.8193 42.1375C28.1889 41.7201 28.2545 41.1058 27.9623 40.6347C27.6225 40.0861 27.5689 39.4958 27.7894 38.8398H32.3978C32.6184 39.5017 32.5647 40.0861 32.2249 40.6347C31.9328 41.1058 31.9984 41.7201 32.368 42.1375C33.6378 41.0104 33.9598 39.621 33.304 38.1243L33.298 38.1302ZM29.1189 36.4605C29.3693 36.0491 29.6197 35.6018 29.8641 35.1725C29.9237 35.0651 29.9893 34.9578 30.0489 34.8445C30.1622 35.0234 30.2695 35.1963 30.3828 35.3752C30.6093 35.739 30.8478 36.1147 31.0624 36.4605C31.1816 36.6513 31.3009 36.8481 31.4201 37.033C31.5751 37.2715 31.7182 37.51 31.8613 37.7426H28.326C28.4631 37.51 28.6122 37.2715 28.7672 37.033C28.8864 36.8481 29.0056 36.6573 29.1249 36.4605H29.1189Z" fill="#D8EFFC"/>
<path d="M34.6693 21.9639C34.2103 22.4827 34.1566 23.234 34.5143 23.8244C34.9674 24.5757 34.9853 25.3867 34.5799 26.311C34.2997 26.9551 33.9182 27.5514 33.5187 28.1835C33.3756 28.4101 33.2266 28.6426 33.0835 28.8812C32.8272 29.3045 32.541 29.7577 32.2608 30.205C32.1297 30.4197 31.9925 30.6343 31.8554 30.849C31.7779 30.7178 31.7064 30.5866 31.6289 30.4554C31.3785 30.0142 31.1281 29.5669 30.8658 29.1376C30.9135 29.0601 30.9612 28.9825 31.0089 28.911C31.4202 28.267 31.8435 27.5991 32.1654 26.8596C32.2727 26.6152 32.3562 26.3707 32.4218 26.1321C31.5812 26.1321 30.8121 26.5973 30.4306 27.3427C30.3054 27.5871 30.1802 27.8138 30.0788 27.9688C29.9775 27.8078 29.8523 27.5812 29.7271 27.3427C29.3396 26.5973 28.5705 26.1321 27.7359 26.1321C27.8015 26.3707 27.885 26.6152 27.9923 26.8596C28.3142 27.5991 28.7375 28.267 29.1488 28.911C29.1965 28.9825 29.2442 29.0601 29.2919 29.1376C29.0773 29.4894 28.8448 29.8532 28.6182 30.2109C28.4871 30.4256 28.35 30.6403 28.2128 30.855C28.1353 30.7238 28.0638 30.5926 27.9863 30.4614C27.6882 29.9366 27.3842 29.394 27.0801 28.8931C26.937 28.6605 26.788 28.422 26.6449 28.1954C26.2455 27.5633 25.8639 26.967 25.5838 26.323C25.1784 25.3987 25.1962 24.5877 25.6493 23.8363C26.007 23.246 25.9534 22.4946 25.4943 21.9758C23.9503 23.3473 23.5568 25.0409 24.3556 26.8596C24.6776 27.5991 25.1009 28.267 25.5122 28.911C25.6553 29.1316 25.7984 29.3582 25.9355 29.5848C26.2336 30.0738 26.5317 30.6045 26.8238 31.1174C27.0861 31.5765 27.3544 32.0536 27.6226 32.5008L28.195 33.4609L28.7673 32.5008C29.0654 31.9999 29.4111 31.4513 29.745 30.9206C29.8463 30.7536 29.9536 30.5866 30.061 30.4197C30.1921 30.6522 30.3233 30.8848 30.4544 31.1114C30.7167 31.5706 30.985 32.0476 31.2533 32.4949L31.8256 33.4549L32.3979 32.4949C32.696 31.9939 33.0418 31.4453 33.3756 30.9146C33.6558 30.4674 33.948 30.0082 34.2103 29.5729C34.3474 29.3463 34.4905 29.1197 34.6336 28.899C35.0449 28.255 35.4682 27.5871 35.7901 26.8477C36.589 25.0289 36.1955 23.3414 34.6514 21.9639H34.6693Z" fill="#D8EFFC"/>
<path d="M90.284 27.6511C89.3063 27.192 88.5372 26.5122 87.9589 25.6177C87.3866 24.7232 87.0945 23.6379 87.0945 22.3618C87.0945 21.4733 87.2495 20.5132 87.5535 19.4756C88.2212 17.2514 89.2347 15.6532 90.588 14.6693C91.9413 13.6854 93.39 13.1904 94.9281 13.1904C95.7568 13.1904 96.4901 13.3157 97.1339 13.5661C97.7718 13.8166 98.362 14.1803 98.8986 14.6574L99.4888 14.1922C99.8822 13.8822 100.21 13.6675 100.484 13.5482C100.753 13.429 101.057 13.3693 101.391 13.3693C101.754 13.3693 102.046 13.4528 102.261 13.6138C102.482 13.7748 102.589 14.0133 102.589 14.3234C102.589 14.4844 102.559 14.6514 102.499 14.8124L101.277 18.277C101.146 18.6766 100.991 18.9568 100.806 19.1238C100.621 19.2908 100.353 19.3683 99.9896 19.3683C99.6259 19.3683 99.304 19.2311 99.0595 18.9568C98.8211 18.6825 98.5468 18.2114 98.2428 17.5436C97.8911 16.8459 97.6109 16.3867 97.3903 16.1661C97.1697 15.9454 96.8537 15.8321 96.4304 15.8321C95.8343 15.8321 95.262 16.2078 94.7075 16.9532C94.1531 17.6986 93.6523 18.8256 93.1992 20.3164C92.8236 21.5747 92.6329 22.6242 92.6329 23.471C92.6329 24.2104 92.77 24.765 93.0502 25.1228C93.3244 25.4865 93.7 25.6654 94.165 25.6654C94.8506 25.6654 95.411 25.5104 95.8581 25.2003C96.2993 24.8902 96.7583 24.4668 97.2233 23.9361C97.5155 23.6081 97.748 23.3696 97.9328 23.2145C98.1116 23.0595 98.3084 22.982 98.5111 22.982C98.7734 22.982 99.0476 23.1132 99.3397 23.3815C99.6319 23.6499 99.769 23.9122 99.7571 24.1806C99.769 24.5086 99.5126 25.0095 98.982 25.6893C98.4514 26.3691 97.7182 26.9833 96.7762 27.52C95.8402 28.0626 94.7731 28.331 93.5808 28.331C92.3884 28.331 91.2617 28.1044 90.284 27.6452V27.6511Z" fill="#4B66EA"/>
<path d="M113.904 17.6745C114.84 18.4915 115.311 19.5529 115.311 20.8708C115.311 21.318 115.251 21.8129 115.138 22.3616C114.864 23.578 114.345 24.6395 113.588 25.5519C112.831 26.4642 111.907 27.1679 110.804 27.6628C109.707 28.1578 108.515 28.4082 107.239 28.4082C105.218 28.4082 103.721 27.9968 102.756 27.1738C101.79 26.3509 101.307 25.2597 101.307 23.9001C101.307 23.4409 101.367 22.9281 101.48 22.3675C101.754 21.2107 102.285 20.185 103.06 19.2905C103.835 18.396 104.789 17.6984 105.915 17.2034C107.042 16.7085 108.246 16.458 109.528 16.458C111.507 16.458 112.962 16.8635 113.904 17.6805V17.6745ZM108.491 19.2607C108.151 19.8153 107.746 20.8648 107.281 22.4033C106.816 23.9418 106.583 25.0271 106.583 25.6473C106.583 25.9752 106.637 26.1899 106.738 26.3032C106.839 26.4165 106.976 26.4702 107.155 26.4702C107.459 26.5 107.775 26.2317 108.103 25.6711C108.431 25.1106 108.842 24.0134 109.337 22.3854C109.79 20.9483 110.011 19.9047 110.011 19.2547C110.011 18.9447 109.963 18.73 109.868 18.6107C109.773 18.4915 109.641 18.4318 109.463 18.4318C109.158 18.4318 108.831 18.7121 108.491 19.2667V19.2607Z" fill="#4B66EA"/>
<path d="M123.789 12.2777C124.188 12.6056 124.391 13.0469 124.391 13.6074C124.391 13.9354 124.338 14.2515 124.236 14.5616L120.808 25.8916C120.766 26.0705 120.743 26.2255 120.743 26.3567C120.743 26.5476 120.778 26.7026 120.85 26.8099C120.921 26.9173 121.023 27.0306 121.154 27.132C121.255 27.2333 121.327 27.3228 121.375 27.3884C121.416 27.454 121.428 27.5374 121.398 27.6448C121.327 27.8356 121.178 27.9787 120.963 28.0682C120.743 28.1576 120.409 28.1994 119.962 28.1994H114.99C114.614 28.1994 114.334 28.1338 114.161 28.0085C113.988 27.8833 113.928 27.7163 113.988 27.5076C114.048 27.3287 114.197 27.1737 114.447 27.0425C114.668 26.9232 114.847 26.7861 114.996 26.6191C115.139 26.4581 115.264 26.1957 115.365 25.8439L118.68 14.7583C118.722 14.6272 118.745 14.5139 118.745 14.4244C118.745 14.2634 118.704 14.1262 118.626 14.0249C118.549 13.9235 118.441 13.8162 118.31 13.7148C118.167 13.5955 118.06 13.4941 117.994 13.4047C117.929 13.3153 117.917 13.196 117.959 13.0469C118.048 12.707 118.507 12.4088 119.336 12.1584C120.164 11.9079 121.029 11.7827 121.935 11.7827C122.782 11.7827 123.402 11.9437 123.801 12.2717L123.789 12.2777Z" fill="#4B66EA"/>
<path d="M131.772 12.2777C132.172 12.6056 132.374 13.0469 132.374 13.6074C132.374 13.9354 132.321 14.2515 132.219 14.5616L128.791 25.8916C128.75 26.0705 128.726 26.2255 128.726 26.3567C128.726 26.5476 128.762 26.7026 128.833 26.8099C128.905 26.9173 129.006 27.0306 129.137 27.132C129.238 27.2333 129.31 27.3228 129.358 27.3884C129.399 27.454 129.411 27.5374 129.382 27.6448C129.31 27.8356 129.161 27.9787 128.946 28.0682C128.726 28.1576 128.392 28.1994 127.945 28.1994H122.973C122.597 28.1994 122.317 28.1338 122.144 28.0085C121.971 27.8833 121.912 27.7163 121.971 27.5076C122.031 27.3287 122.18 27.1737 122.43 27.0425C122.651 26.9232 122.83 26.7861 122.979 26.6191C123.122 26.4581 123.247 26.1957 123.348 25.8439L126.663 14.7583C126.705 14.6272 126.729 14.5139 126.729 14.4244C126.729 14.2634 126.687 14.1262 126.609 14.0249C126.532 13.9235 126.425 13.8162 126.293 13.7148C126.15 13.5955 126.043 13.4941 125.977 13.4047C125.912 13.3153 125.9 13.196 125.942 13.0469C126.031 12.707 126.49 12.4088 127.319 12.1584C128.147 11.9079 129.012 11.7827 129.918 11.7827C130.765 11.7827 131.385 11.9437 131.784 12.2717L131.772 12.2777Z" fill="#4B66EA"/>
<path d="M142.348 17.2452C143.177 17.8474 143.594 18.6107 143.594 19.547C143.594 19.8272 143.565 20.0896 143.505 20.3222C143.284 21.3001 142.676 21.9978 141.681 22.4212C140.685 22.8446 139.511 23.0533 138.157 23.0533C137.472 23.0533 136.834 23.0116 136.238 22.9221C136.226 23.6914 136.429 24.234 136.846 24.5441C137.269 24.8542 137.859 25.0092 138.61 25.0092C138.962 25.0092 139.296 24.9675 139.612 24.884C139.934 24.8005 140.339 24.6813 140.834 24.5203C141.24 24.3712 141.52 24.2996 141.663 24.2996C141.824 24.2996 141.901 24.395 141.901 24.5858C141.913 25.1046 141.728 25.6473 141.335 26.2198C140.941 26.7922 140.357 27.2752 139.588 27.6748C138.819 28.0743 137.889 28.2771 136.792 28.2771C135.177 28.2771 133.853 27.8656 132.822 27.0308C131.79 26.2019 131.272 24.9973 131.272 23.4111C131.272 22.9639 131.331 22.451 131.445 21.8547C131.808 20.0359 132.607 18.6584 133.835 17.7341C135.063 16.8099 136.56 16.3447 138.318 16.3447C140.166 16.3447 141.502 16.6429 142.331 17.2452H142.348ZM136.631 21.6102C137.239 21.6102 137.71 21.324 138.026 20.7456C138.348 20.1671 138.497 19.5231 138.485 18.8135C138.473 18.3961 138.354 18.1933 138.134 18.1933C137.973 18.1933 137.782 18.3245 137.567 18.5809C137.353 18.8373 137.132 19.2309 136.923 19.7497C136.715 20.2685 136.536 20.8827 136.387 21.5923C136.446 21.6102 136.524 21.6162 136.625 21.6162L136.631 21.6102Z" fill="#4B66EA"/>
<path d="M157.741 13.1301C158.182 13.3328 158.546 13.6012 158.832 13.953C159.118 14.2989 159.255 14.6746 159.255 15.0741C159.255 15.9507 158.671 16.386 157.508 16.386C157.175 16.386 156.918 16.3621 156.733 16.3085C156.555 16.2548 156.334 16.1713 156.09 16.052C156.048 16.1534 156.024 16.3025 156.024 16.4993C156.024 16.7378 156.066 17.0181 156.143 17.3461C156.221 17.674 156.322 17.9782 156.435 18.2584C156.739 18.7176 156.894 19.2662 156.894 19.9043C156.894 20.1845 156.859 20.5244 156.787 20.924C156.614 21.6932 156.233 22.3969 155.642 23.0349C155.052 23.673 154.295 24.1739 153.371 24.5317C152.447 24.8954 151.434 25.0743 150.325 25.0743C149.478 25.0743 148.691 25.0147 147.946 24.8954C147.725 25.0863 147.618 25.3248 147.618 25.6051C147.618 25.7959 147.708 25.9569 147.88 26.0821C148.053 26.2074 148.345 26.2729 148.751 26.2729H152.024C153.145 26.2729 154.015 26.4697 154.641 26.8633C155.267 27.2569 155.577 27.8174 155.577 28.539C155.577 28.8073 155.535 29.0816 155.446 29.3619C155.273 29.9403 154.873 30.477 154.253 30.9719C153.633 31.4669 152.763 31.8724 151.648 32.1825C150.527 32.4925 149.168 32.6476 147.57 32.6476C146.146 32.6476 144.935 32.5224 143.946 32.2719C142.956 32.0215 142.217 31.6756 141.728 31.2403C141.239 30.805 140.995 30.316 140.995 29.7853C140.995 29.666 141.024 29.4871 141.084 29.2545C141.215 28.8252 141.507 28.4734 141.966 28.1991C142.425 27.9247 143.177 27.7459 144.226 27.6564C143.874 27.3165 143.701 26.911 143.701 26.434C143.701 26.2729 143.725 26.1 143.767 25.9211C143.999 25.1519 144.685 24.5794 145.818 24.2097C144.727 23.6014 144.178 22.7129 144.178 21.5441C144.178 21.2162 144.22 20.8763 144.309 20.5244C144.482 19.7552 144.87 19.0575 145.466 18.4254C146.062 17.7933 146.825 17.2984 147.755 16.9286C148.685 16.5589 149.705 16.3741 150.808 16.3741C152.536 16.3741 153.902 16.6066 154.885 17.0598C154.665 16.7199 154.498 16.3502 154.373 15.9626C154.247 15.569 154.188 15.2112 154.188 14.8833C154.188 14.3227 154.367 13.8397 154.724 13.4402C155.082 13.0406 155.625 12.8379 156.352 12.8379C156.817 12.8379 157.27 12.9393 157.717 13.136L157.741 13.1301ZM147.302 28.5151C146.897 28.5151 146.521 28.4912 146.187 28.4495C146.014 28.6701 145.925 28.9683 145.925 29.338C145.937 29.7077 146.086 29.9761 146.372 30.1371C146.658 30.2981 147.093 30.3816 147.69 30.3816C148.417 30.3816 149.007 30.2683 149.466 30.0476C149.925 29.827 150.152 29.505 150.152 29.0935C150.152 28.9146 150.086 28.7775 149.955 28.6701C149.824 28.5688 149.633 28.5151 149.389 28.5151H147.296H147.302ZM151.994 18.9859C151.994 18.485 151.785 18.2286 151.362 18.2286C150.998 18.2286 150.682 18.4075 150.414 18.7713C150.146 19.135 149.872 19.779 149.597 20.7153C149.365 21.4845 149.252 22.0689 149.252 22.4684C149.252 22.9574 149.454 23.2019 149.86 23.2019C150.223 23.2019 150.545 23.017 150.82 22.6473C151.094 22.2776 151.374 21.6336 151.648 20.7153C151.881 19.9579 152 19.3855 152 18.98L151.994 18.9859Z" fill="#4B66EA"/>
<path d="M168.418 17.2452C169.247 17.8474 169.664 18.6107 169.664 19.547C169.664 19.8272 169.635 20.0896 169.575 20.3222C169.354 21.3001 168.746 21.9978 167.751 22.4212C166.755 22.8446 165.581 23.0533 164.227 23.0533C163.542 23.0533 162.904 23.0116 162.308 22.9221C162.296 23.6914 162.498 24.234 162.922 24.5441C163.345 24.8542 163.935 25.0092 164.686 25.0092C165.038 25.0092 165.372 24.9675 165.688 24.884C166.01 24.8005 166.415 24.6813 166.91 24.5203C167.316 24.3712 167.596 24.2996 167.739 24.2996C167.9 24.2996 167.977 24.395 167.977 24.5858C167.989 25.1046 167.804 25.6473 167.411 26.2198C167.017 26.7922 166.439 27.2752 165.664 27.6748C164.895 28.0743 163.965 28.2771 162.874 28.2771C161.258 28.2771 159.935 27.8656 158.904 27.0308C157.872 26.2019 157.354 24.9973 157.354 23.4111C157.354 22.9639 157.413 22.451 157.526 21.8547C157.89 20.0359 158.689 18.6584 159.917 17.7341C161.145 16.8099 162.642 16.3447 164.4 16.3447C166.248 16.3447 167.584 16.6429 168.412 17.2452H168.418ZM162.701 21.6102C163.309 21.6102 163.78 21.324 164.096 20.7456C164.418 20.1671 164.567 19.5231 164.555 18.8135C164.537 18.3961 164.424 18.1933 164.204 18.1933C164.043 18.1933 163.852 18.3245 163.637 18.5809C163.417 18.8373 163.202 19.2309 162.993 19.7497C162.785 20.2685 162.606 20.8827 162.457 21.5923C162.516 21.6102 162.594 21.6162 162.695 21.6162L162.701 21.6102Z" fill="#4B66EA"/>
<path d="M79.3508 40.209C79.5177 40.3044 79.6012 40.4416 79.6012 40.6205C79.6012 40.6921 79.5774 40.7934 79.5356 40.9067C79.4939 41.0379 79.4283 41.1393 79.3508 41.2049C79.2733 41.2705 79.1481 41.354 78.9931 41.4613C78.7606 41.5925 78.5758 41.7416 78.4387 41.9085C78.3016 42.0695 78.1823 42.326 78.081 42.6659L75.4161 52.2189C75.3565 52.4097 75.3267 52.5946 75.3267 52.7735C75.3267 52.9345 75.3505 53.0716 75.4042 53.1849C75.4519 53.2982 75.5234 53.4234 75.6129 53.5725C75.6725 53.6441 75.7202 53.7216 75.7679 53.8051C75.8096 53.8886 75.8334 53.9721 75.8334 54.0615C75.8334 54.0913 75.8215 54.1629 75.7917 54.2821C75.7321 54.473 75.6009 54.6161 75.3863 54.7055C75.1777 54.795 74.8736 54.8367 74.4801 54.8367H69.3531C69.0491 54.8367 68.8106 54.7831 68.6437 54.6817C68.4767 54.5803 68.3933 54.4372 68.3933 54.2583C68.3933 54.1688 68.4171 54.0734 68.4589 53.9721C68.5006 53.8707 68.5662 53.7753 68.6437 53.6918C68.7212 53.6083 68.7987 53.5487 68.8643 53.5129C68.9298 53.4771 68.9775 53.4413 69.0073 53.4115C69.2398 53.2803 69.4306 53.1313 69.5737 52.9702C69.7168 52.8092 69.842 52.5528 69.9433 52.2129L71.6007 46.214L65.949 53.3459C65.484 53.9244 65.1084 54.3179 64.8282 54.5326C64.542 54.7473 64.2201 54.8546 63.8565 54.8546C63.4928 54.8546 63.2364 54.7413 63.0397 54.5087C62.843 54.2821 62.6641 53.8886 62.5032 53.34L60.4523 46.4763L58.8367 52.2308C58.7771 52.4216 58.7473 52.6065 58.7473 52.7854C58.7473 52.9643 58.7712 53.1134 58.8248 53.2326C58.8785 53.3519 58.95 53.4771 59.0514 53.6083C59.1825 53.7991 59.2481 53.9542 59.2481 54.0734C59.2481 54.1033 59.2362 54.1748 59.2064 54.2941C59.1467 54.5028 59.0156 54.6459 58.8129 54.7294C58.6102 54.8129 58.3061 54.8546 57.8948 54.8546H56.0824C55.7784 54.8546 55.5399 54.8009 55.373 54.6996C55.2061 54.5982 55.1226 54.4551 55.1226 54.2762C55.1226 54.1867 55.1465 54.0913 55.1882 53.99C55.2478 53.8289 55.3432 53.7037 55.4744 53.6143C55.6055 53.5248 55.683 53.4712 55.7128 53.4592C55.9453 53.3101 56.1361 53.1611 56.2792 53.006C56.4223 52.851 56.5475 52.5946 56.6488 52.2368L59.3137 42.642L58.9619 41.4673C58.8904 41.2466 58.8546 41.032 58.8546 40.8232C58.8546 40.5549 58.9381 40.3641 59.105 40.2448C59.2719 40.1255 59.5283 40.0659 59.88 40.0659H63.2603C63.6955 40.0659 64.0174 40.1613 64.232 40.3521C64.4407 40.543 64.6136 40.8769 64.7447 41.354L66.9267 48.7304L72.8407 41.2466C73.2163 40.7755 73.5919 40.4595 73.9555 40.3044C74.3192 40.1494 74.8021 40.0719 75.3982 40.0719H78.6473C78.9514 40.0719 79.1899 40.1196 79.3568 40.215L79.3508 40.209Z" fill="#4B66EA"/>
<path d="M89.5991 44.0548C90.6007 44.6869 91.1074 45.641 91.1074 46.929C91.1074 47.418 91.018 47.9726 90.8451 48.5928L89.9508 51.6578C89.9389 51.7175 89.927 51.789 89.927 51.8785C89.927 52.117 90.0224 52.2363 90.2132 52.2363C90.386 52.2363 90.5351 52.1587 90.6603 52.0037C90.7855 51.8486 90.8689 51.7711 90.9107 51.7711C90.9822 51.7711 91.0478 51.8248 91.0955 51.9262C91.1491 52.0275 91.173 52.1468 91.173 52.284C91.1849 52.6835 91.0359 53.089 90.7259 53.5064C90.4158 53.9238 89.9926 54.2637 89.4739 54.5261C88.9493 54.7945 88.377 54.9257 87.751 54.9257C86.9939 54.9257 86.344 54.7825 85.8075 54.5023C85.2709 54.222 84.9013 53.8046 84.6927 53.256C84.2575 53.7867 83.7388 54.1981 83.1426 54.4903C82.5465 54.7766 81.9086 54.9257 81.223 54.9257C80.4539 54.9257 79.8041 54.7766 79.2795 54.4724C78.7548 54.1683 78.3673 53.7748 78.111 53.2977C77.8546 52.8147 77.7294 52.3078 77.7294 51.7771C77.7294 51.5386 77.7533 51.312 77.795 51.0913C78.0275 50.0716 78.5343 49.3024 79.3093 48.7836C80.0843 48.2648 81.0143 48.0084 82.0934 48.0084C83.2976 48.0084 84.484 48.1992 85.6525 48.5868L86.201 47.1198C86.3917 46.4997 86.4871 46.0167 86.4871 45.6768C86.4752 45.319 86.356 45.0566 86.1354 44.8777C85.9148 44.6988 85.5809 44.6093 85.1338 44.6093C85.2232 44.8479 85.265 45.0924 85.265 45.3428C85.265 45.8914 85.0623 46.3625 84.6569 46.7621C84.2515 47.1616 83.6672 47.3643 82.9101 47.3643C82.1947 47.3643 81.6403 47.2033 81.2408 46.8873C80.8414 46.5712 80.6387 46.1717 80.6387 45.7006C80.6387 44.9612 81.0441 44.347 81.8609 43.858C82.6776 43.369 83.9176 43.1245 85.5929 43.1245C87.2681 43.1245 88.6035 43.4406 89.6051 44.0667L89.5991 44.0548ZM83.3692 50.3161C83.1128 50.6322 82.9876 50.978 82.9876 51.3477C82.9876 51.5863 83.0413 51.7771 83.1486 51.9262C83.2559 52.0753 83.4109 52.1468 83.6196 52.1468C83.8103 52.1468 84.013 52.0693 84.2396 51.9142C84.4661 51.7592 84.6271 51.5266 84.7284 51.2166L85.1875 49.9047C84.9371 49.8629 84.6629 49.8391 84.3588 49.8391C83.9534 49.8391 83.6196 50.0001 83.3632 50.3161H83.3692Z" fill="#4B66EA"/>
<path d="M102.376 43.2451C103.258 43.4657 103.932 43.7758 104.403 44.1753C104.874 44.5749 105.112 45.0281 105.112 45.529C105.112 46.0299 104.909 46.4712 104.51 46.7932C104.11 47.1211 103.556 47.2821 102.841 47.2821C102.125 47.2821 101.499 47.0973 100.999 46.7276C100.498 46.3579 100.247 45.8927 100.247 45.3262C100.247 45.1354 100.277 44.9505 100.337 44.7716C100.074 44.7001 99.842 44.6583 99.6393 44.6583C99.2756 44.6583 98.9716 44.7478 98.7331 44.9267C98.4946 45.1056 98.3813 45.356 98.3933 45.684C98.3933 46.0716 98.584 46.3936 98.9596 46.662C99.3352 46.9303 99.9493 47.2643 100.79 47.6638C101.517 47.9918 102.119 48.2899 102.59 48.5642C103.061 48.8385 103.461 49.1844 103.789 49.5959C104.116 50.0133 104.277 50.5023 104.277 51.0628C104.277 51.1821 104.248 51.4027 104.188 51.7307C103.955 52.7206 103.306 53.5077 102.245 54.0861C101.183 54.6646 99.7883 54.9508 98.0535 54.9508C96.104 54.9508 94.5599 54.6825 93.4153 54.1517C92.2706 53.621 91.7043 52.8875 91.7043 51.9513C91.7043 51.3133 91.8951 50.8362 92.2706 50.5082C92.6462 50.1803 93.153 50.0192 93.7789 50.0192C94.5063 50.0192 95.1263 50.2518 95.6449 50.705C96.1636 51.1642 96.42 51.7486 96.42 52.4582C96.42 52.649 96.3961 52.8518 96.3544 53.0605C96.7061 53.1499 97.04 53.1917 97.3559 53.1917C97.7315 53.1917 98.0475 53.0903 98.2919 52.8816C98.5363 52.6729 98.6615 52.3866 98.6615 52.0169C98.6496 51.677 98.4767 51.3848 98.1608 51.1403C97.8388 50.8958 97.3321 50.6036 96.6346 50.2637C95.9788 49.9537 95.4422 49.6615 95.019 49.3872C94.5957 49.1128 94.238 48.767 93.9399 48.3555C93.6418 47.9441 93.4928 47.4551 93.4928 46.8886C93.4928 45.6721 93.9936 44.706 94.9892 43.9905C95.9848 43.2749 97.3977 42.9111 99.2339 42.9111C100.438 42.9111 101.487 43.0244 102.364 43.2451H102.376Z" fill="#4B66EA"/>
<path d="M115.4 43.5783C115.555 43.6975 115.627 43.8586 115.627 44.0673C115.627 44.1269 115.615 44.2283 115.585 44.3773C115.394 45.0273 114.959 45.3553 114.274 45.3553H113.01L111.376 50.8414C111.305 51.0621 111.269 51.2946 111.269 51.5272C111.269 51.7956 111.341 51.9804 111.49 52.0818C111.633 52.1832 111.841 52.2368 112.098 52.2368C112.33 52.2368 112.622 52.207 112.968 52.1474C113.141 52.1056 113.296 52.0818 113.427 52.0818C113.528 52.0818 113.606 52.1176 113.654 52.1832C113.701 52.2488 113.731 52.3322 113.731 52.4396C113.743 52.7377 113.528 53.0955 113.087 53.5189C112.646 53.9423 112.044 54.3061 111.287 54.6102C110.53 54.9143 109.695 55.0634 108.777 55.0634C107.787 55.0634 106.995 54.8368 106.398 54.3776C105.802 53.9184 105.504 53.2863 105.504 52.4873C105.504 52.1176 105.564 51.7598 105.677 51.4199L107.072 47.019C107.144 46.7686 107.179 46.5658 107.179 46.4168C107.179 46.1186 107.108 45.8681 106.971 45.6594C106.834 45.4507 106.637 45.236 106.392 45.0154C106.172 44.8067 106.023 44.6338 105.933 44.4907C105.844 44.3475 105.826 44.1806 105.868 43.9897C105.927 43.7989 106.053 43.6498 106.237 43.5425C106.428 43.4411 106.726 43.3875 107.132 43.3875H108.354L109.731 41.9861C110.214 41.4971 110.649 41.1572 111.048 40.9664C111.448 40.7756 111.967 40.6802 112.61 40.6802C113.528 40.6802 113.988 41.038 113.988 41.7476C113.988 41.9682 113.958 42.1769 113.898 42.3678L113.594 43.3875H114.751C115.025 43.3875 115.239 43.4471 115.394 43.5664L115.4 43.5783Z" fill="#4B66EA"/>
<path d="M125.799 43.9C126.628 44.5022 127.045 45.2655 127.045 46.2017C127.045 46.482 127.015 46.7444 126.956 46.977C126.735 47.9549 126.133 48.6526 125.131 49.076C124.136 49.4994 122.961 49.7081 121.608 49.7081C120.922 49.7081 120.284 49.6664 119.688 49.5769C119.676 50.3462 119.879 50.8888 120.296 51.1989C120.72 51.509 121.31 51.664 122.061 51.664C122.413 51.664 122.747 51.6223 123.063 51.5388C123.385 51.4553 123.79 51.336 124.285 51.175C124.69 51.026 124.97 50.9544 125.113 50.9544C125.274 50.9544 125.352 51.0498 125.352 51.2406C125.364 51.7594 125.179 52.3021 124.786 52.8745C124.392 53.447 123.808 53.93 123.039 54.3296C122.27 54.7291 121.34 54.9318 120.243 54.9318C118.627 54.9318 117.304 54.5204 116.272 53.6855C115.241 52.8567 114.722 51.6521 114.722 50.0659C114.722 49.6186 114.782 49.1058 114.895 48.5095C115.259 46.6907 116.058 45.3132 117.286 44.3889C118.514 43.4646 120.01 42.9995 121.769 42.9995C123.617 42.9995 124.952 43.2977 125.781 43.9H125.799ZM120.082 48.265C120.69 48.265 121.161 47.9788 121.477 47.4003C121.799 46.8219 121.948 46.1779 121.936 45.4683C121.924 45.0508 121.805 44.8481 121.584 44.8481C121.423 44.8481 121.232 44.9793 121.018 45.2357C120.803 45.4921 120.583 45.8857 120.374 46.4045C120.165 46.9233 119.986 47.5375 119.837 48.2471C119.897 48.265 119.974 48.271 120.076 48.271L120.082 48.265Z" fill="#4B66EA"/>
<path d="M139.271 43.8645C139.76 44.3654 140.005 44.9915 140.005 45.7309C140.005 46.0112 139.975 46.2736 139.915 46.5062C139.772 47.1144 139.492 47.5795 139.086 47.9075C138.681 48.2355 138.192 48.3965 137.626 48.3965C137.059 48.3965 136.654 48.2653 136.374 47.997C136.088 47.7286 135.837 47.3768 135.623 46.9295C135.504 46.6791 135.396 46.4942 135.295 46.375C135.193 46.2557 135.074 46.1961 134.943 46.1961C134.8 46.1961 134.669 46.2557 134.562 46.375C134.454 46.4942 134.353 46.7029 134.269 46.9951L132.588 52.5469C132.558 52.6184 132.547 52.7317 132.547 52.8808C132.547 53.0716 132.6 53.2326 132.707 53.3579C132.815 53.4831 132.964 53.6083 133.155 53.7216C133.327 53.8409 133.447 53.9363 133.506 54.0078C133.566 54.0794 133.584 54.1808 133.572 54.2941C133.542 54.4849 133.435 54.628 133.256 54.7175C133.077 54.8069 132.767 54.8487 132.326 54.8487H126.74C126.364 54.8487 126.09 54.7831 125.923 54.6578C125.756 54.5326 125.697 54.3656 125.738 54.1569C125.798 53.978 125.947 53.823 126.197 53.6918C126.418 53.5725 126.597 53.4354 126.746 53.2684C126.889 53.1074 127.014 52.845 127.115 52.4932L129.059 46.0708C129.089 45.9993 129.101 45.8919 129.101 45.7608C129.101 45.5998 129.071 45.4745 129.005 45.3851C128.94 45.2956 128.832 45.1823 128.689 45.0511C128.546 44.9319 128.439 44.8305 128.385 44.7411C128.326 44.6516 128.32 44.5323 128.361 44.3833C128.451 44.0434 128.91 43.7452 129.739 43.4828C130.567 43.2264 131.432 43.0952 132.338 43.0952C132.934 43.0952 133.429 43.2324 133.822 43.5067C134.216 43.781 134.472 44.1686 134.585 44.6755C135.283 43.6259 136.201 43.1012 137.334 43.1012C138.15 43.1012 138.8 43.3516 139.289 43.8585L139.271 43.8645Z" fill="#4B66EA"/>
<path d="M159.987 51.7956C159.958 51.8552 159.946 51.9447 159.946 52.0639C159.946 52.1653 159.97 52.2488 160.023 52.3084C160.077 52.368 160.142 52.3979 160.232 52.3979C160.405 52.3979 160.554 52.3203 160.679 52.1653C160.804 52.0103 160.888 51.9327 160.929 51.9327C161.001 51.9327 161.061 51.9804 161.102 52.0758C161.144 52.1713 161.168 52.2846 161.168 52.4217C161.18 52.8511 161.043 53.2685 160.751 53.674C160.458 54.0795 160.035 54.4134 159.475 54.6758C158.914 54.9322 158.241 55.0634 157.46 55.0634C156.5 55.0634 155.737 54.8368 155.17 54.3836C154.604 53.9304 154.312 53.3281 154.3 52.5708C154.3 52.0222 154.431 51.408 154.693 50.7282L155.892 47.5319C155.963 47.3411 155.999 47.186 155.999 47.0668C155.999 46.8759 155.939 46.7209 155.814 46.6136C155.689 46.5003 155.54 46.4466 155.367 46.4466C155.117 46.4466 154.866 46.5599 154.604 46.7805C154.342 47.0012 154.109 47.353 153.907 47.8241L152.708 51.8015C152.678 51.8612 152.667 51.9506 152.667 52.0699C152.667 52.1713 152.69 52.2547 152.744 52.3144C152.792 52.374 152.863 52.4038 152.953 52.4038C153.126 52.4038 153.275 52.3263 153.4 52.1713C153.525 52.0162 153.608 51.9387 153.65 51.9387C153.722 51.9387 153.781 51.9864 153.823 52.0818C153.865 52.1772 153.889 52.2905 153.889 52.4277C153.901 52.857 153.763 53.2744 153.471 53.6799C153.179 54.0854 152.756 54.4194 152.196 54.6818C151.635 54.9382 150.961 55.0694 150.175 55.0694C149.215 55.0694 148.452 54.8428 147.885 54.3896C147.319 53.9364 147.027 53.3341 147.015 52.5768C147.015 52.0281 147.146 51.4139 147.408 50.7341L148.607 47.5379C148.678 47.347 148.714 47.192 148.714 47.0727C148.714 46.8819 148.654 46.7269 148.529 46.6195C148.404 46.5062 148.255 46.4526 148.082 46.4526C147.832 46.4526 147.581 46.5599 147.319 46.7746C147.057 46.9892 146.842 47.3351 146.663 47.8062L145.22 52.5589C145.161 52.7199 145.131 52.8749 145.131 53.024C145.131 53.2029 145.167 53.346 145.238 53.4593C145.31 53.5726 145.411 53.6859 145.542 53.8052C145.644 53.8946 145.715 53.9781 145.763 54.0497C145.805 54.1212 145.811 54.2107 145.787 54.318C145.727 54.5088 145.59 54.6519 145.369 54.7414C145.149 54.8308 144.809 54.8726 144.344 54.8726H139.372C138.996 54.8726 138.722 54.807 138.555 54.6818C138.388 54.5565 138.329 54.3896 138.37 54.1808C138.43 54.002 138.579 53.8469 138.829 53.7157C139.05 53.5965 139.229 53.4593 139.378 53.2923C139.521 53.1313 139.646 52.8689 139.748 52.5171L141.691 46.0948C141.721 46.0232 141.733 45.9159 141.733 45.7847C141.733 45.6237 141.703 45.4985 141.637 45.409C141.572 45.3196 141.465 45.2063 141.321 45.0751C141.178 44.9558 141.071 44.8544 141.017 44.765C140.958 44.6755 140.952 44.5563 140.994 44.4072C141.083 44.0673 141.542 43.7691 142.371 43.5067C143.199 43.2503 144.064 43.1191 144.964 43.1191C145.679 43.1191 146.24 43.3219 146.657 43.7214C147.074 44.121 147.271 44.6696 147.259 45.3673C147.855 44.5205 148.481 43.9361 149.149 43.6141C149.811 43.2861 150.526 43.1251 151.295 43.1251C152.142 43.1251 152.827 43.3756 153.358 43.8705C153.889 44.3654 154.181 45.0154 154.24 45.8145C154.866 44.8067 155.534 44.109 156.249 43.7155C156.965 43.3219 157.74 43.1251 158.586 43.1251C159.475 43.1251 160.19 43.3994 160.739 43.948C161.287 44.4966 161.555 45.2063 161.555 46.0828C161.555 46.542 161.484 46.9952 161.335 47.4365L160.005 51.8135L159.987 51.7956Z" fill="#4B66EA"/>
<path d="M169.7 43.5964C170.093 43.9244 170.29 44.3656 170.29 44.9321C170.29 45.272 170.242 45.6 170.135 45.9101L168.126 52.5531C168.084 52.732 168.06 52.887 168.06 53.0182C168.06 53.209 168.096 53.3641 168.168 53.4714C168.239 53.5788 168.34 53.6921 168.472 53.7934C168.573 53.8948 168.645 53.9843 168.692 54.0499C168.734 54.1154 168.74 54.1989 168.716 54.3063C168.645 54.4971 168.495 54.6402 168.281 54.7297C168.06 54.8191 167.726 54.8608 167.279 54.8608H162.307C161.932 54.8608 161.651 54.7953 161.479 54.67C161.306 54.5448 161.246 54.3778 161.306 54.1691C161.365 53.9902 161.514 53.8352 161.765 53.704C161.985 53.5847 162.164 53.4476 162.313 53.2806C162.456 53.1196 162.582 52.8572 162.683 52.5054L164.579 46.083C164.62 45.9518 164.644 45.8385 164.644 45.7491C164.644 45.5881 164.608 45.4569 164.537 45.3615C164.465 45.2661 164.352 45.1647 164.209 45.0633C164.066 44.9441 163.959 44.8427 163.905 44.7532C163.851 44.6638 163.839 44.5445 163.881 44.3955C163.971 44.0556 164.43 43.7574 165.258 43.495C166.087 43.2386 166.951 43.1074 167.858 43.1074C168.704 43.1074 169.318 43.2684 169.712 43.5964H169.7ZM170.725 38.7662C171.101 39.1419 171.291 39.607 171.291 40.1556C171.291 40.5432 171.196 40.9189 170.999 41.2886C170.803 41.6584 170.528 41.9565 170.171 42.1891C169.813 42.4216 169.42 42.5349 168.984 42.5349C168.43 42.5349 167.971 42.3441 167.601 41.9684C167.232 41.5928 167.035 41.1217 167.023 40.5552C167.023 40.1855 167.118 39.8217 167.309 39.4579C167.5 39.0942 167.768 38.796 168.114 38.5575C168.46 38.319 168.865 38.1997 169.312 38.1997C169.879 38.1997 170.35 38.3905 170.731 38.7662H170.725Z" fill="#4B66EA"/>
<path d="M183.596 51.7953C183.567 51.8549 183.555 51.9444 183.555 52.0636C183.555 52.165 183.578 52.2485 183.632 52.3081C183.686 52.3678 183.751 52.3976 183.841 52.3976C184.014 52.3976 184.163 52.3201 184.288 52.165C184.413 52.01 184.497 51.9324 184.538 51.9324C184.61 51.9324 184.669 51.9802 184.711 52.0756C184.753 52.171 184.777 52.2843 184.777 52.4214C184.789 52.8508 184.652 53.2682 184.359 53.6737C184.067 54.0792 183.644 54.4131 183.084 54.6755C182.523 54.9319 181.85 55.0631 181.063 55.0631C180.103 55.0631 179.34 54.8365 178.773 54.3833C178.207 53.9301 177.915 53.3278 177.903 52.5705C177.903 52.0219 178.034 51.4077 178.296 50.7279L179.495 47.5316C179.566 47.3408 179.602 47.1858 179.602 47.0665C179.602 46.8757 179.542 46.7206 179.417 46.6133C179.292 46.5 179.143 46.4463 178.97 46.4463C178.648 46.4463 178.344 46.5954 178.052 46.8995C177.76 47.2036 177.551 47.5793 177.42 48.0206L176.067 52.5526C176.007 52.7136 175.977 52.8687 175.977 53.0177C175.977 53.1966 176.013 53.3398 176.085 53.4531C176.156 53.5664 176.258 53.6797 176.389 53.7989C176.49 53.8884 176.562 53.9719 176.609 54.0434C176.651 54.115 176.657 54.2044 176.633 54.3118C176.574 54.5026 176.436 54.6457 176.216 54.7351C175.995 54.8246 175.655 54.8663 175.19 54.8663H170.218C169.843 54.8663 169.569 54.8007 169.402 54.6755C169.235 54.5503 169.175 54.3833 169.217 54.1746C169.276 53.9957 169.425 53.8407 169.676 53.7095C169.896 53.5902 170.075 53.4531 170.224 53.2861C170.367 53.1251 170.493 52.8627 170.594 52.5109L172.537 46.0885C172.567 46.017 172.579 45.9096 172.579 45.7784C172.579 45.6174 172.543 45.4922 172.478 45.4028C172.412 45.3133 172.305 45.2 172.162 45.0688C172.019 44.9496 171.911 44.8482 171.858 44.7587C171.798 44.6693 171.792 44.55 171.834 44.4009C171.923 44.061 172.382 43.7629 173.211 43.5005C174.04 43.2441 174.904 43.1129 175.81 43.1129C176.538 43.1129 177.11 43.3156 177.533 43.7211C177.957 44.1266 178.147 44.6931 178.1 45.4206C178.696 44.55 179.328 43.9418 179.996 43.6078C180.663 43.2739 181.391 43.1069 182.177 43.1069C183.066 43.1069 183.781 43.3812 184.33 43.9299C184.878 44.4785 185.146 45.1881 185.146 46.0647C185.146 46.5238 185.075 46.977 184.926 47.4183L183.596 51.7953Z" fill="#4B66EA"/>
<path d="M197.869 51.9022C197.869 52.0035 197.899 52.087 197.958 52.1467C198.018 52.2063 198.089 52.2361 198.179 52.2361C198.352 52.2361 198.501 52.1586 198.626 52.0035C198.751 51.8485 198.835 51.771 198.876 51.771C198.948 51.771 199.007 51.8246 199.049 51.926C199.091 52.0274 199.115 52.1467 199.115 52.2838C199.127 52.6833 198.978 53.0888 198.668 53.5063C198.352 53.9237 197.934 54.2636 197.416 54.526C196.891 54.7943 196.325 54.9255 195.711 54.9255C194.983 54.9255 194.351 54.7824 193.815 54.5021C193.278 54.2218 192.903 53.8521 192.7 53.393C192.307 53.9118 191.854 54.2994 191.347 54.5498C190.84 54.8003 190.298 54.9255 189.731 54.9255C189.063 54.9255 188.437 54.7526 187.865 54.4127C187.293 54.0728 186.834 53.5897 186.488 52.9576C186.148 52.3255 185.975 51.6159 185.975 50.8169C185.975 49.4692 186.226 48.199 186.726 47.0064C187.227 45.8138 187.931 44.8537 188.831 44.1202C189.731 43.3867 190.757 43.023 191.907 43.023C192.533 43.023 193.07 43.0945 193.511 43.2436C193.952 43.3927 194.357 43.6133 194.721 43.9115L195.46 41.4248C195.502 41.2937 195.526 41.1804 195.526 41.0909C195.526 40.9299 195.484 40.7927 195.407 40.6914C195.329 40.59 195.222 40.4827 195.091 40.3813C194.948 40.262 194.84 40.1606 194.775 40.0712C194.709 39.9818 194.697 39.8625 194.745 39.7134C194.834 39.3735 195.293 39.0754 196.122 38.8249C196.951 38.5744 197.815 38.4492 198.721 38.4492C199.568 38.4492 200.188 38.6102 200.587 38.9382C200.987 39.2662 201.189 39.7074 201.189 40.268C201.189 40.596 201.142 40.912 201.034 41.2221L197.917 51.6636C197.887 51.7829 197.875 51.8604 197.875 51.9081L197.869 51.9022ZM193.505 45.1041C193.082 45.1041 192.67 45.4202 192.259 46.0582C191.854 46.6963 191.526 47.4656 191.275 48.366C191.025 49.2724 190.912 50.0834 190.923 50.8109C190.923 51.6279 191.186 52.0334 191.71 52.0334C191.901 52.0334 192.056 51.9558 192.187 51.8008C192.319 51.6457 192.444 51.3893 192.557 51.0315L194.262 45.4142C194.03 45.2055 193.773 45.1041 193.499 45.1041H193.505Z" fill="#4B66EA"/>
</svg>
