<svg width="277" height="95" viewBox="0 0 277 95" fill="none" xmlns="http://www.w3.org/2000/svg">
<path fill-rule="evenodd" clip-rule="evenodd" d="M41.3192 0.0737305L42.6653 0.549921L42.7556 0.582762C52.9993 4.77816 74.4552 14.6714 81.2762 22.9473L82.5566 24.499L81.9821 26.4284C81.3582 28.522 80.5949 30.6402 79.8233 32.6846C77.8616 37.9309 75.6372 43.1033 73.2076 48.1526C65.6316 63.9407 55.8968 79.0475 44.11 92.0196C43.2317 92.9801 42.3042 93.9489 41.3192 94.8849C40.3342 93.9489 39.4067 92.9884 38.5285 92.0196C26.7416 79.0475 17.0069 63.9407 9.4308 48.1526C7.00941 43.1033 4.77681 37.9309 2.81508 32.6846C2.05173 30.6402 1.28838 28.522 0.656353 26.4284L0.0817871 24.499L1.36225 22.9473C8.19137 14.6796 29.6473 4.78637 39.891 0.582762L39.9813 0.549921L41.3274 0.0737305H41.3192Z" fill="#4B66EA"/>
<path d="M41.3195 94.9836L41.2702 94.9343C40.3427 94.0558 39.407 93.0952 38.4713 92.069C32.7338 85.7553 27.3001 78.7274 22.3342 71.1823C17.5899 63.9819 13.2314 56.2397 9.35722 48.1855C6.85375 42.9639 4.62115 37.7586 2.7415 32.7094C1.99456 30.7061 1.2148 28.5632 0.582774 26.445L0 24.4828L1.30509 22.8982C4.30104 19.2611 10.3586 14.9754 19.3054 10.1642C28.0224 5.49261 36.5834 1.86371 39.8667 0.517241L39.957 0.484401L41.3277 0L42.6985 0.484401L42.7887 0.525452C46.0638 1.87192 54.6248 5.50082 63.3336 10.1806C72.2804 14.9918 78.338 19.2775 81.3339 22.9146L82.639 24.4992L82.0562 26.4614C81.4242 28.5714 80.6444 30.7225 79.8975 32.7258C78.0178 37.7668 75.7935 42.9721 73.2818 48.202C69.4158 56.2562 65.0491 63.9984 60.3048 71.1987C55.3389 78.7438 49.9134 85.7718 44.1677 92.0854C43.2402 93.1117 42.2963 94.0722 41.3687 94.9507L41.3195 95V94.9836ZM0.17237 24.5238L0.738728 26.4121C1.37075 28.5222 2.14231 30.665 2.88925 32.6601C4.7689 37.7011 6.99329 42.8982 9.49675 48.1199C17.4914 64.7701 27.2755 79.5238 38.578 91.9704C39.4891 92.9721 40.4084 93.9163 41.3113 94.7783C42.2142 93.9163 43.1335 92.9721 44.0446 91.9704C55.3553 79.5238 65.1394 64.7783 73.1258 48.1199C75.6293 42.8982 77.8537 37.6929 79.7333 32.6601C80.4803 30.6568 81.26 28.514 81.8839 26.4121L82.4502 24.5238L81.1944 23.0049C78.2066 19.3842 72.1655 15.1149 63.2351 10.312C54.5591 5.62397 45.9981 1.99507 42.7231 0.656814L42.6328 0.623974L41.3195 0.164204L39.998 0.632184L39.9159 0.665025C36.6409 2.00328 28.0799 5.63218 19.3793 10.312C10.4571 15.1067 4.41595 19.376 1.42821 22.9967L0.17237 24.5156V24.5238Z" fill="#4B66EA"/>
<path fill-rule="evenodd" clip-rule="evenodd" d="M41.3195 4.08057C41.3195 4.08057 70.7701 16.1495 78.3626 25.3531C78.3626 25.3531 67.9876 60.1479 41.3195 89.4829C14.6597 60.1479 4.27643 25.3531 4.27643 25.3531C11.8771 16.1495 41.3195 4.08057 41.3195 4.08057Z" fill="#D8EFFC"/>
<path fill-rule="evenodd" clip-rule="evenodd" d="M41.3183 83.2427C51.2254 71.6417 59.5074 58.4479 66.0821 44.7369C68.405 39.9011 70.5391 34.9504 72.4187 29.9257C72.8455 28.7763 73.2806 27.6023 73.6828 26.42C66.9029 20.1228 49.9532 12.1917 41.3183 8.54643C32.6834 12.1917 15.7337 20.1228 8.9538 26.42C9.356 27.6023 9.79103 28.7763 10.2178 29.9257C12.0975 34.9504 14.2316 39.9011 16.5545 44.7369C23.1292 58.4479 31.4111 71.6417 41.3183 83.2427ZM41.3183 85.2377C51.7426 73.2837 60.4103 59.5727 67.264 45.3034C69.6034 40.4348 71.7539 35.443 73.6417 30.3855C74.167 28.9651 74.7006 27.5119 75.1848 26.0587C68.4953 19.3592 50.2323 10.8617 41.3265 7.13428C32.4207 10.8617 14.1495 19.3592 7.46814 26.0587C7.94421 27.5119 8.47773 28.9651 9.01126 30.3855C10.8991 35.4512 13.0578 40.4348 15.3889 45.3034C22.2345 59.5727 30.9104 73.2837 41.3347 85.2377H41.3183Z" fill="#4B66EA"/>
<path d="M41.3195 85.3446L41.2621 85.279C31.2482 73.7929 22.5148 60.3446 15.3081 45.3282C12.8867 40.2789 10.7362 35.2625 8.92221 30.4021C8.4051 29.0228 7.86336 27.5449 7.37909 26.0753L7.36267 26.0343L7.3955 26.0014C15.3409 18.0458 38.6519 8.16892 41.2785 7.06055H41.3031H41.3277C43.9625 8.16071 67.2735 18.0458 75.2107 26.0014L75.2435 26.0343L75.2271 26.0753C74.7428 27.5449 74.2011 29.0228 73.684 30.4021C71.87 35.2625 69.7277 40.2789 67.2981 45.3282C60.0914 60.3446 51.358 73.7929 41.3441 85.279L41.2867 85.3446H41.3195ZM7.54325 26.0753C8.01932 27.5285 8.56105 28.9899 9.06995 30.3528C10.8839 35.205 13.0262 40.2215 15.4476 45.2707C22.6379 60.2543 31.3385 73.6615 41.3195 85.123C51.3006 73.6615 60.0093 60.2461 67.1914 45.2707C69.6128 40.2297 71.7551 35.205 73.5691 30.3528C74.078 28.9899 74.6115 27.5285 75.0958 26.0753C67.1668 18.1771 44.0774 8.36597 41.3195 7.21654C38.5616 8.37418 15.4641 18.1771 7.54325 26.0753ZM41.3195 83.3496L41.2621 83.2839C31.7325 72.1344 23.4013 59.1706 16.4819 44.7699C14.0769 39.7617 11.9428 34.7699 10.1452 29.9505C9.73481 28.8422 9.29157 27.6517 8.88117 26.4448L8.86475 26.3955L8.89758 26.3627C15.0454 20.6566 30.1811 13.1607 41.2867 8.48091H41.3113H41.3359C52.4333 13.1689 67.5772 20.6648 73.725 26.3627L73.7579 26.3955L73.7415 26.4448C73.3311 27.6517 72.8878 28.8422 72.4774 29.9505C70.6798 34.7699 68.5457 39.7535 66.1408 44.7699C59.2296 59.1788 50.8901 72.1344 41.3606 83.2839L41.3031 83.3496H41.3195ZM9.04533 26.4448C9.45573 27.6353 9.88255 28.8093 10.293 29.9013C12.0905 34.7206 14.2246 39.696 16.6214 44.7042C23.5162 59.072 31.8228 71.9949 41.3195 83.1279C50.8163 72.0031 59.1229 59.072 66.0176 44.7042C68.4226 39.696 70.5485 34.7124 72.3461 29.9013C72.7565 28.8093 73.1833 27.6353 73.5937 26.4448C67.4459 20.7633 52.3758 13.3085 41.3113 8.62869C30.2468 13.3003 15.1768 20.7633 9.02891 26.4448H9.04533Z" fill="white"/>
<path fill-rule="evenodd" clip-rule="evenodd" d="M41.3199 17.9385C29.3197 17.9385 18.3455 26.8794 18.3455 39.2849C18.3455 51.6905 29.3197 60.6314 41.3199 60.6314C53.3201 60.6314 64.2943 51.6905 64.2943 39.2849C64.2943 26.8794 53.3201 17.9385 41.3199 17.9385ZM41.3199 20.4672C30.0256 20.4672 20.8735 28.8909 20.8735 39.2849C20.8735 49.679 30.0256 58.1027 41.3199 58.1027C52.6142 58.1027 61.7662 49.679 61.7662 39.2849C61.7662 28.8909 52.6142 20.4672 41.3199 20.4672Z" fill="#4B66EA"/>
<path fill-rule="evenodd" clip-rule="evenodd" d="M52.7961 19.2466C53.1162 19.3451 53.4446 19.5011 53.7401 19.6571C54.487 20.0512 55.1847 20.5602 55.7921 21.1431C56.0055 20.9789 56.2189 20.6833 56.3666 20.4535C56.7853 19.7802 56.9905 18.992 57.0561 18.2039C57.1054 17.5388 57.1546 16.8738 57.1875 16.2006C57.1875 16.0939 57.1957 15.9789 57.1957 15.8722C57.1957 15.8065 57.2449 15.749 57.3106 15.749L79.5709 13.8361C79.9156 13.7868 80.3343 13.9264 80.6051 14.1316C81.4423 14.7802 81.4506 16.2088 81.3603 17.1612C81.2043 18.7457 80.5395 20.2154 79.5709 21.4633C79.1359 22.0216 78.5941 22.6209 78.0278 23.0479C78.3643 23.1464 78.7583 23.4338 78.9963 23.6965C79.6694 24.4354 79.7679 25.437 79.6119 26.3894C79.3985 27.6702 79.021 28.795 78.1755 29.7966C77.1659 30.9871 75.6474 31.8246 74.2521 32.4732C74.4408 32.7113 74.605 33.0068 74.7363 33.286C75.0318 33.9017 75.2042 34.5914 75.1878 35.281C75.1632 36.1513 74.6707 37.0134 74.1125 37.662C73.4969 38.3845 72.6597 39.0167 71.7732 39.3779C71.0509 39.6735 70.3204 39.9362 69.5817 40.1743C69.278 40.2728 68.9743 40.3714 68.6706 40.4535C68.6377 40.4617 68.6131 40.4945 68.6131 40.5273C68.5967 40.6341 68.7444 40.7737 68.8101 40.8393C69.122 41.1267 69.4257 41.6275 69.5899 42.0134C69.8607 42.6209 69.9756 43.3106 69.7376 43.9428C69.1959 45.3631 67.0782 46.3894 65.7239 46.8492C64.6486 47.2186 63.4666 47.6127 62.3175 47.6127C62.5473 47.7441 62.7854 47.9658 62.9577 48.171C63.2861 48.5815 63.3928 49.0495 63.1055 49.5175C62.6951 50.1825 61.6198 50.8475 60.9385 51.217C59.97 51.7425 58.8537 52.2022 57.7702 52.4239C56.7442 52.6292 55.6361 52.0709 54.8071 51.5044C54.4049 51.2252 54.0191 50.9132 53.6498 50.5848C53.4199 50.3796 53.2065 50.1661 52.9849 49.9608C52.7879 49.7802 52.5171 49.5257 52.3775 49.2958L50.4404 52.8262L48.8398 57.4814L51.3679 60.6833L51.3925 60.6998C51.3925 60.6998 51.4008 60.708 51.409 60.7162L55.8249 66.4223C55.8249 66.4223 55.8249 66.4223 55.8331 66.4305C56.1697 66.997 56.4241 67.818 56.5144 68.4666C56.736 70.0265 56.2681 71.4223 55.1683 72.5471C54.0438 73.6883 52.6155 74.2794 51.015 74.3205C50.3501 74.3369 49.5047 74.2548 48.8727 74.0331C48.7988 74.3205 48.6757 74.616 48.5525 74.887C48.2571 75.5438 47.8631 76.1677 47.3952 76.7096C46.755 77.4567 45.9752 78.0561 45.0805 78.4748C43.8986 79.0249 42.6017 79.2055 41.3048 79.148C41.3048 79.148 41.2884 79.148 41.2802 79.148L41.2145 79.1316L41.1489 79.148C41.1489 79.148 41.1324 79.148 41.1242 79.148C39.8274 79.2055 38.5305 79.0249 37.3485 78.4748C36.4538 78.0561 35.6741 77.4567 35.0338 76.7096C34.566 76.1595 34.172 75.5438 33.8765 74.887C33.7534 74.616 33.6302 74.3205 33.5564 74.0331C32.9244 74.2548 32.0871 74.3369 31.4141 74.3205C29.8135 74.2794 28.3935 73.6883 27.2608 72.5471C26.1527 71.4305 25.6848 70.0265 25.9146 68.4666C26.0049 67.818 26.2594 66.997 26.5959 66.4305C26.5959 66.4305 26.5959 66.4305 26.6041 66.4223L31.0201 60.7162C31.0201 60.7162 31.0283 60.708 31.0365 60.6998L31.0611 60.6833L33.5892 57.4814L31.9886 52.8262L30.0515 49.2958C29.9202 49.5257 29.6411 49.7802 29.4441 49.9608C29.2225 50.1661 29.0091 50.3796 28.7793 50.5848C28.4099 50.9132 28.0323 51.2252 27.6219 51.5044C26.7929 52.0709 25.693 52.6292 24.6588 52.4239C23.5753 52.2022 22.459 51.7425 21.4905 51.217C20.8092 50.8475 19.734 50.1825 19.3236 49.5175C19.0363 49.0495 19.1348 48.5815 19.4713 48.171C19.6355 47.9658 19.8817 47.7523 20.1115 47.6127C18.9624 47.6127 17.7804 47.2186 16.7052 46.8492C15.3508 46.3894 13.2249 45.3549 12.6914 43.9428C12.4534 43.3106 12.5683 42.6127 12.8392 42.0134C13.0115 41.6275 13.3152 41.1267 13.6189 40.8393C13.6846 40.7737 13.8323 40.6341 13.8159 40.5273C13.8159 40.4945 13.7831 40.4617 13.7585 40.4535C13.4548 40.3714 13.1511 40.2728 12.8474 40.1743C12.1086 39.9362 11.3781 39.6653 10.6558 39.3779C9.76935 39.0167 8.94033 38.3845 8.31651 37.662C7.76657 37.0134 7.26588 36.1513 7.24126 35.281C7.22484 34.5914 7.39721 33.9099 7.6927 33.286C7.82403 33.0068 7.98819 32.7113 8.17698 32.4732C6.7816 31.8163 5.26311 30.9871 4.25351 29.7966C3.40808 28.795 3.03051 27.6702 2.8171 26.3894C2.66114 25.437 2.75964 24.4354 3.4327 23.6965C3.67074 23.4338 4.05652 23.1464 4.40126 23.0479C3.8349 22.6209 3.29317 22.0216 2.85814 21.4633C1.88958 20.2072 1.22473 18.7457 1.06878 17.1612C0.978486 16.2006 0.986694 14.7802 1.82392 14.1316C2.09479 13.9264 2.5134 13.7868 2.85814 13.8361L25.1185 15.749C25.1841 15.749 25.2334 15.8065 25.2334 15.8722C25.2334 15.9789 25.2334 16.0939 25.2416 16.2006C25.2662 16.8656 25.3237 17.5388 25.3729 18.2039C25.4304 18.992 25.6438 19.7802 26.0624 20.4535C26.2019 20.6833 26.4235 20.9789 26.637 21.1431C27.2444 20.552 27.942 20.0512 28.689 19.6571C28.9845 19.5011 29.3128 19.3451 29.6329 19.2466C31.1186 16.1513 33.4989 13.8278 36.7657 12.6784C37.7507 12.3336 38.7849 12.1037 39.8274 12.0134C40.246 11.9723 40.6892 11.9477 41.116 11.9806H41.1899H41.2638C41.6906 11.9477 42.1256 11.9806 42.5524 12.0134C43.5949 12.1037 44.6291 12.3336 45.6141 12.6784C48.8809 13.8278 51.253 16.1513 52.7469 19.2466H52.7961Z" fill="#4B66EA"/>
<path d="M41.7895 79.238C41.6336 79.238 41.4858 79.238 41.3217 79.2298C41.3053 79.2298 41.2971 79.2298 41.2889 79.2298H41.2396H41.1904C41.1739 79.2298 41.1657 79.2298 41.1575 79.2298C39.7457 79.2954 38.4653 79.0656 37.349 78.5483C36.4543 78.1296 35.6663 77.5303 35.0097 76.7667C34.5418 76.2166 34.1478 75.6009 33.8441 74.9194C33.7456 74.6977 33.6225 74.4186 33.5404 74.1312C32.9741 74.3201 32.1943 74.4186 31.4474 74.4022C29.8222 74.3611 28.3693 73.7454 27.2448 72.6124C26.1203 71.4711 25.6442 70.0426 25.8741 68.4744C25.9808 67.7437 26.2516 66.9391 26.5718 66.4137C26.5718 66.4137 26.58 66.3972 26.5882 66.3972L31.0041 60.6912C31.0041 60.6912 31.0205 60.6748 31.0287 60.6665L31.0452 60.6501L33.5404 57.4892L31.9563 52.8751L30.0766 49.4514C29.9207 49.6649 29.6908 49.8784 29.5267 50.0261C29.4364 50.1082 29.3543 50.1903 29.264 50.2725C29.1327 50.3956 29.0013 50.527 28.8618 50.6501C28.4596 51.0114 28.0738 51.3151 27.6963 51.5779C26.5471 52.366 25.5375 52.678 24.6839 52.5056C23.4363 52.2511 22.2625 51.7092 21.4992 51.2987C20.8671 50.9539 19.7344 50.2725 19.3076 49.5746C19.0285 49.1148 19.0778 48.614 19.4553 48.146C19.5785 47.99 19.7426 47.834 19.915 47.7027C18.8151 47.6534 17.707 47.2757 16.7221 46.9391C15.0886 46.3808 13.1597 45.3135 12.659 43.9835C12.38 43.2445 12.5852 42.4974 12.8068 41.9966C12.9627 41.6353 13.2664 41.1099 13.6112 40.7979C13.7918 40.6337 13.7918 40.568 13.7836 40.5516C13.7836 40.5516 13.7836 40.5434 13.7753 40.5434C13.4552 40.4531 13.1351 40.3546 12.8642 40.2642C12.1255 40.0261 11.3868 39.7552 10.6645 39.4596C9.81084 39.1148 8.94899 38.4826 8.30055 37.7273C7.90657 37.2675 7.2335 36.3316 7.20888 35.3053C7.19246 34.6485 7.34842 33.9424 7.66853 33.2774C7.80807 32.9818 7.95581 32.7273 8.11177 32.522C6.84772 31.9227 5.28819 31.0853 4.24576 29.8619C3.48241 28.967 3.03917 27.8997 2.79293 26.4219C2.60414 25.2807 2.82576 24.3283 3.42495 23.6715C3.63015 23.4498 3.96669 23.1871 4.29501 23.0475C3.70403 22.5795 3.18692 21.972 2.84218 21.5286C1.80796 20.1903 1.18414 18.6879 1.0364 17.1854C0.888654 15.6501 1.15131 14.6074 1.81617 14.0902C2.11987 13.8521 2.5631 13.7289 2.90784 13.7782L25.16 15.6912C25.2667 15.6994 25.3405 15.7815 25.3405 15.8882C25.3405 15.9703 25.3405 16.0524 25.3405 16.1263V16.2084C25.3734 16.8488 25.4144 17.4646 25.4719 18.2117C25.5375 19.0573 25.7674 19.8209 26.1449 20.4284C26.227 20.5598 26.424 20.8636 26.6538 21.0606C27.2612 20.4777 27.9425 19.9933 28.673 19.6074C28.9275 19.4761 29.264 19.3036 29.6005 19.1969C31.1519 15.9949 33.6225 13.7207 36.758 12.6206C37.7594 12.2675 38.7936 12.0458 39.8442 11.9473C40.2382 11.9145 40.6979 11.8816 41.1411 11.9145C41.1411 11.9145 41.1493 11.9145 41.1575 11.9145H41.215H41.2806C41.2806 11.9145 41.2806 11.9145 41.2971 11.9145C41.7485 11.8816 42.2082 11.9145 42.5939 11.9473C43.6364 12.0376 44.6788 12.2675 45.6802 12.6206C48.8157 13.7207 51.2863 15.9949 52.8376 19.1969C53.1742 19.3036 53.5107 19.4678 53.7651 19.6074C54.4957 19.9933 55.1769 20.4777 55.7843 21.0606C56.0059 20.8636 56.2111 20.5598 56.2932 20.4284C56.6708 19.8209 56.9006 19.0573 56.9663 18.2117C57.0238 17.4728 57.073 16.857 57.0976 16.2084V16.1263C57.0976 16.0442 57.1058 15.9703 57.1058 15.8882C57.1058 15.7815 57.1879 15.6994 57.2864 15.6912L79.5467 13.7782C79.8833 13.7289 80.3265 13.8521 80.6302 14.0902C81.2951 14.6074 81.5577 15.6501 81.41 17.1854C81.2622 18.6879 80.6384 20.1903 79.6042 21.5286C79.2677 21.9637 78.7423 22.5795 78.1514 23.0475C78.4797 23.1789 78.8162 23.4498 79.0214 23.6715C79.6288 24.3283 79.8422 25.2807 79.6534 26.4219C79.4072 27.8997 78.964 28.967 78.2006 29.8619C77.1664 31.0853 75.6069 31.9227 74.3346 32.522C74.4824 32.7191 74.6301 32.9736 74.7778 33.2774C75.098 33.9424 75.2539 34.6403 75.2375 35.3053C75.2129 36.3316 74.5398 37.2675 74.1458 37.7273C73.4974 38.4826 72.6355 39.1148 71.7819 39.4596C71.0678 39.747 70.3291 40.0179 69.5821 40.2642C69.3113 40.3546 68.9911 40.4531 68.671 40.5434C68.671 40.5434 68.671 40.5434 68.671 40.5516C68.671 40.5598 68.671 40.6337 68.8434 40.7979C69.1799 41.1099 69.4836 41.6436 69.6478 41.9966C69.8694 42.4974 70.0746 43.2527 69.7955 43.9835C69.2948 45.3053 67.3659 46.3726 65.7325 46.9391C64.7476 47.2757 63.6395 47.6534 62.5396 47.7027C62.712 47.834 62.8761 47.99 62.9992 48.146C63.3768 48.6222 63.4343 49.1148 63.147 49.5746C62.7202 50.2725 61.5874 50.9539 60.9554 51.2987C60.1921 51.7092 59.0183 52.2593 57.7707 52.5056C56.917 52.678 55.8992 52.366 54.7583 51.5779C54.3807 51.3151 53.995 51.0114 53.5928 50.6501C53.4532 50.527 53.3219 50.3956 53.1906 50.2725C53.1003 50.1903 53.0182 50.1082 52.9279 50.0261C52.7638 49.8784 52.5339 49.6567 52.378 49.4514L50.4983 52.8751L48.9142 57.4892L51.4094 60.6501L51.4258 60.6665C51.4258 60.6665 51.4423 60.683 51.4505 60.6912L55.8664 66.3972C55.8664 66.3972 55.8746 66.4055 55.8828 66.4137C56.2029 66.9391 56.4738 67.7519 56.5805 68.4744C56.8103 70.0426 56.3343 71.4794 55.2098 72.6124C54.0935 73.7454 52.6406 74.3693 51.0072 74.4022C50.2603 74.4186 49.4887 74.3201 48.9142 74.1312C48.8321 74.4186 48.709 74.706 48.6105 74.9194C48.3068 75.5927 47.9128 76.2166 47.4449 76.7667C46.7883 77.5385 46.0003 78.1378 45.1056 78.5483C44.1206 79.0081 42.9961 79.238 41.7649 79.238H41.7895ZM41.2396 79.0573L41.3217 79.0738C41.3217 79.0738 41.3217 79.0738 41.3299 79.0738C42.7171 79.1394 43.9811 78.9096 45.0646 78.4087C45.9346 78.0064 46.7062 77.4153 47.3464 76.66C47.8061 76.1181 48.1919 75.5105 48.4873 74.8537C48.594 74.6238 48.7254 74.3119 48.7992 74.0081L48.8157 73.9342L48.8895 73.9588C49.5462 74.1887 50.4162 74.2626 51.0072 74.2462C52.5996 74.2051 54.0114 73.6058 55.1031 72.4974C56.1947 71.3973 56.6544 70.0015 56.4328 68.4826C56.3343 67.7766 56.0634 66.9884 55.7597 66.4711L51.3438 60.7569L51.3109 60.7322L48.7582 57.4974L50.3752 52.793L52.378 49.1477L52.4436 49.2626C52.575 49.4843 52.854 49.747 53.0346 49.9112C53.1249 49.9933 53.2152 50.0754 53.2973 50.1575C53.4286 50.2807 53.5599 50.412 53.6995 50.527C54.1017 50.8882 54.471 51.1838 54.8486 51.4383C55.9649 52.2018 56.9417 52.5056 57.7543 52.3414C58.9855 52.0951 60.1428 51.5532 60.9062 51.1427C61.53 50.8061 62.6381 50.1411 63.0485 49.4761C63.3029 49.0656 63.2537 48.6386 62.9089 48.2117C62.7448 48.0064 62.5067 47.8012 62.2933 47.6698L62.0635 47.5302H62.3344C63.4917 47.5302 64.6737 47.128 65.7161 46.7667C67.3167 46.2166 69.2045 45.1739 69.6888 43.9014C69.9515 43.2117 69.7545 42.4974 69.5411 42.0212C69.3851 41.6764 69.0978 41.1674 68.7777 40.8718C68.6136 40.724 68.5397 40.6009 68.5561 40.4941C68.5643 40.4367 68.6136 40.3792 68.671 40.3628C68.9911 40.2724 69.303 40.1739 69.5821 40.0836C70.3209 39.8455 71.0514 39.5746 71.7655 39.2872C72.6027 38.9506 73.4399 38.3266 74.0719 37.5877C74.4577 37.1362 75.1062 36.2412 75.1308 35.256C75.1472 34.6238 74.9913 33.9424 74.6876 33.2938C74.5316 32.9654 74.3674 32.6945 74.2115 32.4974L74.154 32.4235L74.2361 32.3825C75.5002 31.7913 77.0925 30.9539 78.1349 29.7224C78.8737 28.8439 79.3169 27.8094 79.5549 26.3562C79.6781 25.5926 79.6781 24.5171 78.9558 23.7289C78.7423 23.499 78.3648 23.2035 78.02 23.105L77.8805 23.0639L77.9954 22.9736C78.6192 22.5056 79.1692 21.857 79.5221 21.3972C80.5399 20.0836 81.1555 18.6058 81.2951 17.1279C81.4346 15.6665 81.1884 14.6403 80.5727 14.1641C80.3019 13.9506 79.8997 13.8357 79.596 13.8767L57.3275 15.7897C57.3275 15.7897 57.2782 15.8143 57.2782 15.8389C57.2782 15.9211 57.2782 16.0032 57.2782 16.0853V16.1674C57.2454 16.816 57.2043 17.4317 57.1469 18.1706C57.0812 19.0409 56.8432 19.8291 56.4492 20.4531C56.3589 20.6009 56.1209 20.9621 55.8582 21.1591L55.809 21.2002L55.7597 21.1591C55.1523 20.568 54.4628 20.0754 53.7241 19.6813C53.4614 19.5417 53.1249 19.3775 52.7884 19.2708H52.7555L52.7391 19.2298C51.2124 16.0524 48.7582 13.7946 45.6473 12.7027C44.6624 12.3578 43.6364 12.1279 42.6021 12.0376C42.2164 12.0048 41.7649 11.972 41.3299 12.0048H41.2478H41.1657C40.7225 11.972 40.271 12.0048 39.8853 12.0376C38.8511 12.1279 37.825 12.3578 36.8401 12.7027C33.7292 13.7946 31.2832 16.0524 29.7483 19.2298L29.7319 19.2626H29.699C29.3625 19.3775 29.026 19.5417 28.7633 19.6813C28.0246 20.0672 27.3433 20.568 26.7277 21.1591L26.6785 21.2002L26.6292 21.1591C26.3666 20.9539 26.1285 20.5926 26.0382 20.4531C25.6524 19.8291 25.4062 19.0327 25.3405 18.1706C25.2831 17.4317 25.2338 16.8078 25.2092 16.1674V16.0853C25.2092 16.0032 25.201 15.9211 25.201 15.8389C25.201 15.8143 25.1764 15.7897 25.1518 15.7897L2.89143 13.8767C2.58773 13.8357 2.18553 13.9506 1.91466 14.1641C1.29906 14.6403 1.04461 15.6665 1.19235 17.1279C1.33189 18.6058 1.9475 20.0836 2.9653 21.3972C3.31825 21.857 3.8764 22.4974 4.492 22.9736L4.60692 23.0639L4.46738 23.105C4.12264 23.2035 3.74507 23.499 3.53166 23.7289C2.80935 24.5171 2.80935 25.5926 2.93247 26.3562C3.1705 27.8094 3.61374 28.8521 4.35247 29.7224C5.39489 30.9539 6.97905 31.7913 8.25131 32.3825L8.33339 32.4235L8.27593 32.4974C8.11177 32.7027 7.95581 32.9654 7.79986 33.2938C7.49616 33.9424 7.34021 34.6156 7.35662 35.256C7.38125 36.2412 8.02969 37.1362 8.41547 37.5877C9.04749 38.3266 9.89292 38.9424 10.7219 39.2872C11.436 39.5746 12.1666 39.8455 12.9053 40.0836C13.1762 40.1739 13.4963 40.2724 13.8082 40.3628C13.8656 40.3792 13.9149 40.4367 13.9231 40.4941C13.9395 40.5926 13.8656 40.7158 13.7015 40.8718C13.3814 41.1674 13.0859 41.6764 12.9381 42.0212C12.7247 42.4974 12.5277 43.2117 12.7904 43.9014C13.2747 45.1739 15.1625 46.2166 16.7631 46.7667C17.8055 47.1197 18.9875 47.5302 20.1448 47.5302H20.4157L20.1859 47.6698C19.9725 47.8012 19.7344 48.0064 19.5703 48.2117C19.2255 48.6386 19.1763 49.0656 19.4307 49.4761C19.8411 50.1493 20.9492 50.8061 21.573 51.1427C22.3282 51.5532 23.4855 52.0869 24.7249 52.3414C25.5375 52.5056 26.5143 52.2018 27.6306 51.4383C28.0082 51.1838 28.3775 50.88 28.7797 50.527C28.9193 50.4038 29.0506 50.2807 29.1819 50.1575C29.2722 50.0754 29.3543 49.9933 29.4446 49.9112C29.6252 49.7388 29.9042 49.4843 30.0356 49.2626L30.1012 49.1477L32.104 52.8094L33.7128 57.5056L31.1519 60.7486L31.1272 60.7651L26.7113 66.4711C26.3994 66.9884 26.1367 67.7766 26.03 68.4826C25.8084 70.0097 26.2681 71.3973 27.3597 72.4974C28.4514 73.6058 29.8714 74.2051 31.4556 74.2462C32.0465 74.2626 32.9084 74.1887 33.5733 73.9588L33.6471 73.9342L33.6635 74.0081C33.7456 74.3119 33.877 74.6238 33.9754 74.8537C34.2709 75.5105 34.6567 76.1263 35.1164 76.66C35.7566 77.4153 36.5282 77.9982 37.3982 78.4087C38.4899 78.9178 39.7457 79.1394 41.1329 79.0738C41.1329 79.0738 41.1329 79.0738 41.1411 79.0738L41.2232 79.0573H41.2396Z" fill="white"/>
<path fill-rule="evenodd" clip-rule="evenodd" d="M18.6013 17.0453C16.2455 16.8319 13.8898 16.6184 11.5341 16.4131C9.85145 16.2654 8.16058 16.1258 6.47793 15.9862C5.88694 15.9369 5.29596 15.8959 4.70498 15.8548C4.51619 15.8466 4.33562 15.8302 4.14683 15.822C4.04833 15.822 3.95804 15.8138 3.85955 15.822C3.21932 15.8713 2.98128 16.2571 3.16186 16.8565C3.53122 18.088 4.04833 19.1964 4.77885 20.2555C5.24671 20.9452 5.82128 21.5773 6.44509 22.1274C6.64209 22.2998 7.31515 22.8417 7.55318 22.8417C7.61885 22.8417 7.67631 22.8253 7.73376 22.8171C7.8733 22.7925 8.00463 22.7678 8.14417 22.7432C8.59561 22.6611 9.04706 22.579 9.4985 22.4969C10.82 22.2588 12.1415 22.0125 13.463 21.7662C15.3262 21.4214 17.1895 21.0765 19.0445 20.7317C19.1102 20.7235 19.1512 20.6578 19.143 20.5921L18.708 17.1438C18.708 17.0864 18.6505 17.0371 18.5931 17.0371L18.6013 17.0453Z" fill="#D8EFFC"/>
<path fill-rule="evenodd" clip-rule="evenodd" d="M40.5256 32.5302C40.4928 32.3578 40.4517 32.1854 40.4189 32.013C40.2794 31.3562 40.1316 30.7076 39.9675 30.059C39.4996 28.2199 38.925 26.3726 38.1289 24.6485C37.6446 23.5893 36.8812 21.9966 35.9865 21.2577C35.3381 20.7322 34.6979 20.7076 33.9181 20.9046C33.1137 21.1099 32.4571 21.6764 32.1205 22.4399C31.7101 23.3759 31.8579 24.4104 32.2929 25.3053C33.3764 27.5384 38.1371 31.4219 40.3286 32.678C40.3779 32.7026 40.4353 32.7026 40.4764 32.678C40.5174 32.6452 40.542 32.5959 40.5338 32.5384L40.5256 32.5302Z" fill="#D8EFFC"/>
<path fill-rule="evenodd" clip-rule="evenodd" d="M42.1585 32.6777C44.35 31.4215 49.1107 27.5381 50.1942 25.3049C50.6292 24.41 50.777 23.3755 50.3666 22.4396C50.03 21.6842 49.3734 21.1095 48.569 20.9043C47.7892 20.7072 47.149 20.7236 46.5006 21.2573C45.5977 21.9962 44.8425 23.5972 44.3582 24.6481C43.5621 26.3804 42.9875 28.2195 42.5196 30.0586C42.3555 30.7072 42.2077 31.3558 42.0682 32.0126C42.0354 32.185 41.9943 32.3575 41.9615 32.5299C41.9533 32.5873 41.9697 32.6366 42.0189 32.6694C42.06 32.7023 42.1174 32.7023 42.1667 32.6694L42.1585 32.6777Z" fill="#D8EFFC"/>
<path fill-rule="evenodd" clip-rule="evenodd" d="M41.2385 15.3049C40.6065 15.2721 39.9498 15.3131 39.326 15.387C37.9306 15.543 36.5353 15.8796 35.2384 16.4215C35.1891 16.4379 35.1645 16.479 35.1563 16.5282C35.1563 16.5775 35.1645 16.6185 35.2056 16.6514C35.7637 17.1358 36.289 17.6612 36.7897 18.1949C37.7008 19.1719 38.735 20.4363 39.2111 21.6924C39.6625 22.8911 40.0565 24.1062 40.3849 25.3377C40.6804 26.4625 40.9184 27.5955 41.1154 28.7368C41.1236 28.8024 41.181 28.8517 41.2549 28.8517C41.3288 28.8517 41.378 28.8024 41.3945 28.7368C41.5914 27.5955 41.8295 26.4625 42.125 25.3377C42.4451 24.098 42.8473 22.8829 43.2987 21.6924C43.7748 20.4363 44.809 19.1719 45.7201 18.1949C46.2208 17.6612 46.7461 17.1358 47.3043 16.6514C47.3453 16.6185 47.3617 16.5693 47.3535 16.5282C47.3535 16.479 47.3125 16.4379 47.2714 16.4215C45.9664 15.8878 44.5792 15.543 43.1838 15.387C42.56 15.3213 41.9034 15.2721 41.2713 15.3049H41.2385Z" fill="#D8EFFC"/>
<path fill-rule="evenodd" clip-rule="evenodd" d="M46.0322 58.1946C45.8188 60.1569 45.7367 62.1519 45.8106 64.1306C45.8434 65.0173 45.9009 65.9122 46.0322 66.7989C46.1225 67.4229 46.2456 68.1043 46.5001 68.679C46.8776 69.5575 47.5097 70.3293 48.3633 70.7891C49.0281 71.1503 49.849 71.3063 50.5795 71.06C51.3428 70.8055 51.8025 70.1815 51.9666 69.4097C52.2211 68.2275 51.8025 66.8317 51.3346 65.748C50.9406 64.8449 50.4481 63.991 49.9228 63.1536C49.3729 62.2833 48.7901 61.4377 48.1909 60.6084C47.5753 59.7628 46.9515 58.9336 46.2866 58.129C46.2538 58.0879 46.1964 58.0715 46.1389 58.0797C46.0814 58.0961 46.0486 58.1372 46.0404 58.1946H46.0322Z" fill="#D8EFFC"/>
<path fill-rule="evenodd" clip-rule="evenodd" d="M41.2471 75.9291C43.373 75.8552 44.3908 74.829 44.7027 73.2115C44.9736 71.7583 44.6699 70.2477 44.4893 68.7945C44.3826 67.9488 44.1199 67.1032 43.8162 66.2904C43.5043 65.4611 43.135 64.6401 42.7245 63.8437C42.3059 63.0227 41.8627 62.2099 41.3702 61.4217C41.3456 61.3807 41.2963 61.3643 41.2471 61.3643C41.1978 61.3643 41.1486 61.3889 41.124 61.4217C40.6315 62.2099 40.1882 63.0227 39.7696 63.8437C39.3592 64.6483 38.9899 65.4611 38.678 66.2904C38.3743 67.1032 38.1116 67.9488 38.0049 68.7945C37.8161 70.2477 37.5124 71.7583 37.7915 73.2115C38.0952 74.829 39.113 75.8552 41.2471 75.9291C41.2471 75.9291 41.2471 75.9291 41.2553 75.9291H41.2471Z" fill="#D8EFFC"/>
<path fill-rule="evenodd" clip-rule="evenodd" d="M36.1992 58.1292C35.5426 58.9338 34.9106 59.7712 34.295 60.6086C33.6876 61.4379 33.1048 62.2835 32.563 63.1538C32.0377 63.983 31.5452 64.8451 31.1513 65.7482C30.6834 66.8319 30.2566 68.2277 30.5192 69.4099C30.6834 70.1817 31.143 70.8057 31.9064 71.0602C32.6369 71.3065 33.4577 71.1505 34.1226 70.7893C34.968 70.3295 35.6082 69.5577 35.9858 68.6792C36.2321 68.1045 36.3552 67.4231 36.4537 66.7991C36.585 65.9206 36.6425 65.0257 36.6753 64.1308C36.7492 62.1603 36.6753 60.1653 36.4537 58.1948C36.4537 58.1374 36.4126 58.0963 36.3552 58.0799C36.2977 58.0635 36.2485 58.0799 36.2074 58.1292H36.1992Z" fill="#D8EFFC"/>
<path fill-rule="evenodd" clip-rule="evenodd" d="M35.1809 22.1763C34.2616 22.1763 33.5228 22.9152 33.5228 23.8347C33.5228 24.7543 34.2616 25.4932 35.1809 25.4932C36.1002 25.4932 36.8389 24.7543 36.8389 23.8347C36.8389 22.9152 36.1002 22.1763 35.1809 22.1763Z" fill="#447EF7"/>
<path fill-rule="evenodd" clip-rule="evenodd" d="M47.2957 22.1763C48.215 22.1763 48.9537 22.9152 48.9537 23.8347C48.9537 24.7543 48.215 25.4932 47.2957 25.4932C46.3764 25.4932 45.6376 24.7543 45.6376 23.8347C45.6376 22.9152 46.3764 22.1763 47.2957 22.1763Z" fill="#447EF7"/>
<path fill-rule="evenodd" clip-rule="evenodd" d="M20.8587 17.3659C20.8587 17.4562 20.8587 17.5548 20.8587 17.6451C20.8587 21.8405 23.5181 25.5843 27.4826 26.9554C27.5483 26.98 27.6222 26.9472 27.6386 26.8815L28.4348 24.6155C28.4348 24.6155 28.443 24.5498 28.4348 24.517C28.4184 24.4841 28.3937 24.4677 28.3609 24.4513C25.5537 23.6549 23.6166 21.0851 23.6166 18.1705C23.6166 17.9735 23.6248 17.7846 23.6413 17.5958C23.6413 17.563 23.6413 17.5301 23.6084 17.5055C23.5838 17.4809 23.5592 17.4644 23.5263 17.4644L21.0065 17.2428C21.0065 17.2428 20.9408 17.2428 20.908 17.2756C20.8833 17.3002 20.8669 17.3331 20.8669 17.3659H20.8587ZM21.1132 24.9685C20.9736 24.4677 20.6453 23.6631 20.2349 23.3429C19.923 23.0966 19.5454 23.0556 19.1596 23.072C18.5604 23.0884 17.9613 23.2198 17.3785 23.3183C16.5413 23.4661 15.6958 23.5974 14.8504 23.737C13.4796 23.9587 12.1171 24.1804 10.7463 24.402C8.92415 24.6976 7.10196 24.985 5.27976 25.2805C5.23052 25.2805 5.19768 25.3216 5.18127 25.3626C5.06635 25.7075 5.04173 26.1754 5.06635 26.5449C5.14844 27.5794 5.66554 28.4415 6.4289 29.1311C7.26612 29.8782 8.22647 30.494 9.25248 30.9456C9.6793 31.1344 10.139 31.315 10.5904 31.4135C10.5904 31.4135 10.5904 31.4135 10.5986 31.4135C10.8613 31.4464 11.1978 31.3889 11.4358 31.2822C12.1417 30.9538 12.823 30.5925 13.4961 30.2149C14.3169 29.7551 15.1295 29.2871 15.9421 28.8027C17.4359 27.9078 18.9216 26.9883 20.3662 26.003C20.6781 25.7896 21.1378 25.4037 21.1214 24.9932C21.1214 24.985 21.1214 24.9768 21.1214 24.9685H21.1132ZM22.6152 27.0621L10.0815 34.4513C9.91733 34.5498 9.74496 34.7387 9.65467 34.9111C9.41664 35.3462 9.5808 35.7649 9.8845 36.118C10.4262 36.7419 11.559 37.3495 12.2977 37.7272C12.7655 37.9653 13.2498 38.1869 13.7341 38.3758C14.0706 38.5071 14.4318 38.6549 14.7929 38.7288C15.0966 38.7863 15.4824 38.8766 15.7861 38.8355C16.0159 38.8109 16.1637 38.7124 16.3443 38.581C16.7465 38.2855 17.1487 38.0063 17.5509 37.7272C18.3717 37.1442 19.1925 36.5613 20.0133 35.9702C20.9736 35.2805 21.9258 34.5745 22.8697 33.8684C23.6823 33.2526 24.4949 32.6369 25.2747 31.9883C25.8328 31.5203 26.9655 30.5515 27.2036 29.8782C27.3349 29.5006 27.1707 29.3035 26.8917 29.0818C26.7932 29.008 26.6865 28.9505 26.5797 28.893C26.3992 28.7945 26.2186 28.7042 26.038 28.6139C25.5702 28.3758 25.0941 28.1541 24.6098 27.9324C23.986 27.6451 23.354 27.3577 22.7302 27.0704C22.6891 27.0539 22.6481 27.0539 22.6152 27.0704V27.0621ZM26.8342 33.1377C25.3896 34.2296 23.9532 35.338 22.525 36.4464C21.3922 37.3331 20.2595 38.228 19.135 39.1311C18.6507 39.5252 18.1747 39.9193 17.7068 40.3134C17.3539 40.6172 17.0009 40.9127 16.6726 41.2329C16.1965 41.6927 15.1623 42.6779 15.1295 43.3594C15.0966 43.9423 15.8025 44.2543 16.254 44.4431C16.6562 44.6073 17.042 44.8043 17.4441 44.9686C17.912 45.1656 18.3881 45.3298 18.8806 45.4283C20.2349 45.7157 21.5318 45.5186 22.8122 45.026C22.9272 45.0014 23.0667 44.9275 23.1652 44.8618C23.4935 44.6648 23.789 44.3774 24.0434 44.0901C25.0202 42.9571 26.0052 41.8323 26.9902 40.7075C26.9902 40.7075 26.9902 40.6993 26.9984 40.691C27.3185 40.1902 27.5319 39.4349 27.5319 38.8355C27.5319 38.0884 27.5073 37.3495 27.4744 36.6106C27.4416 35.806 27.4006 35.0096 27.3431 34.205C27.3267 33.9833 27.2856 33.1705 27.0969 33.0638C27.0804 33.0556 27.064 33.0474 27.0476 33.0474C26.9819 33.0474 26.9081 33.0884 26.8506 33.1213C26.8506 33.1213 26.8506 33.1213 26.8424 33.1213L26.8342 33.1377ZM21.9586 48.5892C21.7616 48.7699 22.0243 49.1393 22.1556 49.2953C22.9846 50.2723 24.027 50.8224 25.3157 50.453C26.1447 50.2149 26.8917 49.5991 27.4826 48.9915C27.9095 48.5482 28.2706 48.0638 28.6318 47.5712C28.7056 47.4727 28.8534 47.3002 28.8698 47.1771C28.8862 47.0457 28.7795 46.7666 28.7385 46.6352C28.5333 45.9784 28.3609 45.0096 28.4101 44.3282C28.4348 44.0408 28.3855 43.7288 28.3199 43.4497C28.287 43.3101 28.2132 43.0802 28.1393 42.9653C28.1147 42.9324 28.09 42.916 28.049 42.9078C28.008 42.9078 27.9751 42.9078 27.9505 42.9406L21.9668 48.581C21.9668 48.581 21.9668 48.581 21.9586 48.581V48.5892ZM60.5202 48.5892C60.7172 48.7699 60.4545 49.1393 60.3232 49.2953C59.4942 50.2723 58.4517 50.8224 57.1631 50.453C56.3341 50.2149 55.5871 49.5991 54.9961 48.9915C54.5693 48.5482 54.2082 48.0638 53.847 47.5712C53.7731 47.4727 53.6254 47.3002 53.609 47.1771C53.5926 47.0457 53.6993 46.7666 53.7403 46.6352C53.9455 45.9784 54.1179 45.0096 54.0686 44.3282C54.044 44.0408 54.0933 43.7288 54.1589 43.4497C54.1917 43.3101 54.2656 43.0802 54.3395 42.9653C54.3641 42.9324 54.3887 42.916 54.4298 42.9078C54.4708 42.9078 54.5037 42.9078 54.5283 42.9406L60.512 48.581C60.512 48.581 60.512 48.581 60.5202 48.581V48.5892ZM55.6446 33.1377C57.0892 34.2296 58.5256 35.338 59.9538 36.4464C61.0865 37.3331 62.2193 38.228 63.3438 39.1311C63.828 39.5252 64.3041 39.9193 64.772 40.3134C65.1249 40.6172 65.4779 40.9127 65.8062 41.2329C66.2823 41.6927 67.3165 42.6779 67.3493 43.3594C67.3821 43.9423 66.6762 44.2543 66.2248 44.4431C65.8226 44.6073 65.4368 44.8043 65.0346 44.9686C64.5668 45.1656 64.0907 45.3298 63.5982 45.4283C62.2439 45.7157 60.947 45.5186 59.6665 45.026C59.5516 45.0014 59.4121 44.9275 59.3136 44.8618C58.9853 44.6648 58.6898 44.3774 58.4353 44.0901C57.4586 42.9571 56.4736 41.8323 55.4886 40.7075C55.4886 40.7075 55.4886 40.6993 55.4804 40.691C55.1603 40.1902 54.9469 39.4349 54.9469 38.8355C54.9469 38.0884 54.9715 37.3495 55.0043 36.6106C55.0372 35.806 55.0782 35.0096 55.1357 34.205C55.1521 33.9833 55.1931 33.1705 55.3819 33.0638C55.3983 33.0556 55.4148 33.0474 55.4312 33.0474C55.4968 33.0474 55.5707 33.0884 55.6282 33.1213C55.6282 33.1213 55.6282 33.1213 55.6364 33.1213L55.6446 33.1377ZM63.8691 17.0375C66.2248 16.824 68.5805 16.6106 70.9362 16.4053C72.6189 16.2575 74.3098 16.118 75.9924 15.9784C76.5834 15.9291 77.1744 15.8881 77.7654 15.847C77.9542 15.8388 78.1347 15.8224 78.3235 15.8142C78.422 15.8142 78.5123 15.806 78.6108 15.8142C79.251 15.8635 79.4891 16.2493 79.3085 16.8487C78.9391 18.0802 78.422 19.1886 77.6915 20.2477C77.2236 20.9373 76.6491 21.5695 76.0253 22.1196C75.8283 22.292 75.1552 22.8339 74.9172 22.8339C74.8515 22.8339 74.794 22.8175 74.7366 22.8093C74.5971 22.7846 74.4657 22.76 74.3262 22.7354C73.8747 22.6533 73.4233 22.5712 72.9718 22.4891C71.6503 22.251 70.3288 22.0047 69.0073 21.7584C67.1441 21.4135 65.2809 21.0687 63.4258 20.7239C63.3602 20.7157 63.3191 20.65 63.3273 20.5843L63.7624 17.136C63.7624 17.0786 63.8198 17.0293 63.8773 17.0293L63.8691 17.0375ZM61.3574 24.9603C61.4969 24.4595 61.8253 23.6549 62.2357 23.3347C62.5476 23.0884 62.9252 23.0474 63.3109 23.0638C63.9101 23.0802 64.5093 23.2116 65.0921 23.3101C65.9293 23.4579 66.7747 23.5892 67.6202 23.7288C68.9909 23.9505 70.3535 24.1722 71.7242 24.3938C73.5464 24.6894 75.3686 24.9768 77.1908 25.2723C77.2401 25.2723 77.2729 25.3134 77.2893 25.3544C77.4042 25.6993 77.4288 26.1672 77.4042 26.5367C77.3221 27.5712 76.805 28.4332 76.0417 29.1229C75.2044 29.87 74.2441 30.4858 73.2181 30.9374C72.7913 31.1262 72.3316 31.3068 71.8802 31.4053C71.8802 31.4053 71.8802 31.4053 71.872 31.4053C71.6093 31.4382 71.2728 31.3807 71.0347 31.274C70.3288 30.9456 69.6476 30.5843 68.9745 30.2066C68.1537 29.7469 67.3411 29.2789 66.5285 28.7945C65.0346 27.8996 63.549 26.98 62.1043 25.9948C61.7924 25.7814 61.3328 25.3955 61.3492 24.985C61.3492 24.9768 61.3492 24.9685 61.3492 24.9603H61.3574ZM59.8553 27.0539L72.3891 34.4431C72.5532 34.5416 72.7256 34.7305 72.8159 34.9029C73.0539 35.338 72.8898 35.7567 72.5943 36.1098C72.0525 36.7337 70.9198 37.3413 70.1811 37.719C69.7132 37.9571 69.229 38.1787 68.7447 38.3676C68.4082 38.4989 68.047 38.6467 67.6858 38.7206C67.3821 38.7781 66.9964 38.8684 66.6927 38.8273C66.4628 38.8027 66.3151 38.7042 66.1345 38.5728C65.7323 38.2773 65.3301 37.9981 64.9279 37.719C64.1071 37.136 63.2863 36.5531 62.4655 35.962C61.5052 35.2723 60.553 34.5663 59.6091 33.8602C58.7965 33.2444 57.9839 32.6286 57.2041 31.98C56.646 31.5121 55.5133 30.5433 55.2752 29.87C55.1439 29.4924 55.308 29.2953 55.5871 29.0736C55.6856 28.9997 55.7923 28.9423 55.899 28.8848C56.0796 28.7863 56.2602 28.696 56.4408 28.6057C56.9086 28.3676 57.3847 28.1459 57.869 27.9242C58.4928 27.6369 59.1248 27.3495 59.7486 27.0621C59.7897 27.0457 59.8307 27.0457 59.8635 27.0621L59.8553 27.0539ZM61.6037 17.3495C61.6037 17.4398 61.6037 17.5383 61.6037 17.6286C61.6037 21.824 58.9442 25.5679 54.9797 26.939C54.9141 26.9636 54.8402 26.9308 54.8238 26.8651L54.0276 24.5991C54.0276 24.5991 54.0194 24.5334 54.0276 24.5006C54.044 24.4677 54.0686 24.4513 54.1015 24.4349C56.9086 23.6385 58.8457 21.0687 58.8457 18.1541C58.8457 17.9571 58.8375 17.7682 58.8211 17.5794C58.8211 17.5465 58.8211 17.5137 58.8539 17.4891C58.8786 17.4644 58.9032 17.448 58.936 17.448L61.4559 17.2263C61.4559 17.2263 61.5216 17.2263 61.5544 17.2592C61.579 17.2838 61.5954 17.3167 61.5954 17.3495H61.6037Z" fill="#D8EFFC"/>
<path fill-rule="evenodd" clip-rule="evenodd" d="M15.0712 16.726C15.0712 16.726 14.0205 19.9361 13.0438 21.8573C11.8618 22.079 10.688 22.2925 9.50607 22.5059C9.05462 22.588 8.60318 22.6701 8.15174 22.7522C8.0122 22.7769 7.88087 22.8015 7.74133 22.8261C7.68387 22.8343 7.61821 22.8508 7.56075 22.8508C7.32272 22.8508 6.64966 22.3089 6.45266 22.1365C5.82064 21.5946 5.25428 20.9542 4.78642 20.2646C4.0559 19.2054 3.547 18.0889 3.16943 16.8655C2.98885 16.258 3.21868 15.8721 3.86712 15.8311C3.96561 15.8311 4.0559 15.8311 4.1544 15.8311C4.34318 15.8393 4.53197 15.8475 4.71255 15.8639C5.30353 15.9049 5.89451 15.946 6.48549 15.9953C8.16815 16.1266 9.85902 16.2744 11.5417 16.4222C12.7236 16.5207 13.8974 16.6274 15.0794 16.7342L15.0712 16.726ZM17.9029 23.2284C17.9276 23.9263 17.7224 25.9953 15.1286 29.2793C14.5869 29.5995 14.0451 29.9115 13.4952 30.2153C12.8221 30.593 12.1327 30.9542 11.435 31.2826C11.1969 31.3976 10.8604 31.4468 10.5977 31.414C10.5977 31.414 10.5977 31.414 10.5895 31.414C10.1381 31.3072 9.67844 31.1266 9.25162 30.946C8.22561 30.4944 7.25705 29.8869 6.42804 29.1315C5.66469 28.4501 5.14758 27.5798 5.0655 26.5453C5.04087 26.1841 5.0655 25.7161 5.18041 25.3631C5.19682 25.3138 5.22966 25.281 5.27891 25.281C7.1011 24.9936 8.9233 24.698 10.7455 24.4025C12.1162 24.1808 13.4788 23.9591 14.8495 23.7375C15.695 23.5979 16.5322 23.4665 17.3776 23.3187C17.5582 23.2859 17.7306 23.2531 17.9111 23.2202L17.9029 23.2284ZM22.6062 27.0708H22.7293C22.7293 27.0708 23.1069 27.6373 24.1247 28.0232C25.1425 28.4091 24.1985 30.8721 23.6978 31.6521C23.3777 32.1529 21.8018 34.1151 20.7265 35.4452C20.4885 35.6176 20.2505 35.79 20.0124 35.9624C19.1916 36.5536 18.3708 37.1365 17.55 37.7194C17.1478 38.0068 16.7374 38.2859 16.3434 38.5733C16.1628 38.7046 16.0069 38.8031 15.7853 38.8278C15.4816 38.8606 15.0958 38.7785 14.7921 38.721C14.4309 38.6471 14.0698 38.5076 13.7332 38.368C13.2407 38.171 12.7647 37.9493 12.2968 37.7194C11.5581 37.3499 10.4172 36.7424 9.88364 36.1102C9.57994 35.7572 9.42399 35.3384 9.65382 34.9033C9.7441 34.7309 9.91647 34.5503 10.0806 34.4435L22.6062 27.0544V27.0708ZM24.3873 35.01C24.3873 35.01 25.4215 35.9706 25.479 36.7999C25.5447 37.6291 25.6267 39.4025 24.6582 40.8557C23.6896 42.3089 23.3777 43.9263 23.4106 44.7063C23.3285 44.7719 23.2464 44.8294 23.1561 44.8787C23.0576 44.9361 22.9181 45.0182 22.8032 45.0429C21.5227 45.5355 20.2258 45.7325 18.8715 45.4452C18.379 45.3384 17.9029 45.1742 17.4351 44.9854C17.0329 44.8212 16.6471 44.6324 16.2449 44.46C15.8017 44.2711 15.0876 43.9673 15.1204 43.3762C15.1532 42.6948 16.1875 41.7095 16.6635 41.2498C17.0001 40.9296 17.3448 40.6258 17.6977 40.3302C18.1656 39.9279 18.6499 39.5338 19.1259 39.148C20.2422 38.2366 21.375 37.3499 22.5159 36.4632C23.1315 35.9788 23.7553 35.5026 24.3791 35.0182L24.3873 35.01ZM25.5939 45.1742L26.4393 49.9115C26.0946 50.1496 25.717 50.3467 25.323 50.4616C24.0344 50.8311 22.992 50.2728 22.1629 49.304C22.0316 49.148 21.7689 48.7785 21.9659 48.5979C21.9659 48.5979 21.9659 48.5979 21.9742 48.5979L25.5939 45.1907V45.1742ZM67.4141 16.726C67.4141 16.726 68.4647 19.9361 69.4415 21.8573C70.6235 22.079 71.7972 22.2925 72.9792 22.5059C73.4306 22.588 73.8821 22.6701 74.3335 22.7522C74.4731 22.7769 74.6044 22.8015 74.7439 22.8261C74.8014 22.8343 74.867 22.8508 74.9245 22.8508C75.1625 22.8508 75.8356 22.3089 76.0326 22.1365C76.6646 21.5946 77.231 20.9542 77.6988 20.2646C78.4294 19.2054 78.9383 18.0889 79.3158 16.8655C79.4964 16.258 79.2666 15.8721 78.6181 15.8311C78.5196 15.8311 78.4294 15.8311 78.3309 15.8311C78.1421 15.8393 77.9533 15.8475 77.7727 15.8639C77.1817 15.9049 76.5907 15.946 75.9998 15.9953C74.3171 16.1266 72.6262 16.2744 70.9436 16.4222C69.7616 16.5207 68.5879 16.6274 67.4059 16.7342L67.4141 16.726ZM64.5823 23.2284C64.5577 23.9263 64.7629 25.9953 67.3567 29.2793C67.8984 29.5995 68.4401 29.9115 68.9901 30.2153C69.6631 30.593 70.3526 30.9542 71.0503 31.2826C71.2883 31.3976 71.6249 31.4468 71.8875 31.414C71.8875 31.414 71.8875 31.414 71.8957 31.414C72.3472 31.3072 72.8068 31.1266 73.2336 30.946C74.2597 30.4944 75.2282 29.8869 76.0572 29.1315C76.8206 28.4501 77.3377 27.5798 77.4198 26.5453C77.4444 26.1841 77.4198 25.7161 77.3048 25.3631C77.2884 25.3138 77.2556 25.281 77.2064 25.281C75.3842 24.9936 73.562 24.698 71.7398 24.4025C70.369 24.1808 69.0065 23.9591 67.6357 23.7375C66.7903 23.5979 65.9531 23.4665 65.1076 23.3187C64.9271 23.2859 64.7547 23.2531 64.5741 23.2202L64.5823 23.2284ZM59.8791 27.0708H59.756C59.756 27.0708 59.3784 27.6373 58.3606 28.0232C57.3428 28.4091 58.2867 30.8721 58.7874 31.6521C59.1075 32.1529 60.6835 34.1151 61.7587 35.4452C61.9968 35.6176 62.2348 35.79 62.4728 35.9624C63.2936 36.5536 64.1145 37.1365 64.9353 37.7194C65.3375 38.0068 65.7479 38.2859 66.1419 38.5733C66.3224 38.7046 66.4784 38.8031 66.7 38.8278C67.0037 38.8606 67.3895 38.7785 67.6932 38.721C68.0461 38.6471 68.4155 38.5076 68.752 38.368C69.2445 38.171 69.7206 37.9493 70.1884 37.7194C70.9272 37.3499 72.0681 36.7424 72.6016 36.1102C72.9053 35.7572 73.0613 35.3384 72.8232 34.9033C72.7329 34.7309 72.5606 34.5503 72.3964 34.4435L59.8709 27.0544L59.8791 27.0708ZM58.0979 35.01C58.0979 35.01 57.0637 35.9706 57.0063 36.7999C56.9406 37.6291 56.8585 39.4025 57.8271 40.8557C58.7956 42.3089 59.1075 43.9263 59.0747 44.7063C59.1568 44.7719 59.2389 44.8294 59.3291 44.8787C59.4276 44.9361 59.5672 45.0182 59.6821 45.0429C60.9626 45.5355 62.2594 45.7325 63.6138 45.4452C64.1062 45.3384 64.5823 45.1742 65.0502 44.9854C65.4524 44.8212 65.8382 44.6324 66.2404 44.46C66.6836 44.2711 67.3977 43.9673 67.3649 43.3762C67.332 42.6948 66.2978 41.7095 65.8217 41.2498C65.4852 40.9296 65.1405 40.6258 64.7875 40.3302C64.3197 39.9279 63.8354 39.5338 63.3593 39.148C62.243 38.2366 61.1103 37.3499 59.9694 36.4632C59.3538 35.9788 58.73 35.5026 58.1061 35.0182L58.0979 35.01ZM56.8913 45.1742L56.0459 49.9115C56.3906 50.1496 56.7682 50.3467 57.1622 50.4616C58.4509 50.8311 59.4933 50.2728 60.3223 49.304C60.4537 49.148 60.7163 48.7785 60.5193 48.5979C60.5193 48.5979 60.5193 48.5979 60.5111 48.5979L56.8913 45.1907V45.1742Z" fill="#B4E0D9"/>
<path d="M45.8452 52.498C45.4758 51.6606 44.9997 50.9053 44.5319 50.1745C44.3759 49.9282 44.2117 49.6655 44.0558 49.411C43.7603 48.9266 43.432 48.4011 43.1119 47.8921C42.7343 47.2928 42.3485 46.677 42.0038 46.1023L41.3553 45.0186L40.7069 46.1023C40.4032 46.6113 40.0995 47.145 39.804 47.6704C39.4757 48.2534 39.1309 48.8527 38.8026 49.4028C38.6467 49.6573 38.4825 49.9118 38.3265 50.1663C37.8587 50.897 37.3826 51.6524 37.0133 52.4898C36.1104 54.5506 36.5536 56.4635 38.3019 58.0153C38.8108 57.4406 38.9011 56.5949 38.4989 55.9463C38.0311 55.191 37.9572 54.3782 38.2609 53.475H44.6057C44.9094 54.3864 44.8356 55.191 44.3677 55.9463C43.9655 56.5949 44.0558 57.4406 44.5647 58.0153C46.313 56.4635 46.7562 54.5506 45.8534 52.4898L45.8452 52.498ZM40.0913 50.1992C40.436 49.6327 40.7808 49.0169 41.1173 48.4258C41.1994 48.278 41.2897 48.1302 41.3717 47.9742C41.5277 48.2205 41.6754 48.4586 41.8314 48.7049C42.1433 49.2057 42.4716 49.723 42.7671 50.1992C42.9313 50.4619 43.0954 50.7328 43.2596 50.9874C43.473 51.3158 43.67 51.6442 43.867 51.9644H38.9996C39.1884 51.6442 39.3936 51.3158 39.607 50.9874C39.7712 50.7328 39.9353 50.4701 40.0995 50.1992H40.0913Z" fill="#D8EFFC"/>
<path d="M47.7332 30.2397C47.1012 30.954 47.0273 31.9885 47.5198 32.8013C48.1436 33.8358 48.1682 34.9524 47.6101 36.225C47.2243 37.1117 46.699 37.9327 46.149 38.803C45.952 39.1149 45.7468 39.4351 45.5498 39.7636C45.1969 40.3465 44.8029 40.9705 44.4171 41.5862C44.2365 41.8818 44.0478 42.1773 43.859 42.4729C43.7523 42.2923 43.6538 42.1117 43.5471 41.931C43.2023 41.3235 42.8576 40.7077 42.4964 40.1166C42.5621 40.0099 42.6278 39.9031 42.6934 39.8046C43.2598 38.9179 43.8426 37.9984 44.2858 36.9803C44.4335 36.6437 44.5485 36.3071 44.6387 35.9787C43.4814 35.9787 42.4226 36.6191 41.8972 37.6453C41.7249 37.9819 41.5525 38.2939 41.413 38.5074C41.2734 38.2857 41.1011 37.9737 40.9287 37.6453C40.3952 36.6191 39.3363 35.9787 38.1872 35.9787C38.2775 36.3071 38.3924 36.6437 38.5401 36.9803C38.9834 37.9984 39.5661 38.9179 40.1325 39.8046C40.1982 39.9031 40.2638 40.0099 40.3295 40.1166C40.034 40.601 39.7139 41.1018 39.402 41.5944C39.2214 41.89 39.0326 42.1856 38.8438 42.4811C38.7371 42.3005 38.6386 42.1199 38.5319 41.9393C38.1215 41.2168 37.7029 40.4696 37.2843 39.78C37.0873 39.4598 36.8821 39.1314 36.6851 38.8194C36.1352 37.9491 35.6098 37.1281 35.2241 36.2414C34.6659 34.9688 34.6905 33.8522 35.3144 32.8177C35.8068 32.0049 35.733 30.9704 35.1009 30.2562C32.9751 32.1445 32.4333 34.4762 33.5332 36.9803C33.9764 37.9984 34.5592 38.9179 35.1256 39.8046C35.3226 40.1084 35.5196 40.4204 35.7083 40.7324C36.1188 41.4056 36.5292 42.1363 36.9314 42.8424C37.2925 43.4746 37.6619 44.1314 38.0312 44.7471L38.8192 46.069L39.6072 44.7471C40.0176 44.0575 40.4937 43.3021 40.9533 42.5714C41.0929 42.3416 41.2406 42.1117 41.3883 41.8818C41.5689 42.202 41.7495 42.5222 41.9301 42.8342C42.2912 43.4663 42.6606 44.1232 43.03 44.7389L43.8179 46.0608L44.6059 44.7389C45.0163 44.0493 45.4924 43.2939 45.952 42.5632C46.3378 41.9475 46.74 41.3153 47.1012 40.7159C47.29 40.4039 47.4869 40.092 47.6839 39.7882C48.2503 38.9015 48.8331 37.9819 49.2763 36.9639C50.3762 34.4598 49.8345 32.1363 47.7086 30.2397H47.7332Z" fill="#D8EFFC"/>
<path d="M124.304 38.0703C122.958 37.4381 121.899 36.5022 121.103 35.2707C120.315 34.0391 119.913 32.5449 119.913 30.7879C119.913 29.5646 120.126 28.2427 120.545 26.8142C121.464 23.7518 122.859 21.5514 124.723 20.1968C126.586 18.8421 128.58 18.1606 130.698 18.1606C131.839 18.1606 132.849 18.3331 133.735 18.6779C134.613 19.0227 135.426 19.5235 136.165 20.1803L136.977 19.54C137.519 19.113 137.97 18.8175 138.348 18.6533C138.717 18.4891 139.136 18.4069 139.596 18.4069C140.096 18.4069 140.499 18.5219 140.794 18.7436C141.098 18.9652 141.245 19.2936 141.245 19.7206C141.245 19.9423 141.204 20.1721 141.122 20.3938L139.44 25.1639C139.259 25.714 139.046 26.0999 138.791 26.3298C138.537 26.5597 138.167 26.6664 137.667 26.6664C137.166 26.6664 136.723 26.4776 136.386 26.0999C136.058 25.7222 135.68 25.0736 135.262 24.1541C134.777 23.1935 134.392 22.5613 134.088 22.2575C133.784 21.9537 133.349 21.7978 132.767 21.7978C131.946 21.7978 131.158 22.315 130.394 23.3413C129.631 24.3675 128.942 25.9193 128.318 27.9718C127.801 29.7042 127.538 31.1491 127.538 32.315C127.538 33.3331 127.727 34.0966 128.113 34.5892C128.49 35.09 129.007 35.3363 129.647 35.3363C130.591 35.3363 131.363 35.1229 131.979 34.6959C132.586 34.269 133.218 33.6861 133.858 32.9554C134.26 32.5038 134.581 32.1754 134.835 31.962C135.081 31.7485 135.352 31.6418 135.631 31.6418C135.992 31.6418 136.37 31.8224 136.772 32.1918C137.174 32.5613 137.363 32.9225 137.347 33.292C137.363 33.7436 137.01 34.4332 136.28 35.3692C135.549 36.3051 134.539 37.1508 133.243 37.8897C131.954 38.6368 130.485 39.0063 128.843 39.0063C127.201 39.0063 125.65 38.6943 124.304 38.0621V38.0703Z" fill="white"/>
<path d="M156.824 24.3341C158.113 25.4589 158.761 26.9203 158.761 28.7347C158.761 29.3505 158.679 30.0319 158.523 30.7873C158.146 32.4621 157.432 33.9235 156.389 35.1797C155.347 36.4359 154.075 37.4047 152.556 38.0861C151.046 38.7676 149.404 39.1124 147.648 39.1124C144.865 39.1124 142.805 38.5459 141.475 37.4129C140.145 36.2799 139.481 34.7774 139.481 32.9055C139.481 32.2733 139.563 31.5672 139.719 30.7955C140.096 29.2027 140.827 27.7905 141.894 26.559C142.961 25.3275 144.274 24.3669 145.825 23.6855C147.377 23.004 149.035 22.6592 150.8 22.6592C153.525 22.6592 155.527 23.2175 156.824 24.3423V24.3341ZM149.371 26.518C148.903 27.2815 148.345 28.7265 147.705 30.8447C147.065 32.963 146.745 34.4572 146.745 35.3111C146.745 35.7626 146.819 36.0582 146.958 36.2142C147.098 36.3702 147.286 36.4441 147.533 36.4441C147.951 36.4851 148.386 36.1157 148.838 35.3439C149.289 34.5722 149.856 33.0615 150.537 30.8201C151.161 28.8414 151.464 27.4047 151.464 26.5098C151.464 26.0828 151.399 25.7873 151.267 25.6231C151.136 25.4589 150.955 25.3767 150.709 25.3767C150.291 25.3767 149.839 25.7626 149.371 26.5262V26.518Z" fill="white"/>
<path d="M170.434 16.9041C170.984 17.3557 171.263 17.9632 171.263 18.735C171.263 19.1865 171.189 19.6217 171.05 20.0486L166.33 35.6479C166.273 35.8942 166.24 36.1077 166.24 36.2883C166.24 36.5511 166.289 36.7645 166.388 36.9123C166.486 37.0601 166.626 37.2161 166.806 37.3557C166.946 37.4952 167.044 37.6184 167.11 37.7087C167.167 37.799 167.184 37.914 167.143 38.0617C167.044 38.3245 166.839 38.5215 166.544 38.6447C166.24 38.7678 165.78 38.8253 165.165 38.8253H158.319C157.802 38.8253 157.416 38.735 157.178 38.5626C156.94 38.3901 156.858 38.1603 156.94 37.8729C157.022 37.6266 157.227 37.4131 157.572 37.2325C157.876 37.0683 158.122 36.8795 158.327 36.6496C158.524 36.4279 158.697 36.0667 158.836 35.5823L163.4 20.3195C163.457 20.1389 163.49 19.9829 163.49 19.8598C163.49 19.6381 163.433 19.4493 163.326 19.3097C163.219 19.1701 163.072 19.0223 162.891 18.8828C162.694 18.7186 162.546 18.579 162.456 18.4558C162.366 18.3327 162.349 18.1685 162.407 17.9632C162.53 17.4952 163.162 17.0847 164.303 16.7399C165.444 16.3951 166.634 16.2227 167.881 16.2227C169.047 16.2227 169.901 16.4443 170.451 16.8959L170.434 16.9041Z" fill="white"/>
<path d="M181.425 16.9041C181.975 17.3557 182.254 17.9632 182.254 18.735C182.254 19.1865 182.181 19.6217 182.041 20.0486L177.321 35.6479C177.264 35.8942 177.231 36.1077 177.231 36.2883C177.231 36.5511 177.28 36.7645 177.379 36.9123C177.477 37.0601 177.617 37.2161 177.797 37.3557C177.937 37.4952 178.035 37.6184 178.101 37.7087C178.159 37.799 178.175 37.914 178.134 38.0617C178.035 38.3245 177.83 38.5215 177.535 38.6447C177.231 38.7678 176.771 38.8253 176.156 38.8253H169.31C168.793 38.8253 168.407 38.735 168.169 38.5626C167.931 38.3901 167.849 38.1603 167.931 37.8729C168.013 37.6266 168.219 37.4131 168.563 37.2325C168.867 37.0683 169.113 36.8795 169.318 36.6496C169.515 36.4279 169.688 36.0667 169.827 35.5823L174.391 20.3195C174.449 20.1389 174.481 19.9829 174.481 19.8598C174.481 19.6381 174.424 19.4493 174.317 19.3097C174.21 19.1701 174.063 19.0223 173.882 18.8828C173.685 18.7186 173.537 18.579 173.447 18.4558C173.357 18.3327 173.34 18.1685 173.398 17.9632C173.521 17.4952 174.153 17.0847 175.294 16.7399C176.435 16.3951 177.625 16.2227 178.873 16.2227C180.038 16.2227 180.892 16.4443 181.442 16.8959L181.425 16.9041Z" fill="white"/>
<path d="M195.987 23.7432C197.128 24.5724 197.702 25.6233 197.702 26.9123C197.702 27.2982 197.661 27.6594 197.579 27.9796C197.276 29.3261 196.438 30.2867 195.068 30.8696C193.697 31.4525 192.08 31.7399 190.217 31.7399C189.273 31.7399 188.394 31.6824 187.574 31.5592C187.557 32.6184 187.836 33.3655 188.411 33.7924C188.994 34.2193 189.806 34.4328 190.84 34.4328C191.325 34.4328 191.784 34.3753 192.219 34.2604C192.663 34.1455 193.221 33.9813 193.902 33.7596C194.46 33.5543 194.846 33.4558 195.043 33.4558C195.265 33.4558 195.371 33.5872 195.371 33.8499C195.388 34.5642 195.133 35.3113 194.592 36.0995C194.05 36.8877 193.245 37.5527 192.187 38.1028C191.128 38.6528 189.847 38.932 188.337 38.932C186.113 38.932 184.29 38.3655 182.87 37.2161C181.45 36.0748 180.736 34.4164 180.736 32.2325C180.736 31.6167 180.818 30.9106 180.974 30.0896C181.475 27.5855 182.575 25.689 184.266 24.4164C185.957 23.1438 188.017 22.5034 190.438 22.5034C192.983 22.5034 194.821 22.9139 195.962 23.7432H195.987ZM188.115 29.753C188.953 29.753 189.601 29.3589 190.036 28.5625C190.479 27.7661 190.685 26.8794 190.668 25.9024C190.652 25.3277 190.488 25.0486 190.184 25.0486C189.962 25.0486 189.7 25.2292 189.404 25.5822C189.109 25.9353 188.805 26.4771 188.518 27.1914C188.23 27.9057 187.984 28.7514 187.779 29.7284C187.861 29.753 187.968 29.7612 188.107 29.7612L188.115 29.753Z" fill="white"/>
<path d="M217.18 18.0776C217.787 18.3567 218.288 18.7262 218.682 19.2106C219.076 19.6868 219.264 20.204 219.264 20.7541C219.264 21.961 218.46 22.5604 216.86 22.5604C216.4 22.5604 216.047 22.5275 215.792 22.4536C215.546 22.3797 215.243 22.2648 214.906 22.1006C214.849 22.2402 214.816 22.4454 214.816 22.7163C214.816 23.0448 214.873 23.4306 214.98 23.8822C215.087 24.3337 215.226 24.7525 215.382 25.1383C215.801 25.7705 216.014 26.5259 216.014 27.4044C216.014 27.7902 215.965 28.2582 215.866 28.8083C215.628 29.8674 215.103 30.8362 214.29 31.7147C213.478 32.5932 212.435 33.2828 211.163 33.7755C209.891 34.2763 208.495 34.5226 206.969 34.5226C205.803 34.5226 204.72 34.4405 203.694 34.2763C203.39 34.539 203.242 34.8674 203.242 35.2533C203.242 35.516 203.365 35.7377 203.603 35.9101C203.841 36.0825 204.244 36.1728 204.802 36.1728H209.308C210.851 36.1728 212.05 36.4438 212.911 36.9856C213.773 37.5275 214.2 38.2993 214.2 39.2927C214.2 39.6622 214.143 40.0398 214.02 40.4257C213.781 41.2221 213.232 41.961 212.378 42.6425C211.524 43.3239 210.326 43.8822 208.791 44.3091C207.248 44.7361 205.376 44.9495 203.177 44.9495C201.215 44.9495 199.549 44.7771 198.186 44.4323C196.824 44.0874 195.806 43.6113 195.133 43.0119C194.46 42.4126 194.123 41.7393 194.123 41.0086C194.123 40.8444 194.164 40.5981 194.246 40.2779C194.427 39.6868 194.829 39.2024 195.461 38.8247C196.093 38.4471 197.127 38.2007 198.572 38.0776C198.088 37.6096 197.85 37.0513 197.85 36.3945C197.85 36.1728 197.882 35.9347 197.94 35.6884C198.26 34.6293 199.204 33.8411 200.763 33.3321C199.261 32.4947 198.506 31.2714 198.506 29.6622C198.506 29.2106 198.564 28.7426 198.687 28.2582C198.925 27.1991 199.458 26.2385 200.279 25.3682C201.1 24.498 202.151 23.8165 203.431 23.3075C204.712 22.7984 206.115 22.5439 207.634 22.5439C210.014 22.5439 211.894 22.8641 213.248 23.4881C212.944 23.0201 212.714 22.5111 212.542 21.9774C212.37 21.4356 212.288 20.9429 212.288 20.4914C212.288 19.7196 212.534 19.0546 213.026 18.5045C213.519 17.9544 214.266 17.6753 215.267 17.6753C215.907 17.6753 216.531 17.8149 217.147 18.0858L217.18 18.0776ZM202.807 39.2599C202.249 39.2599 201.732 39.227 201.272 39.1695C201.034 39.4733 200.911 39.8838 200.911 40.3929C200.928 40.9019 201.133 41.2714 201.527 41.493C201.921 41.7147 202.52 41.8296 203.341 41.8296C204.342 41.8296 205.155 41.6737 205.787 41.3699C206.419 41.0661 206.731 40.6228 206.731 40.0562C206.731 39.8099 206.64 39.6211 206.46 39.4733C206.279 39.3338 206.017 39.2599 205.68 39.2599H202.799H202.807ZM209.267 26.14C209.267 25.4503 208.98 25.0973 208.397 25.0973C207.896 25.0973 207.461 25.3436 207.092 25.8444C206.723 26.3452 206.345 27.2319 205.967 28.5209C205.647 29.5801 205.491 30.3847 205.491 30.9347C205.491 31.608 205.77 31.9446 206.329 31.9446C206.829 31.9446 207.272 31.6901 207.65 31.181C208.028 30.672 208.413 29.7853 208.791 28.5209C209.111 27.4783 209.275 26.6901 209.275 26.1318L209.267 26.14Z" fill="white"/>
<path d="M231.88 23.7432C233.021 24.5724 233.596 25.6233 233.596 26.9123C233.596 27.2982 233.555 27.6594 233.473 27.9796C233.169 29.3261 232.332 30.2867 230.961 30.8696C229.59 31.4525 227.973 31.7399 226.11 31.7399C225.166 31.7399 224.288 31.6824 223.467 31.5592C223.451 32.6184 223.73 33.3655 224.313 33.7924C224.895 34.2193 225.708 34.4328 226.742 34.4328C227.226 34.4328 227.686 34.3753 228.121 34.2604C228.564 34.1455 229.122 33.9813 229.804 33.7596C230.362 33.5543 230.748 33.4558 230.945 33.4558C231.166 33.4558 231.273 33.5872 231.273 33.8499C231.289 34.5642 231.035 35.3113 230.493 36.0995C229.951 36.8877 229.155 37.5527 228.088 38.1028C227.029 38.6528 225.749 38.932 224.247 38.932C222.022 38.932 220.2 38.3655 218.78 37.2161C217.36 36.0748 216.646 34.4164 216.646 32.2325C216.646 31.6167 216.728 30.9106 216.884 30.0896C217.385 27.5855 218.485 25.689 220.176 24.4164C221.867 23.1438 223.927 22.5034 226.348 22.5034C228.893 22.5034 230.731 22.9139 231.872 23.7432H231.88ZM224.009 29.753C224.846 29.753 225.494 29.3589 225.93 28.5625C226.373 27.7661 226.578 26.8794 226.562 25.9024C226.537 25.3277 226.381 25.0486 226.077 25.0486C225.856 25.0486 225.593 25.2292 225.298 25.5822C224.994 25.9353 224.698 26.4771 224.411 27.1914C224.124 27.9057 223.877 28.7514 223.672 29.7284C223.754 29.753 223.861 29.7612 224.001 29.7612L224.009 29.753Z" fill="white"/>
<path d="M109.251 55.3606C109.481 55.492 109.596 55.6808 109.596 55.9271C109.596 56.0256 109.563 56.1652 109.506 56.3212C109.448 56.5018 109.358 56.6414 109.251 56.7317C109.144 56.822 108.972 56.937 108.759 57.0848C108.438 57.2654 108.184 57.4706 107.995 57.7005C107.806 57.9222 107.642 58.2752 107.503 58.7432L103.834 71.8959C103.752 72.1586 103.711 72.4132 103.711 72.6595C103.711 72.8811 103.743 73.07 103.817 73.226C103.883 73.382 103.982 73.5544 104.105 73.7596C104.187 73.8581 104.252 73.9649 104.318 74.0798C104.375 74.1948 104.408 74.3097 104.408 74.4329C104.408 74.4739 104.392 74.5724 104.351 74.7366C104.269 74.9994 104.088 75.1964 103.793 75.3196C103.505 75.4427 103.087 75.5002 102.545 75.5002H95.4861C95.0675 75.5002 94.7392 75.4263 94.5094 75.2867C94.2795 75.1471 94.1646 74.9501 94.1646 74.7038C94.1646 74.5806 94.1975 74.4493 94.2549 74.3097C94.3124 74.1701 94.4027 74.0388 94.5094 73.9238C94.6161 73.8089 94.7228 73.7268 94.8131 73.6775C94.9034 73.6283 94.969 73.579 95.0101 73.538C95.3302 73.3573 95.5928 73.1521 95.7898 72.9304C95.9868 72.7087 96.1592 72.3557 96.2987 71.8877L98.5806 63.6283L90.7993 73.4476C90.1591 74.244 89.642 74.7859 89.2562 75.0815C88.8622 75.377 88.419 75.5248 87.9183 75.5248C87.4176 75.5248 87.0646 75.3688 86.7938 75.0486C86.5229 74.7366 86.2767 74.1948 86.055 73.4394L83.2315 63.9895L81.0071 71.9123C80.925 72.1751 80.8839 72.4296 80.8839 72.6759C80.8839 72.9222 80.9168 73.1274 80.9907 73.2916C81.0645 73.4559 81.163 73.6283 81.3026 73.8089C81.4831 74.0716 81.5734 74.2851 81.5734 74.4493C81.5734 74.4903 81.557 74.5889 81.516 74.7531C81.4339 75.0404 81.2533 75.2375 80.9742 75.3524C80.6952 75.4673 80.2766 75.5248 79.7102 75.5248H77.2149C76.7963 75.5248 76.468 75.4509 76.2382 75.3114C76.0084 75.1718 75.8934 74.9747 75.8934 74.7284C75.8934 74.6053 75.9263 74.4739 75.9837 74.3343C76.0658 74.1127 76.1971 73.9403 76.3777 73.8171C76.5583 73.694 76.665 73.6201 76.706 73.6036C77.0262 73.3984 77.2888 73.1931 77.4858 72.9797C77.6828 72.7662 77.8552 72.4132 77.9947 71.9205L81.6637 58.7104L81.1794 57.093C81.0809 56.7892 81.0317 56.4936 81.0317 56.2063C81.0317 55.8368 81.1466 55.5741 81.3764 55.4099C81.6063 55.2457 81.9592 55.1636 82.4435 55.1636H87.0975C87.6967 55.1636 88.1399 55.2949 88.4354 55.5577C88.7227 55.8204 88.9607 56.2802 89.1413 56.937L92.1454 67.093L100.288 56.7892C100.805 56.1406 101.322 55.7054 101.823 55.492C102.323 55.2785 102.988 55.1718 103.809 55.1718H108.283C108.701 55.1718 109.029 55.2375 109.259 55.3688L109.251 55.3606Z" fill="white"/>
<path d="M123.361 60.6553C124.74 61.5256 125.438 62.8392 125.438 64.6126C125.438 65.2858 125.315 66.0494 125.077 66.9032L123.845 71.1233C123.829 71.2054 123.812 71.3039 123.812 71.4271C123.812 71.7555 123.944 71.9197 124.206 71.9197C124.445 71.9197 124.65 71.8129 124.822 71.5995C124.994 71.386 125.109 71.2793 125.167 71.2793C125.265 71.2793 125.356 71.3532 125.421 71.4927C125.495 71.6323 125.528 71.7965 125.528 71.9853C125.544 72.5354 125.339 73.0937 124.912 73.6684C124.486 74.2432 123.903 74.7111 123.189 75.0724C122.466 75.4418 121.678 75.6225 120.817 75.6225C119.774 75.6225 118.879 75.4254 118.141 75.0395C117.402 74.6537 116.893 74.0789 116.606 73.3236C116.007 74.0543 115.292 74.6208 114.472 75.0231C113.651 75.4172 112.773 75.6225 111.829 75.6225C110.77 75.6225 109.875 75.4172 109.153 74.9985C108.431 74.5798 107.897 74.0379 107.544 73.3811C107.191 72.7161 107.019 72.0182 107.019 71.2875C107.019 70.9591 107.052 70.6471 107.109 70.3433C107.429 68.9394 108.127 67.8803 109.194 67.166C110.261 66.4517 111.541 66.0987 113.027 66.0987C114.685 66.0987 116.319 66.3614 117.927 66.895L118.682 64.8753C118.945 64.0215 119.076 63.3564 119.076 62.8885C119.06 62.3959 118.896 62.0346 118.592 61.7883C118.288 61.542 117.829 61.4188 117.213 61.4188C117.336 61.7473 117.394 62.0839 117.394 62.4287C117.394 63.184 117.115 63.8326 116.557 64.3827C115.998 64.9328 115.194 65.212 114.152 65.212C113.167 65.212 112.403 64.9903 111.853 64.5551C111.303 64.12 111.024 63.5699 111.024 62.9213C111.024 61.9032 111.582 61.0576 112.707 60.3844C113.831 59.7111 115.539 59.3745 117.845 59.3745C120.152 59.3745 121.99 59.8097 123.369 60.6717L123.361 60.6553ZM114.784 69.276C114.431 69.7111 114.258 70.1873 114.258 70.6964C114.258 71.0248 114.332 71.2875 114.48 71.4927C114.628 71.698 114.841 71.7965 115.128 71.7965C115.391 71.7965 115.67 71.6898 115.982 71.4763C116.294 71.2629 116.515 70.9427 116.655 70.5157L117.287 68.7095C116.942 68.652 116.565 68.6192 116.146 68.6192C115.588 68.6192 115.128 68.8408 114.775 69.276H114.784Z" fill="white"/>
<path d="M140.952 59.5403C142.167 59.8441 143.094 60.271 143.743 60.8211C144.391 61.3712 144.72 61.9952 144.72 62.6848C144.72 63.3745 144.44 63.982 143.89 64.4254C143.341 64.877 142.577 65.0986 141.592 65.0986C140.607 65.0986 139.745 64.8441 139.056 64.3351C138.366 63.8261 138.022 63.1857 138.022 62.4057C138.022 62.143 138.063 61.8885 138.145 61.6421C137.784 61.5436 137.464 61.4861 137.184 61.4861C136.684 61.4861 136.265 61.6093 135.937 61.8556C135.609 62.1019 135.453 62.4467 135.469 62.8983C135.469 63.432 135.732 63.8753 136.249 64.2448C136.766 64.6142 137.611 65.074 138.769 65.6241C139.77 66.0756 140.599 66.4862 141.247 66.8638C141.896 67.2415 142.446 67.7177 142.897 68.2842C143.349 68.8589 143.57 69.5321 143.57 70.3039C143.57 70.4681 143.529 70.7719 143.447 71.2234C143.127 72.5863 142.232 73.6701 140.771 74.4664C139.31 75.2628 137.39 75.6569 135.001 75.6569C132.317 75.6569 130.191 75.2875 128.615 74.5568C127.039 73.8261 126.26 72.8162 126.26 71.5272C126.26 70.6487 126.522 69.9919 127.039 69.5403C127.556 69.0888 128.254 68.8671 129.116 68.8671C130.117 68.8671 130.971 69.1873 131.685 69.8113C132.399 70.4435 132.752 71.2481 132.752 72.2251C132.752 72.4878 132.719 72.7669 132.662 73.0543C133.146 73.1775 133.606 73.2349 134.041 73.2349C134.558 73.2349 134.993 73.0953 135.329 72.808C135.666 72.5206 135.838 72.1265 135.838 71.6175C135.822 71.1495 135.584 70.7472 135.149 70.4106C134.706 70.074 134.008 69.6717 133.048 69.2037C132.145 68.7768 131.406 68.3745 130.823 67.9968C130.24 67.6192 129.748 67.143 129.338 66.5765C128.927 66.01 128.722 65.3367 128.722 64.5568C128.722 62.8819 129.411 61.5518 130.782 60.5666C132.153 59.5814 134.098 59.0806 136.626 59.0806C138.284 59.0806 139.729 59.2366 140.936 59.5403H140.952Z" fill="white"/>
<path d="M158.885 59.9989C159.098 60.1631 159.197 60.3848 159.197 60.6722C159.197 60.7543 159.18 60.8938 159.139 61.0991C158.876 61.994 158.277 62.4456 157.333 62.4456H155.593L153.344 69.9989C153.246 70.3027 153.196 70.6229 153.196 70.9431C153.196 71.3126 153.295 71.5671 153.5 71.7066C153.697 71.8462 153.984 71.9201 154.337 71.9201C154.658 71.9201 155.06 71.8791 155.536 71.797C155.774 71.7395 155.987 71.7066 156.168 71.7066C156.307 71.7066 156.414 71.7559 156.48 71.8462C156.545 71.9365 156.586 72.0515 156.586 72.1993C156.603 72.6098 156.307 73.1024 155.7 73.6853C155.093 74.2682 154.264 74.7691 153.221 75.1878C152.179 75.6065 151.03 75.8117 149.766 75.8117C148.403 75.8117 147.311 75.4998 146.49 74.8676C145.67 74.2354 145.259 73.3651 145.259 72.2649C145.259 71.7559 145.341 71.2633 145.497 70.7953L147.418 64.7362C147.516 64.3914 147.566 64.1122 147.566 63.907C147.566 63.4965 147.467 63.1516 147.278 62.8643C147.09 62.5769 146.819 62.2814 146.482 61.9776C146.179 61.6902 145.973 61.4521 145.85 61.2551C145.727 61.058 145.703 60.8282 145.76 60.5654C145.842 60.3027 146.014 60.0975 146.269 59.9497C146.532 59.8101 146.942 59.7362 147.5 59.7362H149.183L151.079 57.8068C151.744 57.1336 152.343 56.6656 152.893 56.4029C153.443 56.1401 154.157 56.0088 155.043 56.0088C156.307 56.0088 156.939 56.5014 156.939 57.4784C156.939 57.7822 156.898 58.0695 156.816 58.3323L156.398 59.7362H157.99C158.368 59.7362 158.663 59.8183 158.876 59.9825L158.885 59.9989Z" fill="white"/>
<path d="M173.201 60.4419C174.342 61.2711 174.917 62.322 174.917 63.611C174.917 63.9969 174.876 64.3581 174.794 64.6783C174.49 66.0248 173.661 66.9854 172.282 67.5683C170.911 68.1512 169.294 68.4386 167.431 68.4386C166.487 68.4386 165.609 68.3811 164.788 68.258C164.772 69.3171 165.051 70.0642 165.625 70.4911C166.208 70.9181 167.021 71.1315 168.055 71.1315C168.539 71.1315 168.999 71.0741 169.434 70.9591C169.877 70.8442 170.435 70.68 171.117 70.4583C171.675 70.2531 172.061 70.1545 172.258 70.1545C172.479 70.1545 172.586 70.2859 172.586 70.5486C172.602 71.2629 172.348 72.01 171.806 72.7982C171.264 73.5864 170.46 74.2514 169.401 74.8015C168.342 75.3516 167.062 75.6307 165.552 75.6307C163.327 75.6307 161.505 75.0642 160.085 73.9148C158.665 72.7736 157.951 71.1151 157.951 68.9312C157.951 68.3154 158.033 67.6094 158.189 66.7884C158.69 64.2842 159.789 62.3877 161.48 61.1151C163.171 59.8425 165.231 59.2021 167.653 59.2021C170.197 59.2021 172.036 59.6127 173.177 60.4419H173.201ZM165.33 66.4517C166.167 66.4517 166.816 66.0576 167.251 65.2613C167.694 64.4649 167.899 63.5782 167.883 62.6012C167.866 62.0265 167.702 61.7473 167.398 61.7473C167.177 61.7473 166.914 61.9279 166.619 62.281C166.323 62.634 166.019 63.1759 165.732 63.8902C165.445 64.6044 165.199 65.4501 164.993 66.4271C165.075 66.4517 165.182 66.4599 165.322 66.4599L165.33 66.4517Z" fill="white"/>
<path d="M191.75 60.3931C192.423 61.0828 192.76 61.9448 192.76 62.9629C192.76 63.3488 192.719 63.71 192.637 64.0302C192.44 64.8676 192.054 65.508 191.496 65.9596C190.938 66.4112 190.265 66.6328 189.485 66.6328C188.705 66.6328 188.147 66.4522 187.761 66.0828C187.367 65.7133 187.022 65.2289 186.727 64.6131C186.563 64.2683 186.415 64.0138 186.276 63.8496C186.136 63.6854 185.972 63.6033 185.791 63.6033C185.594 63.6033 185.414 63.6854 185.266 63.8496C185.118 64.0138 184.979 64.3011 184.864 64.7034L182.549 72.3471C182.508 72.4456 182.492 72.6016 182.492 72.8069C182.492 73.0696 182.565 73.2913 182.713 73.4637C182.861 73.6361 183.066 73.8085 183.329 73.9645C183.567 74.1287 183.731 74.2601 183.813 74.3586C183.895 74.4571 183.92 74.5967 183.903 74.7527C183.862 75.0154 183.715 75.2125 183.468 75.3356C183.222 75.4588 182.795 75.5163 182.188 75.5163H174.497C173.98 75.5163 173.602 75.4259 173.372 75.2535C173.143 75.0811 173.06 74.8512 173.118 74.5639C173.2 74.3176 173.405 74.1041 173.75 73.9235C174.054 73.7593 174.3 73.5704 174.505 73.3406C174.702 73.1189 174.874 72.7576 175.014 72.2732L177.69 63.4309C177.731 63.3323 177.747 63.1846 177.747 63.0039C177.747 62.7823 177.706 62.6099 177.616 62.4867C177.526 62.3635 177.378 62.2076 177.181 62.0269C176.984 61.8627 176.836 61.7231 176.762 61.6C176.68 61.4768 176.672 61.3126 176.73 61.1074C176.853 60.6394 177.485 60.2289 178.626 59.8676C179.767 59.5146 180.957 59.334 182.204 59.334C183.025 59.334 183.706 59.5228 184.248 59.9005C184.79 60.2782 185.143 60.8118 185.299 61.5097C186.259 60.0647 187.523 59.3422 189.083 59.3422C190.207 59.3422 191.102 59.687 191.775 60.3849L191.75 60.3931Z" fill="white"/>
<path d="M220.273 71.3125C220.231 71.3946 220.215 71.5178 220.215 71.682C220.215 71.8215 220.248 71.9365 220.322 72.0186C220.396 72.1007 220.486 72.1417 220.609 72.1417C220.847 72.1417 221.052 72.035 221.225 71.8215C221.397 71.6081 221.512 71.5013 221.569 71.5013C221.668 71.5013 221.75 71.567 221.807 71.6984C221.865 71.8298 221.898 71.9858 221.898 72.1746C221.914 72.7657 221.725 73.3404 221.323 73.8987C220.921 74.457 220.338 74.9168 219.567 75.278C218.795 75.6311 217.868 75.8117 216.792 75.8117C215.471 75.8117 214.42 75.4997 213.64 74.8757C212.861 74.2518 212.458 73.4225 212.442 72.3798C212.442 71.6245 212.623 70.7789 212.984 69.8429L214.634 65.4422C214.732 65.1795 214.781 64.966 214.781 64.8018C214.781 64.5391 214.699 64.3256 214.527 64.1779C214.354 64.0219 214.149 63.948 213.911 63.948C213.567 63.948 213.222 64.104 212.861 64.4077C212.499 64.7115 212.179 65.1959 211.9 65.8445L210.25 71.3207C210.209 71.4028 210.193 71.526 210.193 71.6902C210.193 71.8298 210.226 71.9447 210.3 72.0268C210.365 72.1089 210.464 72.15 210.587 72.15C210.825 72.15 211.03 72.0432 211.203 71.8298C211.375 71.6163 211.49 71.5096 211.547 71.5096C211.646 71.5096 211.728 71.5752 211.785 71.7066C211.843 71.838 211.876 71.994 211.876 72.1828C211.892 72.7739 211.703 73.3486 211.301 73.9069C210.899 74.4652 210.316 74.925 209.545 75.2862C208.773 75.6393 207.845 75.8199 206.762 75.8199C205.44 75.8199 204.39 75.5079 203.61 74.8839C202.83 74.26 202.428 73.4307 202.412 72.388C202.412 71.6327 202.592 70.7871 202.953 69.8511L204.603 65.4504C204.702 65.1877 204.751 64.9743 204.751 64.8101C204.751 64.5473 204.669 64.3339 204.497 64.1861C204.324 64.0301 204.119 63.9562 203.881 63.9562C203.536 63.9562 203.191 64.104 202.83 64.3995C202.469 64.6951 202.174 65.1713 201.927 65.8199L199.941 72.3634C199.859 72.5851 199.818 72.7986 199.818 73.0038C199.818 73.2501 199.867 73.4472 199.966 73.6032C200.064 73.7591 200.204 73.9151 200.384 74.0793C200.524 74.2025 200.622 74.3174 200.688 74.416C200.745 74.5145 200.754 74.6376 200.721 74.7854C200.639 75.0481 200.45 75.2452 200.146 75.3683C199.843 75.4915 199.375 75.549 198.734 75.549H191.889C191.372 75.549 190.994 75.4587 190.764 75.2862C190.535 75.1138 190.453 74.8839 190.51 74.5966C190.592 74.3503 190.797 74.1368 191.142 73.9562C191.446 73.792 191.692 73.6032 191.897 73.3733C192.094 73.1516 192.267 72.7903 192.406 72.3059L195.082 63.4636C195.123 63.3651 195.139 63.2173 195.139 63.0367C195.139 62.815 195.098 62.6426 195.008 62.5194C194.918 62.3963 194.77 62.2403 194.573 62.0596C194.376 61.8954 194.228 61.7559 194.154 61.6327C194.072 61.5096 194.064 61.3454 194.122 61.1401C194.245 60.6721 194.877 60.2616 196.018 59.9004C197.159 59.5473 198.349 59.3667 199.588 59.3667C200.573 59.3667 201.345 59.6458 201.919 60.1959C202.494 60.746 202.765 61.5013 202.748 62.4619C203.569 61.2961 204.431 60.4915 205.35 60.0481C206.261 59.5966 207.246 59.3749 208.305 59.3749C209.471 59.3749 210.415 59.7197 211.145 60.4012C211.876 61.0826 212.278 61.9775 212.36 63.0777C213.222 61.6902 214.141 60.7296 215.126 60.1877C216.111 59.6458 217.178 59.3749 218.344 59.3749C219.567 59.3749 220.552 59.7526 221.307 60.5079C222.062 61.2633 222.431 62.2403 222.431 63.4472C222.431 64.0793 222.333 64.7033 222.128 65.3109L220.297 71.3371L220.273 71.3125Z" fill="white"/>
<path d="M233.645 60.0245C234.186 60.476 234.457 61.0836 234.457 61.8635C234.457 62.3315 234.391 62.7831 234.244 63.21L231.478 72.3561C231.42 72.6025 231.387 72.8159 231.387 72.9965C231.387 73.2593 231.437 73.4727 231.535 73.6205C231.634 73.7683 231.773 73.9243 231.954 74.0639C232.093 74.2034 232.192 74.3266 232.257 74.4169C232.315 74.5072 232.323 74.6222 232.29 74.7699C232.192 75.0327 231.987 75.2297 231.691 75.3529C231.387 75.476 230.928 75.5335 230.312 75.5335H223.467C222.949 75.5335 222.564 75.4432 222.326 75.2708C222.088 75.0983 222.005 74.8685 222.088 74.5811C222.17 74.3348 222.375 74.1213 222.72 73.9407C223.023 73.7765 223.27 73.5877 223.475 73.3578C223.672 73.1361 223.844 72.7749 223.984 72.2905L226.594 63.4481C226.651 63.2675 226.684 63.1115 226.684 62.9883C226.684 62.7667 226.635 62.586 226.536 62.4547C226.438 62.3233 226.282 62.1837 226.085 62.0442C225.888 61.88 225.74 61.7404 225.666 61.6172C225.592 61.4941 225.576 61.3299 225.633 61.1246C225.757 60.6566 226.389 60.2461 227.53 59.8849C228.67 59.5318 229.861 59.3512 231.108 59.3512C232.274 59.3512 233.119 59.5729 233.661 60.0245H233.645ZM235.056 53.3742C235.573 53.8915 235.836 54.5318 235.836 55.2872C235.836 55.8208 235.705 56.3381 235.434 56.8471C235.163 57.3561 234.785 57.7667 234.293 58.0869C233.8 58.407 233.259 58.563 232.66 58.563C231.896 58.563 231.264 58.3003 230.755 57.7831C230.246 57.2658 229.976 56.6172 229.959 55.8373C229.959 55.3282 230.09 54.8274 230.353 54.3266C230.616 53.8258 230.985 53.4153 231.461 53.0869C231.937 52.7584 232.495 52.5942 233.111 52.5942C233.891 52.5942 234.539 52.857 235.065 53.3742H235.056Z" fill="white"/>
<path d="M252.778 71.3128C252.737 71.3949 252.72 71.5181 252.72 71.6823C252.72 71.8218 252.753 71.9368 252.827 72.0189C252.901 72.101 252.991 72.1421 253.114 72.1421C253.352 72.1421 253.557 72.0353 253.73 71.8219C253.902 71.6084 254.017 71.5017 254.074 71.5017C254.173 71.5017 254.255 71.5673 254.312 71.6987C254.37 71.8301 254.403 71.9861 254.403 72.1749C254.419 72.766 254.23 73.3407 253.828 73.899C253.426 74.4573 252.843 74.9171 252.072 75.2783C251.3 75.6314 250.373 75.812 249.289 75.812C247.968 75.812 246.917 75.5 246.137 74.876C245.357 74.2521 244.955 73.4228 244.939 72.3801C244.939 71.6248 245.119 70.7792 245.481 69.8432L247.13 65.4425C247.229 65.1798 247.278 64.9663 247.278 64.8021C247.278 64.5394 247.196 64.326 247.024 64.1782C246.851 64.0222 246.646 63.9483 246.408 63.9483C245.965 63.9483 245.546 64.1535 245.144 64.5723C244.742 64.991 244.455 65.5082 244.274 66.1158L242.411 72.3555C242.329 72.5772 242.288 72.7907 242.288 72.9959C242.288 73.2422 242.337 73.4393 242.435 73.5952C242.534 73.7512 242.673 73.9072 242.854 74.0714C242.994 74.1946 243.092 74.3095 243.158 74.4081C243.215 74.5066 243.223 74.6297 243.191 74.7775C243.108 75.0402 242.92 75.2373 242.616 75.3604C242.312 75.4836 241.844 75.5411 241.204 75.5411H234.359C233.842 75.5411 233.464 75.4508 233.234 75.2783C233.004 75.1059 232.922 74.876 232.98 74.5887C233.062 74.3424 233.267 74.1289 233.612 73.9483C233.915 73.7841 234.162 73.5953 234.367 73.3654C234.564 73.1437 234.736 72.7824 234.876 72.298L237.552 63.4557C237.593 63.3572 237.609 63.2094 237.609 63.0287C237.609 62.8071 237.56 62.6347 237.469 62.5115C237.379 62.3884 237.231 62.2324 237.034 62.0517C236.837 61.8875 236.69 61.748 236.616 61.6248C236.534 61.5017 236.526 61.3374 236.583 61.1322C236.706 60.6642 237.338 60.2537 238.479 59.8925C239.62 59.5394 240.81 59.3588 242.058 59.3588C243.059 59.3588 243.847 59.6379 244.43 60.1962C245.013 60.7545 245.275 61.5345 245.21 62.5361C246.031 61.3374 246.901 60.5 247.82 60.0402C248.739 59.5805 249.741 59.3506 250.824 59.3506C252.047 59.3506 253.032 59.7283 253.787 60.4836C254.542 61.2389 254.912 62.2159 254.912 63.4228C254.912 64.055 254.813 64.679 254.608 65.2865L252.778 71.3128Z" fill="white"/>
<path d="M272.428 71.4597C272.428 71.5992 272.469 71.7142 272.551 71.7963C272.633 71.8784 272.732 71.9194 272.855 71.9194C273.093 71.9194 273.298 71.8127 273.471 71.5992C273.643 71.3858 273.758 71.279 273.815 71.279C273.914 71.279 273.996 71.3529 274.053 71.4925C274.111 71.6321 274.144 71.7963 274.144 71.9851C274.16 72.5352 273.955 73.0935 273.528 73.6682C273.093 74.2429 272.518 74.7109 271.804 75.0722C271.082 75.4416 270.302 75.6222 269.457 75.6222C268.455 75.6222 267.585 75.4252 266.847 75.0393C266.108 74.6534 265.591 74.1444 265.312 73.5122C264.77 74.2265 264.146 74.7602 263.448 75.105C262.751 75.4498 262.004 75.6222 261.224 75.6222C260.305 75.6222 259.443 75.3841 258.655 74.9162C257.867 74.4482 257.235 73.7831 256.759 72.9129C256.291 72.0426 256.053 71.0656 256.053 69.9654C256.053 68.1099 256.398 66.3611 257.087 64.7191C257.777 63.0771 258.745 61.7552 259.985 60.7454C261.224 59.7355 262.636 59.2347 264.22 59.2347C265.082 59.2347 265.821 59.3332 266.428 59.5385C267.035 59.7437 267.594 60.0475 268.094 60.458L269.112 57.0344C269.169 56.8538 269.202 56.6978 269.202 56.5746C269.202 56.3529 269.145 56.1641 269.038 56.0245C268.931 55.885 268.784 55.7372 268.603 55.5976C268.406 55.4334 268.258 55.2938 268.168 55.1707C268.078 55.0475 268.061 54.8833 268.127 54.6781C268.25 54.2101 268.882 53.7996 270.023 53.4547C271.164 53.1099 272.354 52.9375 273.602 52.9375C274.767 52.9375 275.621 53.1592 276.171 53.6107C276.721 54.0623 277 54.6698 277 55.4416C277 55.8932 276.934 56.3283 276.787 56.7552L272.494 71.1313C272.453 71.2955 272.436 71.4022 272.436 71.4679L272.428 71.4597ZM266.42 62.1001C265.837 62.1001 265.271 62.5352 264.704 63.4137C264.146 64.2922 263.695 65.3513 263.35 66.591C263.005 67.839 262.849 68.9556 262.866 69.9572C262.866 71.082 263.227 71.6403 263.949 71.6403C264.212 71.6403 264.425 71.5336 264.606 71.3201C264.786 71.1066 264.959 70.7536 265.115 70.261L267.462 62.527C267.142 62.2396 266.789 62.1001 266.412 62.1001H266.42Z" fill="white"/>
</svg>
