<svg width="1440" height="592" viewBox="0 0 1440 592" fill="none" xmlns="http://www.w3.org/2000/svg">
<mask id="mask0_1_4965" style="mask-type:alpha" maskUnits="userSpaceOnUse" x="0" y="0" width="1440" height="592">
<rect width="1440" height="592" fill="#447EF7"/>
</mask>
<g mask="url(#mask0_1_4965)">
<path fill-rule="evenodd" clip-rule="evenodd" d="M1711.68 270.769L1623.74 247.105C1535.79 223.441 1359.9 176.113 1171.6 214.843C983.301 253.574 782.59 378.362 589.635 449.364C396.68 520.366 211.483 537.582 35.5932 490.254C-140.296 442.926 -306.878 331.054 -390.168 275.118L-473.459 219.182L-520 541.9L-430.504 554.807C-341.008 567.714 -162.015 593.527 16.9768 619.341C195.969 645.154 374.961 670.968 553.954 696.781C732.946 722.595 911.938 748.408 1090.93 774.221C1269.92 800.035 1448.91 825.848 1538.41 838.755L1627.91 851.662L1711.68 270.769Z" fill="#4B66EA"/>
</g>
</svg>
