<svg width="329" height="374" viewBox="0 0 329 374" fill="none" xmlns="http://www.w3.org/2000/svg">
<mask id="mask0_1_5250" style="mask-type:alpha" maskUnits="userSpaceOnUse" x="0" y="0" width="305" height="374">
<rect width="305" height="374" rx="8.00174" fill="white"/>
</mask>
<g mask="url(#mask0_1_5250)">
<g opacity="0.2">
<path fill-rule="evenodd" clip-rule="evenodd" d="M249.499 0.160767L252.448 1.19836L252.645 1.26992C275.082 10.4115 322.076 31.9684 337.015 50.0011L339.82 53.3822L338.561 57.5862C337.195 62.1481 335.523 66.7636 333.833 71.2181C329.536 82.6495 324.664 93.9199 319.343 104.922C302.749 139.324 281.428 172.24 255.612 200.506C253.688 202.599 251.657 204.71 249.499 206.749C247.342 204.71 245.311 202.617 243.387 200.506C217.571 172.24 196.249 139.324 179.656 104.922C174.352 93.9199 169.462 82.6495 165.166 71.2181C163.494 66.7636 161.822 62.1481 160.438 57.5862L159.179 53.3822L161.984 50.0011C176.941 31.9863 223.935 10.4294 246.371 1.26992L246.569 1.19836L249.517 0.160767H249.499Z" fill="#28245F"/>
<path d="M249.5 206.964L249.392 206.857C247.361 204.943 245.311 202.85 243.262 200.613C230.695 186.856 218.794 171.543 207.917 155.102C197.526 139.413 187.98 122.543 179.495 104.994C174.011 93.616 169.121 82.2741 165.005 71.272C163.369 66.9069 161.661 62.2378 160.276 57.6222L159 53.3466L161.858 49.894C168.42 41.9689 181.688 32.6305 201.284 22.1473C220.376 11.9681 239.127 4.06093 246.318 1.12704L246.516 1.05548L249.518 0L252.52 1.05548L252.718 1.14493C259.891 4.07882 278.642 11.986 297.716 22.183C317.312 32.6663 330.58 42.0047 337.142 49.9297L340 53.3824L338.724 57.658C337.339 62.2556 335.631 66.9427 333.995 71.3078C329.879 82.2919 325.007 93.6339 319.505 105.03C311.038 122.579 301.474 139.449 291.083 155.138C280.206 171.579 268.323 186.892 255.738 200.649C253.707 202.885 251.639 204.978 249.608 206.893L249.5 207V206.964ZM159.378 53.4361L160.618 57.5507C162.002 62.1483 163.692 66.8175 165.328 71.1646C169.445 82.1488 174.317 93.4729 179.8 104.851C197.311 141.131 218.74 173.278 243.495 200.399C245.491 202.581 247.504 204.639 249.482 206.517C251.46 204.639 253.473 202.581 255.469 200.399C280.242 173.278 301.671 141.149 319.164 104.851C324.647 93.4729 329.519 82.1309 333.636 71.1646C335.272 66.7996 336.98 62.1304 338.346 57.5507L339.587 53.4361L336.836 50.1265C330.292 42.2372 317.06 32.9347 297.501 22.4693C278.498 12.2543 259.747 4.34716 252.574 1.43116L252.376 1.35961L249.5 0.357791L246.606 1.3775L246.426 1.44905C239.253 4.36505 220.502 12.2722 201.445 22.4693C181.904 32.9168 168.672 42.2193 162.128 50.1086L159.378 53.4182V53.4361Z" fill="white"/>
<path fill-rule="evenodd" clip-rule="evenodd" d="M249.5 8.89124C249.5 8.89124 314.004 35.1889 330.634 55.2431C330.634 55.2431 307.91 131.059 249.5 194.978C191.108 131.059 168.367 55.2431 168.367 55.2431C185.014 35.1889 249.5 8.89124 249.5 8.89124Z" fill="#D8EFFC"/>
<path fill-rule="evenodd" clip-rule="evenodd" d="M249.497 181.382C271.196 156.104 289.336 127.355 303.736 97.4798C308.824 86.9429 313.498 76.1555 317.615 65.2071C318.55 62.7025 319.503 60.1443 320.384 57.5682C305.534 43.8469 268.41 26.5656 249.497 18.6227C230.585 26.5656 193.461 43.8469 178.611 57.5682C179.492 60.1443 180.445 62.7025 181.38 65.2071C185.497 76.1555 190.171 86.9429 195.258 97.4798C209.659 127.355 227.798 156.104 249.497 181.382ZM249.497 185.729C272.329 159.682 291.314 129.806 306.325 98.7142C311.449 88.1057 316.159 77.2288 320.294 66.2089C321.444 63.114 322.613 59.9475 323.674 56.7811C309.022 42.1832 269.021 23.6675 249.515 15.5457C230.009 23.6675 189.991 42.1832 175.357 56.7811C176.4 59.9475 177.568 63.114 178.737 66.2089C182.872 77.2467 187.6 88.1057 192.706 98.7142C207.699 129.806 226.702 159.682 249.533 185.729H249.497Z" fill="#28245F"/>
<path d="M249.5 185.962L249.374 185.819C227.441 160.791 208.313 131.488 192.528 98.7681C187.225 87.766 182.515 76.8355 178.542 66.2449C177.409 63.2394 176.223 60.0193 175.162 56.8171L175.126 56.7276L175.198 56.6561C192.6 39.3211 243.657 17.8 249.41 15.3849H249.464H249.518C255.289 17.7821 306.346 39.3211 323.73 56.6561L323.802 56.7276L323.766 56.8171C322.705 60.0193 321.519 63.2394 320.386 66.2449C316.413 76.8355 311.721 87.766 306.4 98.7681C290.615 131.488 271.487 160.791 249.554 185.819L249.428 185.962H249.5ZM175.522 56.8171C176.564 59.9835 177.751 63.1679 178.865 66.1376C182.838 76.7103 187.531 87.6408 192.834 98.6429C208.583 131.291 227.639 160.505 249.5 185.479C271.361 160.505 290.435 131.273 306.166 98.6429C311.469 87.6587 316.162 76.7103 320.135 66.1376C321.249 63.1679 322.418 59.9835 323.478 56.8171C306.112 39.6073 255.541 18.2293 249.5 15.7248C243.459 18.2472 192.87 39.6073 175.522 56.8171ZM249.5 181.615L249.374 181.472C228.502 157.177 210.255 128.93 195.099 97.5516C189.832 86.639 185.158 75.7621 181.22 65.261C180.322 62.8459 179.351 60.2519 178.452 57.6221L178.416 57.5148L178.488 57.4432C191.953 45.01 225.104 28.6768 249.428 18.4798H249.482H249.536C273.842 28.6947 307.011 45.0279 320.476 57.4432L320.548 57.5148L320.512 57.6221C319.613 60.2519 318.642 62.8459 317.744 65.261C313.806 75.7621 309.132 86.6211 303.865 97.5516C288.727 128.948 270.462 157.177 249.59 181.472L249.464 181.615H249.5ZM178.811 57.6221C179.71 60.2161 180.645 62.7743 181.544 65.1536C185.481 75.6548 190.155 86.4959 195.405 97.4085C210.506 128.715 228.7 156.873 249.5 181.132C270.3 156.891 288.494 128.715 303.595 97.4085C308.863 86.4959 313.519 75.6369 317.456 65.1536C318.355 62.7743 319.29 60.2161 320.189 57.6221C306.723 45.2425 273.716 28.9988 249.482 18.8018C225.248 28.9809 192.241 45.2425 178.776 57.6221H178.811Z" fill="white"/>
<path fill-rule="evenodd" clip-rule="evenodd" d="M249.501 39.0869C223.217 39.0869 199.181 58.5686 199.181 85.5997C199.181 112.631 223.217 132.113 249.501 132.113C275.784 132.113 299.821 112.631 299.821 85.5997C299.821 58.5686 275.784 39.0869 249.501 39.0869ZM249.501 44.5969C224.763 44.5969 204.718 62.9516 204.718 85.5997C204.718 108.248 224.763 126.603 249.501 126.603C274.238 126.603 294.283 108.248 294.283 85.5997C294.283 62.9516 274.238 44.5969 249.501 44.5969Z" fill="#28245F"/>
<path fill-rule="evenodd" clip-rule="evenodd" d="M274.637 41.9378C275.338 42.1525 276.057 42.4924 276.704 42.8323C278.34 43.691 279.868 44.8001 281.199 46.0703C281.666 45.7125 282.133 45.0685 282.457 44.5676C283.374 43.1006 283.823 41.3832 283.967 39.6658C284.075 38.2168 284.183 36.7677 284.255 35.3008C284.255 35.0682 284.273 34.8178 284.273 34.5852C284.273 34.4421 284.381 34.3169 284.524 34.3169L333.28 30.1486C334.035 30.0412 334.952 30.3454 335.545 30.7926C337.379 32.2059 337.397 35.3187 337.199 37.3939C336.858 40.8465 335.401 44.0488 333.28 46.768C332.327 47.9845 331.141 49.2904 329.9 50.2207C330.637 50.4353 331.5 51.0615 332.022 51.6339C333.496 53.244 333.712 55.4265 333.37 57.5017C332.903 60.2925 332.076 62.7434 330.224 64.9259C328.013 67.5199 324.687 69.3446 321.631 70.7579C322.044 71.2767 322.404 71.9207 322.691 72.5289C323.338 73.8707 323.716 75.3734 323.68 76.8761C323.626 78.7724 322.547 80.6508 321.325 82.0641C319.977 83.6383 318.143 85.0158 316.201 85.803C314.619 86.447 313.019 87.0195 311.401 87.5383C310.736 87.7529 310.071 87.9676 309.406 88.1465C309.334 88.1644 309.28 88.236 309.28 88.3075C309.244 88.5401 309.567 88.8442 309.711 88.9873C310.394 89.6135 311.06 90.7047 311.419 91.5455C312.012 92.8694 312.264 94.3721 311.743 95.7496C310.556 98.8445 305.918 101.081 302.952 102.082C300.597 102.888 298.008 103.746 295.491 103.746C295.994 104.032 296.516 104.515 296.893 104.963C297.612 105.857 297.846 106.877 297.217 107.897C296.318 109.346 293.963 110.795 292.471 111.6C290.349 112.745 287.904 113.746 285.531 114.229C283.284 114.677 280.857 113.46 279.041 112.226C278.16 111.618 277.315 110.938 276.506 110.222C276.003 109.775 275.536 109.31 275.05 108.863C274.619 108.469 274.025 107.914 273.72 107.414L269.477 115.106L265.971 125.249L271.509 132.226L271.562 132.262C271.562 132.262 271.58 132.28 271.598 132.298L281.27 144.731C281.27 144.731 281.27 144.731 281.288 144.749C282.026 145.983 282.583 147.772 282.781 149.186C283.266 152.585 282.241 155.626 279.832 158.077C277.369 160.563 274.241 161.851 270.736 161.941C269.279 161.977 267.428 161.798 266.043 161.315C265.882 161.941 265.612 162.585 265.342 163.175C264.695 164.606 263.832 165.966 262.807 167.147C261.405 168.775 259.697 170.081 257.738 170.993C255.149 172.192 252.308 172.585 249.468 172.46C249.468 172.46 249.432 172.46 249.414 172.46L249.27 172.424L249.126 172.46C249.126 172.46 249.09 172.46 249.072 172.46C246.232 172.585 243.391 172.192 240.803 170.993C238.843 170.081 237.135 168.775 235.733 167.147C234.708 165.948 233.845 164.606 233.198 163.175C232.928 162.585 232.659 161.941 232.497 161.315C231.113 161.798 229.279 161.977 227.805 161.941C224.299 161.851 221.189 160.563 218.708 158.077C216.281 155.644 215.256 152.585 215.76 149.186C215.957 147.772 216.515 145.983 217.252 144.749C217.252 144.749 217.252 144.749 217.27 144.731L226.942 132.298C226.942 132.298 226.96 132.28 226.978 132.262L227.032 132.226L232.569 125.249L229.063 115.106L224.82 107.414C224.533 107.914 223.921 108.469 223.49 108.863C223.005 109.31 222.537 109.775 222.034 110.222C221.225 110.938 220.398 111.618 219.499 112.226C217.683 113.46 215.274 114.677 213.009 114.229C210.636 113.746 208.191 112.745 206.07 111.6C204.577 110.795 202.222 109.346 201.323 107.897C200.694 106.877 200.91 105.857 201.647 104.963C202.007 104.515 202.546 104.05 203.049 103.746C200.532 103.746 197.944 102.888 195.589 102.082C192.622 101.081 187.966 98.8266 186.797 95.7496C186.276 94.3721 186.528 92.8515 187.121 91.5455C187.499 90.7047 188.164 89.6135 188.829 88.9873C188.973 88.8442 189.296 88.5401 189.26 88.3075C189.26 88.236 189.188 88.1644 189.134 88.1465C188.469 87.9676 187.804 87.7529 187.139 87.5383C185.521 87.0195 183.921 86.4291 182.339 85.803C180.397 85.0158 178.582 83.6383 177.215 82.0641C176.011 80.6508 174.914 78.7724 174.86 76.8761C174.824 75.3734 175.202 73.8885 175.849 72.5289C176.137 71.9207 176.496 71.2767 176.91 70.7579C173.853 69.3267 170.528 67.5199 168.316 64.9259C166.465 62.7434 165.638 60.2925 165.17 57.5017C164.829 55.4265 165.044 53.244 166.518 51.6339C167.04 51.0615 167.885 50.4353 168.64 50.2207C167.399 49.2904 166.213 47.9845 165.26 46.768C163.139 44.0309 161.682 40.8465 161.341 37.3939C161.143 35.3008 161.161 32.2059 162.995 30.7926C163.588 30.3454 164.505 30.0412 165.26 30.1486L214.016 34.3169C214.16 34.3169 214.267 34.4421 214.267 34.5852C214.267 34.8178 214.267 35.0682 214.285 35.3008C214.339 36.7498 214.465 38.2168 214.573 39.6658C214.699 41.3832 215.166 43.1006 216.083 44.5676C216.389 45.0685 216.874 45.7125 217.342 46.0703C218.672 44.7822 220.2 43.691 221.836 42.8323C222.483 42.4924 223.202 42.1525 223.903 41.9378C227.157 35.1934 232.371 30.1307 239.526 27.6262C241.683 26.8748 243.949 26.3739 246.232 26.1771C247.149 26.0877 248.12 26.034 249.054 26.1055H249.216H249.378C250.313 26.034 251.266 26.1055 252.2 26.1771C254.484 26.3739 256.749 26.8748 258.906 27.6262C266.061 30.1307 271.257 35.1934 274.529 41.9378H274.637Z" fill="#222161"/>
<path d="M250.53 172.656C250.188 172.656 249.864 172.656 249.505 172.638C249.469 172.638 249.451 172.638 249.433 172.638H249.325H249.217C249.181 172.638 249.163 172.638 249.145 172.638C246.053 172.781 243.249 172.28 240.804 171.153C238.844 170.241 237.118 168.935 235.68 167.271C234.655 166.072 233.792 164.731 233.127 163.246C232.911 162.763 232.642 162.154 232.462 161.528C231.221 161.94 229.514 162.154 227.878 162.119C224.318 162.029 221.136 160.688 218.673 158.219C216.21 155.732 215.167 152.619 215.671 149.202C215.904 147.61 216.498 145.857 217.199 144.712C217.199 144.712 217.217 144.676 217.235 144.676L226.907 132.243C226.907 132.243 226.943 132.207 226.961 132.189L226.997 132.154L232.462 125.266L228.992 115.212L224.875 107.752C224.534 108.217 224.03 108.683 223.671 109.005C223.473 109.183 223.293 109.362 223.095 109.541C222.808 109.81 222.52 110.096 222.215 110.364C221.334 111.151 220.489 111.813 219.662 112.386C217.145 114.103 214.934 114.783 213.064 114.407C210.331 113.853 207.76 112.672 206.089 111.777C204.704 111.026 202.223 109.541 201.288 108.021C200.677 107.019 200.785 105.928 201.612 104.908C201.882 104.568 202.241 104.228 202.619 103.942C200.21 103.834 197.783 103.012 195.625 102.278C192.048 101.062 187.823 98.736 186.726 95.8379C186.115 94.2278 186.565 92.5999 187.05 91.5086C187.392 90.7215 188.057 89.5765 188.812 88.8967C189.207 88.5389 189.207 88.3958 189.189 88.36C189.189 88.36 189.189 88.3422 189.171 88.3422C188.47 88.1454 187.769 87.9307 187.176 87.7339C185.558 87.2151 183.94 86.6248 182.358 85.9807C180.488 85.2294 178.601 83.8519 177.18 82.206C176.317 81.2042 174.843 79.1648 174.789 76.9286C174.753 75.4975 175.095 73.9589 175.796 72.5099C176.102 71.8659 176.425 71.3113 176.767 70.8641C173.998 69.5581 170.582 67.7334 168.299 65.0678C166.627 63.1179 165.657 60.7922 165.117 57.5721C164.704 55.0855 165.189 53.0103 166.502 51.5791C166.951 51.0961 167.688 50.5236 168.407 50.2195C167.113 49.1998 165.98 47.876 165.225 46.9099C162.96 43.9939 161.594 40.7202 161.27 37.4464C160.946 34.101 161.522 31.8291 162.978 30.702C163.643 30.1832 164.614 29.9149 165.369 30.0222L214.107 34.1905C214.34 34.2084 214.502 34.3873 214.502 34.6198C214.502 34.7987 214.502 34.9776 214.502 35.1386V35.3175C214.574 36.7129 214.664 38.0546 214.79 39.6826C214.934 41.5252 215.437 43.1889 216.264 44.5127C216.444 44.799 216.875 45.4609 217.379 45.8902C218.709 44.6201 220.201 43.5646 221.801 42.7238C222.358 42.4376 223.095 42.0619 223.833 41.8293C227.23 34.8524 232.642 29.897 239.509 27.4998C241.702 26.7305 243.968 26.2475 246.269 26.0328C247.132 25.9613 248.139 25.8897 249.109 25.9613C249.109 25.9613 249.127 25.9613 249.145 25.9613H249.271H249.415C249.415 25.9613 249.415 25.9613 249.451 25.9613C250.44 25.8897 251.446 25.9613 252.291 26.0328C254.575 26.2296 256.858 26.7305 259.051 27.4998C265.918 29.897 271.33 34.8524 274.728 41.8293C275.465 42.0619 276.202 42.4197 276.759 42.7238C278.359 43.5646 279.851 44.6201 281.182 45.8902C281.667 45.4609 282.116 44.799 282.296 44.5127C283.123 43.1889 283.627 41.5252 283.77 39.6826C283.896 38.0725 284.004 36.7308 284.058 35.3175V35.1386C284.058 34.9597 284.076 34.7987 284.076 34.6198C284.076 34.3873 284.256 34.2084 284.472 34.1905L333.227 30.0222C333.964 29.9149 334.935 30.1832 335.6 30.702C337.056 31.8291 337.632 34.101 337.308 37.4464C336.985 40.7202 335.618 43.9939 333.353 46.9099C332.616 47.8581 331.465 49.1998 330.171 50.2195C330.89 50.5057 331.627 51.0961 332.077 51.5791C333.407 53.0103 333.874 55.0855 333.461 57.5721C332.922 60.7922 331.951 63.1179 330.279 65.0678C328.014 67.7334 324.598 69.5581 321.811 70.8641C322.135 71.2934 322.459 71.848 322.782 72.5099C323.483 73.9589 323.825 75.4796 323.789 76.9286C323.735 79.1648 322.261 81.2042 321.398 82.206C319.978 83.8519 318.09 85.2294 316.22 85.9807C314.656 86.6069 313.038 87.1972 311.402 87.7339C310.809 87.9307 310.108 88.1454 309.407 88.3422C309.407 88.3422 309.407 88.3421 309.407 88.36C309.407 88.3779 309.407 88.5389 309.784 88.8967C310.521 89.5765 311.186 90.7394 311.546 91.5086C312.031 92.5999 312.481 94.2457 311.87 95.8379C310.773 98.7181 306.548 101.044 302.971 102.278C300.813 103.012 298.386 103.834 295.977 103.942C296.355 104.228 296.714 104.568 296.984 104.908C297.811 105.945 297.937 107.019 297.308 108.021C296.373 109.541 293.892 111.026 292.508 111.777C290.836 112.672 288.265 113.871 285.532 114.407C283.663 114.783 281.433 114.103 278.934 112.386C278.107 111.813 277.262 111.151 276.382 110.364C276.076 110.096 275.788 109.81 275.501 109.541C275.303 109.362 275.123 109.183 274.925 109.005C274.566 108.683 274.062 108.2 273.721 107.752L269.604 115.212L266.134 125.266L271.599 132.154L271.635 132.189C271.635 132.189 271.671 132.225 271.689 132.243L281.361 144.676C281.361 144.676 281.379 144.694 281.397 144.712C282.098 145.857 282.692 147.628 282.925 149.202C283.429 152.619 282.386 155.75 279.923 158.219C277.478 160.688 274.296 162.047 270.719 162.119C269.083 162.154 267.393 161.94 266.134 161.528C265.954 162.154 265.685 162.781 265.469 163.246C264.804 164.713 263.941 166.072 262.916 167.271C261.478 168.952 259.752 170.258 257.793 171.153C255.635 172.155 253.172 172.656 250.476 172.656H250.53ZM249.325 172.262L249.505 172.298C249.505 172.298 249.505 172.298 249.523 172.298C252.561 172.441 255.33 171.94 257.703 170.849C259.608 169.972 261.298 168.684 262.7 167.038C263.707 165.858 264.552 164.534 265.199 163.103C265.433 162.602 265.721 161.922 265.883 161.26L265.918 161.099L266.08 161.153C267.519 161.654 269.424 161.815 270.719 161.779C274.206 161.689 277.298 160.383 279.689 157.968C282.081 155.571 283.087 152.53 282.602 149.22C282.386 147.682 281.793 145.964 281.128 144.837L271.456 132.386L271.384 132.333L265.793 125.284L269.334 115.033L273.721 107.09L273.865 107.341C274.152 107.824 274.764 108.396 275.159 108.754C275.357 108.933 275.555 109.112 275.734 109.291C276.022 109.559 276.31 109.845 276.615 110.096C277.496 110.883 278.305 111.527 279.132 112.082C281.577 113.745 283.716 114.407 285.496 114.049C288.193 113.513 290.728 112.332 292.4 111.438C293.766 110.704 296.193 109.255 297.092 107.806C297.649 106.912 297.541 105.981 296.786 105.051C296.427 104.604 295.905 104.157 295.438 103.87L294.935 103.566H295.528C298.063 103.566 300.652 102.69 302.935 101.902C306.44 100.704 310.575 98.4319 311.636 95.659C312.211 94.1563 311.78 92.5999 311.312 91.5623C310.971 90.8109 310.342 89.7018 309.64 89.0577C309.281 88.7357 309.119 88.4674 309.155 88.2348C309.173 88.1096 309.281 87.9844 309.407 87.9486C310.108 87.7518 310.791 87.5371 311.402 87.3403C313.02 86.8215 314.62 86.2312 316.184 85.605C318.018 84.8716 319.852 83.512 321.236 81.9019C322.081 80.918 323.501 78.968 323.555 76.8213C323.591 75.4438 323.25 73.9589 322.584 72.5457C322.243 71.8301 321.883 71.2397 321.542 70.8104L321.416 70.6494L321.596 70.5599C324.364 69.2719 327.852 67.4472 330.135 64.7637C331.753 62.8495 332.724 60.5955 333.245 57.429C333.515 55.7653 333.515 53.4217 331.933 51.7043C331.465 51.2034 330.638 50.5594 329.883 50.3447L329.578 50.2553L329.829 50.0585C331.196 49.0388 332.4 47.6255 333.173 46.6237C335.403 43.7614 336.751 40.5413 337.056 37.3211C337.362 34.1368 336.823 31.9006 335.474 30.863C334.881 30.3979 334 30.1474 333.335 30.2369L284.561 34.4051C284.561 34.4051 284.454 34.4588 284.454 34.5125C284.454 34.6914 284.454 34.8703 284.454 35.0492V35.2281C284.382 36.6413 284.292 37.9831 284.166 39.5931C284.022 41.4894 283.501 43.2068 282.638 44.5664C282.44 44.8884 281.919 45.6756 281.343 46.1049L281.236 46.1944L281.128 46.1049C279.797 44.8169 278.287 43.7435 276.669 42.8848C276.094 42.5807 275.357 42.2229 274.62 41.9903H274.548L274.512 41.9009C271.168 34.9776 265.793 30.058 258.979 27.6787C256.822 26.9273 254.575 26.4264 252.309 26.2296C251.464 26.1581 250.476 26.0865 249.523 26.1581H249.343H249.163C248.192 26.0865 247.204 26.1581 246.359 26.2296C244.094 26.4264 241.846 26.9273 239.689 27.6787C232.875 30.058 227.518 34.9776 224.156 41.9009L224.12 41.9724H224.048C223.311 42.2229 222.574 42.5807 221.999 42.8848C220.381 43.7256 218.889 44.8169 217.54 46.1049L217.433 46.1944L217.325 46.1049C216.749 45.6577 216.228 44.8705 216.03 44.5664C215.185 43.2068 214.646 41.4715 214.502 39.5931C214.376 37.9831 214.268 36.6235 214.214 35.2281V35.0492C214.214 34.8703 214.197 34.6914 214.197 34.5125C214.197 34.4588 214.143 34.4051 214.089 34.4051L165.333 30.2369C164.668 30.1474 163.787 30.3979 163.194 30.863C161.845 31.9006 161.288 34.1368 161.612 37.3211C161.917 40.5413 163.266 43.7614 165.495 46.6237C166.268 47.6255 167.49 49.0209 168.839 50.0585L169.09 50.2553L168.785 50.3447C168.03 50.5594 167.203 51.2034 166.735 51.7043C165.153 53.4217 165.153 55.7653 165.423 57.429C165.944 60.5955 166.915 62.8674 168.533 64.7637C170.816 67.4472 174.286 69.2719 177.072 70.5599L177.252 70.6494L177.126 70.8104C176.767 71.2576 176.425 71.8301 176.084 72.5457C175.418 73.9589 175.077 75.4259 175.113 76.8213C175.167 78.968 176.587 80.918 177.432 81.9019C178.816 83.512 180.668 84.8537 182.484 85.605C184.048 86.2312 185.648 86.8215 187.266 87.3403C187.859 87.5371 188.56 87.7518 189.243 87.9486C189.369 87.9844 189.477 88.1096 189.495 88.2348C189.531 88.4495 189.369 88.7178 189.01 89.0577C188.309 89.7018 187.661 90.8109 187.338 91.5623C186.87 92.5999 186.439 94.1563 187.014 95.659C188.075 98.4319 192.21 100.704 195.715 101.902C197.999 102.672 200.587 103.566 203.122 103.566H203.715L203.212 103.87C202.745 104.157 202.223 104.604 201.864 105.051C201.109 105.981 201.001 106.912 201.558 107.806C202.457 109.273 204.884 110.704 206.25 111.438C207.904 112.332 210.439 113.495 213.154 114.049C214.934 114.407 217.073 113.745 219.518 112.082C220.345 111.527 221.154 110.865 222.035 110.096C222.34 109.828 222.628 109.559 222.916 109.291C223.113 109.112 223.293 108.933 223.491 108.754C223.887 108.378 224.498 107.824 224.785 107.341L224.929 107.09L229.316 115.069L232.839 125.302L227.23 132.368L227.176 132.404L217.504 144.837C216.821 145.964 216.246 147.682 216.012 149.22C215.527 152.548 216.534 155.571 218.925 157.968C221.316 160.383 224.426 161.689 227.896 161.779C229.19 161.815 231.078 161.654 232.534 161.153L232.696 161.099L232.732 161.26C232.911 161.922 233.199 162.602 233.415 163.103C234.062 164.534 234.907 165.875 235.914 167.038C237.316 168.684 239.006 169.954 240.911 170.849C243.302 171.958 246.053 172.441 249.091 172.298C249.091 172.298 249.091 172.298 249.109 172.298L249.289 172.262H249.325Z" fill="white"/>
<path fill-rule="evenodd" clip-rule="evenodd" d="M199.741 37.1411C194.582 36.676 189.422 36.2109 184.263 35.7636C180.577 35.4416 176.874 35.1375 173.188 34.8334C171.894 34.7261 170.599 34.6366 169.305 34.5472C168.892 34.5293 168.496 34.4935 168.083 34.4756C167.867 34.4756 167.669 34.4577 167.453 34.4756C166.051 34.5829 165.53 35.4237 165.925 36.7297C166.734 39.4131 167.867 41.8282 169.467 44.136C170.492 45.6387 171.75 47.0162 173.116 48.2148C173.548 48.5905 175.022 49.7712 175.543 49.7712C175.687 49.7712 175.813 49.7354 175.939 49.7175C176.244 49.6638 176.532 49.6102 176.838 49.5565C177.827 49.3776 178.815 49.1987 179.804 49.0198C182.698 48.501 185.593 47.9643 188.487 47.4276C192.568 46.6763 196.649 45.9249 200.712 45.1736C200.856 45.1557 200.946 45.0125 200.928 44.8694L199.975 37.3558C199.975 37.2306 199.849 37.1233 199.723 37.1233L199.741 37.1411Z" fill="#D8EFFC"/>
<path fill-rule="evenodd" clip-rule="evenodd" d="M247.761 70.882C247.689 70.5063 247.599 70.1306 247.527 69.755C247.222 68.3238 246.898 66.9105 246.539 65.4972C245.514 61.49 244.256 57.4648 242.512 53.708C241.451 51.4003 239.779 47.9297 237.819 46.3196C236.399 45.1747 234.997 45.121 233.289 45.5504C231.527 45.9976 230.089 47.232 229.352 48.8957C228.453 50.9351 228.777 53.1892 229.729 55.1392C232.103 60.0051 242.53 68.4669 247.33 71.204C247.438 71.2577 247.563 71.2577 247.653 71.204C247.743 71.1325 247.797 71.0251 247.779 70.8999L247.761 70.882Z" fill="#D8EFFC"/>
<path fill-rule="evenodd" clip-rule="evenodd" d="M251.338 71.203C256.138 68.4659 266.565 60.0042 268.938 55.1382C269.891 53.1883 270.214 50.9342 269.315 48.8948C268.578 47.2489 267.14 45.9967 265.378 45.5494C263.67 45.1201 262.268 45.1558 260.848 46.3187C258.87 47.9287 257.216 51.4172 256.156 53.7071C254.412 57.4818 253.153 61.489 252.129 65.4963C251.769 66.9095 251.445 68.3228 251.14 69.754C251.068 70.1297 250.978 70.5053 250.906 70.881C250.888 71.0063 250.924 71.1136 251.032 71.1851C251.122 71.2567 251.248 71.2567 251.356 71.1851L251.338 71.203Z" fill="#D8EFFC"/>
<path fill-rule="evenodd" clip-rule="evenodd" d="M249.323 33.3492C247.938 33.2776 246.5 33.367 245.134 33.5281C242.078 33.868 239.021 34.6014 236.181 35.7821C236.073 35.8179 236.019 35.9074 236.001 36.0147C236.001 36.122 236.019 36.2115 236.109 36.283C237.331 37.3385 238.482 38.4835 239.579 39.6463C241.574 41.7751 243.839 44.5301 244.882 47.2672C245.871 49.8791 246.734 52.5268 247.453 55.2102C248.1 57.6611 248.621 60.1298 249.053 62.6165C249.071 62.7596 249.197 62.8669 249.359 62.8669C249.52 62.8669 249.628 62.7596 249.664 62.6165C250.096 60.1298 250.617 57.6611 251.264 55.2102C251.965 52.5089 252.846 49.8612 253.835 47.2672C254.878 44.5301 257.143 41.7751 259.138 39.6463C260.235 38.4835 261.386 37.3385 262.608 36.283C262.698 36.2115 262.734 36.1041 262.716 36.0147C262.716 35.9074 262.626 35.8179 262.536 35.7821C259.678 34.6193 256.64 33.868 253.583 33.5281C252.217 33.3849 250.779 33.2776 249.394 33.3492H249.323Z" fill="#D8EFFC"/>
<path fill-rule="evenodd" clip-rule="evenodd" d="M259.822 126.804C259.354 131.079 259.175 135.427 259.337 139.738C259.408 141.67 259.534 143.62 259.822 145.552C260.02 146.912 260.289 148.396 260.847 149.649C261.674 151.563 263.058 153.245 264.928 154.246C266.384 155.033 268.182 155.373 269.782 154.837C271.454 154.282 272.46 152.923 272.82 151.241C273.377 148.665 272.46 145.624 271.436 143.262C270.573 141.294 269.494 139.434 268.343 137.609C267.139 135.713 265.862 133.87 264.55 132.063C263.202 130.221 261.835 128.414 260.379 126.661C260.307 126.571 260.181 126.535 260.056 126.553C259.93 126.589 259.858 126.679 259.84 126.804H259.822Z" fill="#D8EFFC"/>
<path fill-rule="evenodd" clip-rule="evenodd" d="M249.341 165.447C253.998 165.286 256.227 163.049 256.91 159.525C257.503 156.359 256.838 153.067 256.443 149.901C256.209 148.058 255.634 146.215 254.968 144.444C254.285 142.637 253.476 140.849 252.577 139.113C251.661 137.324 250.69 135.553 249.611 133.836C249.557 133.746 249.449 133.711 249.341 133.711C249.234 133.711 249.126 133.764 249.072 133.836C247.993 135.553 247.022 137.324 246.105 139.113C245.207 140.866 244.398 142.637 243.714 144.444C243.049 146.215 242.474 148.058 242.24 149.901C241.827 153.067 241.162 156.359 241.773 159.525C242.438 163.049 244.667 165.286 249.341 165.447C249.341 165.447 249.341 165.447 249.359 165.447H249.341Z" fill="#D8EFFC"/>
<path fill-rule="evenodd" clip-rule="evenodd" d="M238.285 126.661C236.847 128.414 235.463 130.239 234.114 132.064C232.784 133.871 231.508 135.713 230.321 137.61C229.171 139.416 228.092 141.295 227.229 143.263C226.204 145.624 225.269 148.665 225.845 151.241C226.204 152.923 227.211 154.283 228.883 154.837C230.483 155.374 232.281 155.034 233.737 154.247C235.589 153.245 236.991 151.563 237.818 149.649C238.357 148.397 238.627 146.912 238.843 145.553C239.13 143.638 239.256 141.688 239.328 139.738C239.49 135.445 239.328 131.098 238.843 126.804C238.843 126.679 238.753 126.59 238.627 126.554C238.501 126.518 238.393 126.554 238.303 126.661H238.285Z" fill="#D8EFFC"/>
<path fill-rule="evenodd" clip-rule="evenodd" d="M236.055 48.3218C234.041 48.3218 232.423 49.9318 232.423 51.9355C232.423 53.9391 234.041 55.5492 236.055 55.5492C238.068 55.5492 239.686 53.9391 239.686 51.9355C239.686 49.9318 238.068 48.3218 236.055 48.3218Z" fill="#222161"/>
<path fill-rule="evenodd" clip-rule="evenodd" d="M262.589 48.3218C264.603 48.3218 266.221 49.9318 266.221 51.9355C266.221 53.9391 264.603 55.5492 262.589 55.5492C260.576 55.5492 258.958 53.9391 258.958 51.9355C258.958 49.9318 260.576 48.3218 262.589 48.3218Z" fill="#222161"/>
<path fill-rule="evenodd" clip-rule="evenodd" d="M204.686 37.8402C204.686 38.037 204.686 38.2517 204.686 38.4485C204.686 47.5901 210.511 55.7477 219.194 58.7353C219.338 58.7889 219.499 58.7174 219.535 58.5742L221.279 53.6367C221.279 53.6367 221.297 53.4936 221.279 53.4221C221.243 53.3505 221.189 53.3147 221.117 53.2789C214.969 51.5436 210.726 45.9442 210.726 39.5934C210.726 39.1641 210.744 38.7526 210.78 38.3412C210.78 38.2696 210.78 38.198 210.708 38.1444C210.654 38.0907 210.6 38.0549 210.528 38.0549L205.009 37.5719C205.009 37.5719 204.865 37.5719 204.794 37.6435C204.74 37.6971 204.704 37.7687 204.704 37.8402H204.686ZM205.243 54.406C204.937 53.3147 204.218 51.5615 203.319 50.8638C202.636 50.3272 201.809 50.2377 200.964 50.2735C199.652 50.3093 198.34 50.5955 197.063 50.8102C195.229 51.1322 193.378 51.4184 191.526 51.7225C188.524 52.2056 185.539 52.6886 182.537 53.1716C178.546 53.8156 174.555 54.4418 170.564 55.0858C170.456 55.0858 170.384 55.1752 170.348 55.2647C170.097 56.016 170.043 57.0357 170.097 57.8408C170.276 60.0949 171.409 61.9733 173.081 63.476C174.915 65.1039 177.018 66.4456 179.265 67.4296C180.2 67.841 181.207 68.2346 182.196 68.4493C182.196 68.4493 182.196 68.4493 182.214 68.4493C182.789 68.5208 183.526 68.3956 184.047 68.163C185.593 67.4475 187.085 66.6603 188.56 65.8374C190.357 64.8356 192.137 63.8159 193.917 62.7604C197.189 60.8104 200.443 58.8068 203.607 56.6601C204.29 56.1949 205.297 55.3541 205.261 54.4596C205.261 54.4418 205.261 54.4239 205.261 54.406H205.243ZM208.533 58.9678L181.081 75.0684C180.721 75.2831 180.344 75.6945 180.146 76.0702C179.625 77.0184 179.984 77.9307 180.649 78.7C181.836 80.0596 184.317 81.3834 185.935 82.2063C186.96 82.7251 188.02 83.2082 189.081 83.6196C189.818 83.9059 190.609 84.2279 191.4 84.3889C192.065 84.5141 192.91 84.7109 193.575 84.6214C194.079 84.5678 194.402 84.3531 194.798 84.0669C195.679 83.4228 196.56 82.8146 197.441 82.2063C199.238 80.9362 201.036 79.666 202.834 78.378C204.937 76.8753 207.023 75.3368 209.09 73.7983C210.87 72.4565 212.65 71.1148 214.358 69.7015C215.58 68.6818 218.061 66.5709 218.583 65.1039C218.87 64.281 218.511 63.8517 217.899 63.3686C217.684 63.2076 217.45 63.0824 217.216 62.9572C216.821 62.7425 216.425 62.5457 216.03 62.3489C215.005 61.8301 213.962 61.3471 212.902 60.8641C211.535 60.238 210.151 59.6118 208.785 58.9857C208.695 58.9499 208.605 58.9499 208.533 58.9857V58.9678ZM217.774 72.2061C214.609 74.5854 211.463 77.0005 208.335 79.4156C205.854 81.3476 203.373 83.2976 200.91 85.2655C199.85 86.1242 198.807 86.9829 197.782 87.8415C197.009 88.5035 196.236 89.1475 195.517 89.8452C194.474 90.847 192.209 92.9938 192.137 94.4786C192.065 95.7487 193.611 96.4285 194.6 96.84C195.481 97.1978 196.326 97.6271 197.207 97.9849C198.232 98.4143 199.274 98.7721 200.353 98.9868C203.319 99.6129 206.16 99.1835 208.964 98.1102C209.216 98.0565 209.522 97.8955 209.737 97.7524C210.457 97.323 211.104 96.6969 211.661 96.0708C213.8 93.602 215.958 91.1511 218.115 88.7003C218.115 88.7003 218.115 88.6824 218.133 88.6645C218.834 87.5732 219.302 85.9274 219.302 84.6214C219.302 82.9935 219.248 81.3834 219.176 79.7734C219.104 78.0202 219.014 76.2849 218.888 74.5317C218.852 74.0487 218.762 72.2776 218.349 72.0451C218.313 72.0272 218.277 72.0093 218.241 72.0093C218.097 72.0093 217.935 72.0987 217.809 72.1703C217.809 72.1703 217.809 72.1703 217.791 72.1703L217.774 72.2061ZM207.095 105.874C206.663 106.268 207.239 107.073 207.526 107.413C209.342 109.542 211.625 110.74 214.448 109.935C216.263 109.416 217.899 108.075 219.194 106.751C220.129 105.785 220.92 104.729 221.711 103.656C221.872 103.441 222.196 103.066 222.232 102.797C222.268 102.511 222.034 101.903 221.944 101.617C221.495 100.185 221.117 98.0744 221.225 96.5896C221.279 95.9634 221.171 95.2836 221.027 94.6754C220.956 94.3712 220.794 93.8703 220.632 93.6199C220.578 93.5483 220.524 93.5125 220.434 93.4947C220.344 93.4947 220.272 93.4947 220.218 93.5662L207.113 105.856C207.113 105.856 207.113 105.856 207.095 105.856V105.874ZM291.554 105.874C291.986 106.268 291.41 107.073 291.123 107.413C289.307 109.542 287.024 110.74 284.201 109.935C282.386 109.416 280.75 108.075 279.455 106.751C278.52 105.785 277.729 104.729 276.938 103.656C276.776 103.441 276.453 103.066 276.417 102.797C276.381 102.511 276.615 101.903 276.705 101.617C277.154 100.185 277.532 98.0744 277.424 96.5896C277.37 95.9634 277.478 95.2836 277.621 94.6754C277.693 94.3712 277.855 93.8703 278.017 93.6199C278.071 93.5483 278.125 93.5125 278.215 93.4947C278.305 93.4947 278.377 93.4947 278.43 93.5662L291.536 105.856C291.536 105.856 291.536 105.856 291.554 105.856V105.874ZM280.875 72.2061C284.04 74.5854 287.186 77.0005 290.314 79.4156C292.795 81.3476 295.276 83.2976 297.739 85.2655C298.799 86.1242 299.842 86.9829 300.867 87.8415C301.64 88.5035 302.413 89.1475 303.132 89.8452C304.175 90.847 306.44 92.9938 306.512 94.4786C306.584 95.7487 305.038 96.4285 304.049 96.84C303.168 97.1978 302.323 97.6271 301.442 97.9849C300.417 98.4143 299.375 98.7721 298.296 98.9868C295.33 99.6129 292.489 99.1835 289.685 98.1102C289.433 98.0565 289.127 97.8955 288.911 97.7524C288.192 97.323 287.545 96.6969 286.988 96.0708C284.849 93.602 282.691 91.1511 280.534 88.7003C280.534 88.7003 280.534 88.6824 280.516 88.6645C279.815 87.5732 279.347 85.9274 279.347 84.6214C279.347 82.9935 279.401 81.3834 279.473 79.7734C279.545 78.0202 279.635 76.2849 279.761 74.5317C279.797 74.0487 279.887 72.2776 280.3 72.0451C280.336 72.0272 280.372 72.0093 280.408 72.0093C280.552 72.0093 280.714 72.0987 280.839 72.1703C280.839 72.1703 280.839 72.1703 280.857 72.1703L280.875 72.2061ZM298.889 37.1247C304.049 36.6595 309.208 36.1944 314.368 35.7472C318.053 35.4252 321.757 35.121 325.442 34.8169C326.737 34.7096 328.031 34.6201 329.325 34.5307C329.739 34.5128 330.134 34.477 330.548 34.4591C330.764 34.4591 330.961 34.4412 331.177 34.4591C332.579 34.5665 333.101 35.4073 332.705 36.7132C331.896 39.3966 330.764 41.8117 329.164 44.1195C328.139 45.6222 326.881 46.9997 325.514 48.1983C325.083 48.574 323.609 49.7547 323.087 49.7547C322.943 49.7547 322.818 49.7189 322.692 49.701C322.386 49.6474 322.098 49.5937 321.793 49.54C320.804 49.3611 319.815 49.1822 318.826 49.0033C315.932 48.4845 313.038 47.9478 310.143 47.4112C306.062 46.6598 301.981 45.9084 297.918 45.1571C297.775 45.1392 297.685 44.9961 297.703 44.853L298.655 37.3393C298.655 37.2141 298.781 37.1068 298.907 37.1068L298.889 37.1247ZM293.388 54.3881C293.694 53.2968 294.413 51.5436 295.312 50.846C295.995 50.3093 296.822 50.2198 297.667 50.2556C298.979 50.2914 300.291 50.5776 301.568 50.7923C303.402 51.1143 305.253 51.4005 307.105 51.7047C310.107 52.1877 313.092 52.6707 316.094 53.1537C320.085 53.7977 324.076 54.4239 328.067 55.0679C328.175 55.0679 328.247 55.1573 328.283 55.2468C328.534 55.9981 328.588 57.0178 328.534 57.8229C328.355 60.077 327.222 61.9554 325.55 63.4581C323.716 65.086 321.613 66.4278 319.366 67.4117C318.431 67.8231 317.424 68.2167 316.435 68.4314C316.435 68.4314 316.435 68.4314 316.417 68.4314C315.842 68.5029 315.105 68.3777 314.584 68.1452C313.038 67.4296 311.545 66.6424 310.071 65.8195C308.274 64.8177 306.494 63.798 304.714 62.7425C301.442 60.7925 298.188 58.7889 295.024 56.6422C294.341 56.177 293.334 55.3362 293.37 54.4418C293.37 54.4239 293.37 54.406 293.37 54.3881H293.388ZM290.098 58.9499L317.55 75.0505C317.91 75.2652 318.287 75.6767 318.485 76.0523C319.006 77.0005 318.647 77.9128 317.999 78.6821C316.813 80.0417 314.332 81.3655 312.714 82.1885C311.689 82.7072 310.629 83.1903 309.568 83.6017C308.831 83.888 308.04 84.21 307.249 84.371C306.584 84.4962 305.739 84.693 305.073 84.6035C304.57 84.5499 304.247 84.3352 303.851 84.049C302.97 83.4049 302.089 82.7967 301.208 82.1885C299.41 80.9183 297.613 79.6481 295.815 78.3601C293.712 76.8574 291.626 75.3189 289.559 73.7804C287.779 72.4386 285.999 71.0969 284.291 69.6837C283.069 68.664 280.588 66.553 280.066 65.086C279.779 64.2631 280.138 63.8338 280.75 63.3508C280.965 63.1897 281.199 63.0645 281.433 62.9393C281.828 62.7246 282.224 62.5278 282.619 62.331C283.644 61.8123 284.687 61.3292 285.747 60.8462C287.114 60.2201 288.498 59.5939 289.864 58.9678C289.954 58.932 290.044 58.932 290.116 58.9678L290.098 58.9499ZM293.927 37.8045C293.927 38.0013 293.927 38.2159 293.927 38.4127C293.927 47.5543 288.102 55.7119 279.419 58.6995C279.275 58.7531 279.114 58.6816 279.078 58.5385L277.334 53.6009C277.334 53.6009 277.316 53.4578 277.334 53.3863C277.37 53.3147 277.424 53.2789 277.496 53.2432C283.644 51.5079 287.887 45.9084 287.887 39.5576C287.887 39.1283 287.869 38.7168 287.833 38.3054C287.833 38.2338 287.833 38.1623 287.905 38.1086C287.959 38.0549 288.013 38.0191 288.085 38.0191L293.604 37.5361C293.604 37.5361 293.748 37.5361 293.819 37.6077C293.873 37.6614 293.909 37.7329 293.909 37.8045H293.927Z" fill="#D8EFFC"/>
<path fill-rule="evenodd" clip-rule="evenodd" d="M192.009 36.4457C192.009 36.4457 189.708 43.4405 187.569 47.6267C184.98 48.1097 182.409 48.5748 179.821 49.0399C178.832 49.2188 177.843 49.3977 176.854 49.5766C176.549 49.6303 176.261 49.684 175.955 49.7376C175.83 49.7555 175.686 49.7913 175.56 49.7913C175.039 49.7913 173.564 48.6106 173.133 48.2349C171.749 47.0542 170.508 45.6588 169.483 44.1561C167.883 41.8483 166.769 39.4154 165.942 36.7498C165.546 35.426 166.05 34.5852 167.47 34.4957C167.686 34.4957 167.883 34.4957 168.099 34.4957C168.513 34.5136 168.926 34.5315 169.322 34.5673C170.616 34.6567 171.91 34.7462 173.205 34.8535C176.89 35.1397 180.594 35.4618 184.279 35.7838C186.868 35.9984 189.439 36.231 192.027 36.4636L192.009 36.4457ZM198.212 50.6142C198.266 52.1348 197.816 56.643 192.135 63.7988C190.949 64.4965 189.762 65.1763 188.558 65.8382C187.084 66.6611 185.573 67.4483 184.045 68.1639C183.524 68.4143 182.787 68.5217 182.212 68.4501C182.212 68.4501 182.212 68.4501 182.194 68.4501C181.205 68.2175 180.198 67.824 179.263 67.4304C177.016 66.4465 174.895 65.1226 173.079 63.4768C171.407 61.992 170.274 60.0957 170.095 57.8416C170.041 57.0545 170.095 56.0347 170.346 55.2655C170.382 55.1582 170.454 55.0866 170.562 55.0866C174.553 54.4605 178.544 53.8164 182.535 53.1724C185.538 52.6894 188.522 52.2064 191.524 51.7234C193.376 51.4192 195.21 51.133 197.061 50.811C197.457 50.7394 197.834 50.6679 198.23 50.5963L198.212 50.6142ZM208.513 58.9865H208.783C208.783 58.9865 209.61 60.2209 211.839 61.0617C214.068 61.9025 212.001 67.2694 210.904 68.9689C210.203 70.0602 206.751 74.3358 204.396 77.2339C203.875 77.6095 203.353 77.9852 202.832 78.3609C201.034 79.649 199.237 80.9191 197.439 82.1893C196.558 82.8154 195.659 83.4237 194.796 84.0498C194.401 84.336 194.059 84.5507 193.574 84.6044C192.908 84.6759 192.063 84.497 191.398 84.3718C190.607 84.2108 189.816 83.9067 189.079 83.6025C188 83.1732 186.958 82.6902 185.933 82.1893C184.315 81.3842 181.816 80.0604 180.648 78.6829C179.982 77.9137 179.641 77.0013 180.144 76.0532C180.342 75.6775 180.719 75.2839 181.079 75.0513L208.513 58.9507V58.9865ZM212.414 76.2857C212.414 76.2857 214.679 78.3788 214.805 80.1856C214.949 81.9925 215.129 85.8566 213.008 89.0231C210.886 92.1895 210.203 95.7138 210.275 97.4133C210.095 97.5564 209.915 97.6816 209.718 97.789C209.502 97.9142 209.196 98.0931 208.945 98.1468C206.14 99.2201 203.3 99.6495 200.333 99.0233C199.255 98.7908 198.212 98.433 197.187 98.0215C196.306 97.6637 195.461 97.2523 194.58 96.8766C193.61 96.4651 192.045 95.8032 192.117 94.5152C192.189 93.0303 194.454 90.8836 195.497 89.8818C196.234 89.1841 196.989 88.5222 197.762 87.8781C198.787 87.0016 199.848 86.1429 200.891 85.3021C203.335 83.3163 205.816 81.3842 208.315 79.4522C209.664 78.3967 211.03 77.3591 212.396 76.3036L212.414 76.2857ZM215.057 98.433L216.909 108.755C216.154 109.274 215.327 109.703 214.464 109.954C211.641 110.759 209.358 109.542 207.542 107.431C207.255 107.092 206.679 106.286 207.111 105.893C207.111 105.893 207.111 105.893 207.129 105.893L215.057 98.4688V98.433ZM306.654 36.4457C306.654 36.4457 308.955 43.4405 311.094 47.6267C313.683 48.1097 316.254 48.5748 318.843 49.0399C319.831 49.2188 320.82 49.3977 321.809 49.5766C322.114 49.6303 322.402 49.684 322.708 49.7376C322.834 49.7555 322.977 49.7913 323.103 49.7913C323.625 49.7913 325.099 48.6106 325.53 48.2349C326.915 47.0542 328.155 45.6588 329.18 44.1561C330.78 41.8483 331.894 39.4154 332.721 36.7498C333.117 35.426 332.613 34.5852 331.193 34.4957C330.977 34.4957 330.78 34.4957 330.564 34.4957C330.151 34.5136 329.737 34.5315 329.342 34.5673C328.047 34.6567 326.753 34.7462 325.458 34.8535C321.773 35.1397 318.069 35.4618 314.384 35.7838C311.795 35.9984 309.224 36.231 306.636 36.4636L306.654 36.4457ZM300.451 50.6142C300.397 52.1348 300.847 56.643 306.528 63.7988C307.714 64.4965 308.901 65.1763 310.105 65.8382C311.58 66.6611 313.09 67.4483 314.618 68.1639C315.139 68.4143 315.876 68.5217 316.451 68.4501C316.451 68.4501 316.451 68.4501 316.469 68.4501C317.458 68.2175 318.465 67.824 319.4 67.4304C321.647 66.4465 323.768 65.1226 325.584 63.4768C327.256 61.992 328.389 60.0957 328.568 57.8416C328.622 57.0545 328.568 56.0347 328.317 55.2655C328.281 55.1582 328.209 55.0866 328.101 55.0866C324.11 54.4605 320.119 53.8164 316.128 53.1724C313.126 52.6894 310.141 52.2064 307.139 51.7234C305.287 51.4192 303.454 51.133 301.602 50.811C301.206 50.7394 300.829 50.6679 300.433 50.5963L300.451 50.6142ZM290.15 58.9865H289.88C289.88 58.9865 289.053 60.2209 286.824 61.0617C284.595 61.9025 286.662 67.2694 287.759 68.9689C288.46 70.0602 291.912 74.3358 294.267 77.2339C294.788 77.6095 295.31 77.9852 295.831 78.3609C297.629 79.649 299.427 80.9191 301.224 82.1893C302.105 82.8154 303.004 83.4237 303.867 84.0498C304.263 84.336 304.604 84.5507 305.09 84.6044C305.755 84.6759 306.6 84.497 307.265 84.3718C308.038 84.2108 308.847 83.9067 309.584 83.6025C310.663 83.1732 311.705 82.6902 312.73 82.1893C314.348 81.3842 316.847 80.0604 318.016 78.6829C318.681 77.9137 319.022 77.0013 318.501 76.0532C318.303 75.6775 317.926 75.2839 317.566 75.0513L290.132 58.9507L290.15 58.9865ZM286.249 76.2857C286.249 76.2857 283.984 78.3788 283.858 80.1856C283.714 81.9925 283.534 85.8566 285.656 89.0231C287.777 92.1895 288.46 95.7138 288.388 97.4133C288.568 97.5564 288.748 97.6816 288.946 97.789C289.161 97.9142 289.467 98.0931 289.719 98.1468C292.523 99.2201 295.364 99.6495 298.33 99.0233C299.409 98.7908 300.451 98.433 301.476 98.0215C302.357 97.6637 303.202 97.2523 304.083 96.8766C305.054 96.4651 306.618 95.8032 306.546 94.5152C306.474 93.0303 304.209 90.8836 303.166 89.8818C302.429 89.1841 301.674 88.5222 300.901 87.8781C299.876 87.0016 298.815 86.1429 297.773 85.3021C295.328 83.3163 292.847 81.3842 290.348 79.4522C288.999 78.3967 287.633 77.3591 286.267 76.3036L286.249 76.2857ZM283.606 98.433L281.754 108.755C282.509 109.274 283.336 109.703 284.199 109.954C287.022 110.759 289.305 109.542 291.121 107.431C291.408 107.092 291.984 106.286 291.552 105.893C291.552 105.893 291.552 105.893 291.534 105.893L283.606 98.4688V98.433Z" fill="#B4E0D9"/>
<path d="M259.412 114.39C258.603 112.566 257.56 110.92 256.536 109.328C256.194 108.791 255.835 108.219 255.493 107.664C254.846 106.608 254.127 105.464 253.426 104.354C252.599 103.048 251.754 101.707 250.999 100.454L249.578 98.093L248.158 100.454C247.493 101.564 246.828 102.726 246.181 103.871C245.461 105.141 244.706 106.447 243.987 107.646C243.646 108.201 243.286 108.755 242.945 109.31C241.92 110.902 240.877 112.548 240.068 114.373C238.091 118.863 239.061 123.031 242.891 126.412C244.005 125.16 244.203 123.317 243.322 121.904C242.297 120.258 242.136 118.487 242.801 116.519H256.698C257.363 118.505 257.201 120.258 256.176 121.904C255.295 123.317 255.493 125.16 256.608 126.412C260.437 123.031 261.408 118.863 259.43 114.373L259.412 114.39ZM246.81 109.381C247.565 108.147 248.32 106.805 249.057 105.517C249.237 105.195 249.435 104.873 249.614 104.533C249.956 105.07 250.279 105.589 250.621 106.125C251.304 107.217 252.023 108.344 252.671 109.381C253.03 109.954 253.39 110.544 253.749 111.099C254.217 111.814 254.648 112.53 255.08 113.228H244.419C244.832 112.53 245.282 111.814 245.749 111.099C246.109 110.544 246.468 109.972 246.828 109.381H246.81Z" fill="#D8EFFC"/>
<path d="M263.547 65.891C262.163 67.4474 262.001 69.7015 263.08 71.4725C264.446 73.7266 264.5 76.1596 263.278 78.9325C262.433 80.8645 261.282 82.6535 260.078 84.5498C259.646 85.2296 259.197 85.9273 258.765 86.6429C257.992 87.913 257.129 89.2726 256.284 90.6144C255.889 91.2584 255.475 91.9024 255.062 92.5464C254.828 92.1528 254.613 91.7593 254.379 91.3657C253.624 90.0419 252.869 88.7002 252.078 87.4121C252.222 87.1796 252.365 86.947 252.509 86.7323C253.75 84.8002 255.026 82.7966 255.997 80.5783C256.32 79.8448 256.572 79.1114 256.77 78.3958C254.235 78.3958 251.916 79.7912 250.765 82.0274C250.388 82.7608 250.01 83.4406 249.705 83.9058C249.399 83.4228 249.021 82.7429 248.644 82.0274C247.475 79.7912 245.156 78.3958 242.639 78.3958C242.837 79.1114 243.089 79.8448 243.412 80.5783C244.383 82.7966 245.66 84.8002 246.9 86.7323C247.044 86.947 247.188 87.1796 247.332 87.4121C246.684 88.4676 245.983 89.5589 245.3 90.6322C244.905 91.2763 244.491 91.9203 244.078 92.5643C243.844 92.1707 243.628 91.7772 243.394 91.3836C242.496 89.8093 241.579 88.1814 240.662 86.6786C240.23 85.981 239.781 85.2654 239.349 84.5856C238.145 82.6893 236.994 80.9003 236.149 78.9682C234.927 76.1954 234.981 73.7624 236.347 71.5083C237.426 69.7372 237.264 67.4832 235.88 65.9268C231.224 70.0414 230.037 75.122 232.446 80.5783C233.417 82.7966 234.693 84.8002 235.934 86.7323C236.365 87.3942 236.797 88.074 237.21 88.7538C238.109 90.2208 239.008 91.8129 239.889 93.3515C240.68 94.7289 241.489 96.1601 242.298 97.5018L244.024 100.382L245.75 97.5018C246.648 95.9991 247.691 94.3533 248.698 92.7611C249.003 92.2602 249.327 91.7593 249.651 91.2584C250.046 91.9561 250.442 92.6538 250.837 93.3336C251.628 94.7111 252.437 96.1422 253.246 97.4839L254.972 100.364L256.698 97.4839C257.597 95.9812 258.64 94.3354 259.646 92.7432C260.491 91.4015 261.372 90.024 262.163 88.7181C262.577 88.0383 263.008 87.3584 263.44 86.6965C264.68 84.7645 265.957 82.7608 266.927 80.5425C269.336 75.0862 268.15 70.0235 263.494 65.891H263.547Z" fill="#D8EFFC"/>
</g>
</g>
</svg>
