<svg width="1440" height="420" viewBox="0 0 1440 420" fill="none" xmlns="http://www.w3.org/2000/svg">
<mask id="mask0_1_2954" style="mask-type:alpha" maskUnits="userSpaceOnUse" x="0" y="0" width="1440" height="420">
<rect width="1440" height="420" fill="#447EF7"/>
</mask>
<g mask="url(#mask0_1_2954)">
<path fill-rule="evenodd" clip-rule="evenodd" d="M1542.41 324.599L1471.67 281.624C1400.92 238.648 1259.44 152.696 1097.38 167.048C935.322 181.4 752.692 296.057 582.92 348.023C413.147 399.99 256.232 389.266 114.746 303.314C-26.7412 217.362 -152.799 56.1822 -215.829 -24.4078L-278.858 -104.998L-356 271.143L-282.685 301.581C-209.371 332.019 -62.7411 392.895 83.8885 453.771C230.518 514.646 377.148 575.522 523.777 636.398C670.407 697.274 817.036 758.15 963.666 819.026C1110.3 879.901 1256.93 940.777 1330.24 971.215L1403.55 1001.65L1542.41 324.599Z" fill="#4B66EA"/>
</g>
</svg>
