<svg width="52" height="52" viewBox="0 0 52 52" fill="none" xmlns="http://www.w3.org/2000/svg">
<path fill-rule="evenodd" clip-rule="evenodd" d="M1 26C1 12.1929 12.1929 1 26 1C39.8071 1 51 12.1929 51 26C51 39.8071 39.8071 51 26 51C12.1929 51 1 39.8071 1 26Z" stroke="white" stroke-width="2"/>
<path d="M25.8226 9.86523C17.0098 9.86523 9.86517 17.0465 9.86517 25.9047C9.86517 33.9463 15.7585 40.5859 23.4377 41.7459V30.1559H19.4897V25.9397H23.4377V23.1342C23.4377 18.4894 25.6892 16.4502 29.5298 16.4502C31.3693 16.4502 32.342 16.5872 32.8026 16.6499V20.3303H30.1826C28.5521 20.3303 27.9827 21.8839 27.9827 23.6351V25.9397H32.7612L32.1128 30.1559H27.9827V41.7801C35.7714 40.7179 41.7801 34.0243 41.7801 25.9047C41.7801 17.0465 34.6355 9.86523 25.8226 9.86523Z" fill="white"/>
</svg>
