<svg width="52" height="52" viewBox="0 0 52 52" fill="none" xmlns="http://www.w3.org/2000/svg">
<path fill-rule="evenodd" clip-rule="evenodd" d="M1 26C1 12.1929 12.1929 1 26 1C39.8071 1 51 12.1929 51 26C51 39.8071 39.8071 51 26 51C12.1929 51 1 39.8071 1 26Z" stroke="white" stroke-width="2"/>
<path fill-rule="evenodd" clip-rule="evenodd" d="M26.0013 12.6665C22.3801 12.6665 21.9257 12.6823 20.5034 12.7471C19.084 12.8121 18.1151 13.0368 17.2673 13.3665C16.3903 13.7071 15.6464 14.1626 14.9053 14.904C14.1636 15.6451 13.7081 16.389 13.3664 17.2657C13.0359 18.1138 12.8109 19.083 12.747 20.5019C12.6834 21.9241 12.6667 22.3788 12.6667 26C12.6667 29.6211 12.6828 30.0742 12.7472 31.4964C12.8125 32.9159 13.0372 33.8848 13.3667 34.7326C13.7075 35.6095 14.1631 36.3534 14.9045 37.0945C15.6453 37.8362 16.3892 38.2929 17.2656 38.6334C18.114 38.9632 19.0831 39.1879 20.5023 39.2529C21.9246 39.3176 22.3787 39.3334 25.9996 39.3334C29.621 39.3334 30.0741 39.3176 31.4963 39.2529C32.9158 39.1879 33.8858 38.9632 34.7341 38.6334C35.6108 38.2929 36.3536 37.8362 37.0944 37.0945C37.8361 36.3534 38.2917 35.6095 38.6333 34.7328C38.9611 33.8848 39.1861 32.9156 39.2528 31.4967C39.3167 30.0745 39.3334 29.6211 39.3334 26C39.3334 22.3788 39.3167 21.9244 39.2528 20.5021C39.1861 19.0827 38.9611 18.1138 38.6333 17.266C38.2917 16.389 37.8361 15.6451 37.0944 14.904C36.3528 14.1624 35.6111 13.7068 34.7333 13.3665C33.8833 13.0368 32.9138 12.8121 31.4944 12.7471C30.0721 12.6823 29.6194 12.6665 25.9971 12.6665H26.0013ZM24.8051 15.0693C25.1601 15.0687 25.5562 15.0693 26.0012 15.0693C29.5613 15.0693 29.9832 15.082 31.389 15.1459C32.6891 15.2054 33.3946 15.4226 33.8646 15.6051C34.4869 15.8468 34.9305 16.1357 35.3969 16.6023C35.8635 17.069 36.1524 17.5135 36.3947 18.1357C36.5772 18.6051 36.7947 19.3107 36.8538 20.6107C36.9177 22.0163 36.9316 22.4385 36.9316 25.9969C36.9316 29.5553 36.9177 29.9775 36.8538 31.3831C36.7944 32.6831 36.5772 33.3886 36.3947 33.8581C36.153 34.4803 35.8635 34.9234 35.3969 35.3898C34.9302 35.8564 34.4871 36.1453 33.8646 36.387C33.3952 36.5703 32.6891 36.787 31.389 36.8464C29.9835 36.9103 29.5613 36.9242 26.0012 36.9242C22.4409 36.9242 22.0189 36.9103 20.6134 36.8464C19.3134 36.7864 18.6078 36.5692 18.1375 36.3867C17.5153 36.145 17.0708 35.8562 16.6042 35.3895C16.1375 34.9228 15.8486 34.4795 15.6064 33.857C15.4239 33.3875 15.2064 32.682 15.1472 31.3819C15.0833 29.9764 15.0705 29.5541 15.0705 25.9936C15.0705 22.433 15.0833 22.013 15.1472 20.6074C15.2067 19.3074 15.4239 18.6018 15.6064 18.1318C15.8481 17.5096 16.1375 17.0651 16.6042 16.5985C17.0708 16.1318 17.5153 15.8429 18.1375 15.6007C18.6075 15.4173 19.3134 15.2007 20.6134 15.1409C21.8434 15.0854 22.3201 15.0687 24.8051 15.0659V15.0693ZM33.1185 17.2832C32.2352 17.2832 31.5185 17.999 31.5185 18.8826C31.5185 19.766 32.2352 20.4827 33.1185 20.4827C34.0019 20.4827 34.7185 19.766 34.7185 18.8826C34.7185 17.9993 34.0019 17.2832 33.1185 17.2832ZM26.0013 19.1526C22.2199 19.1526 19.154 22.2185 19.154 25.9999C19.154 29.7814 22.2199 32.8458 26.0013 32.8458C29.7827 32.8458 32.8475 29.7814 32.8475 25.9999C32.8475 22.2185 29.7827 19.1526 26.0013 19.1526ZM26.0012 21.5554C28.4557 21.5554 30.4457 23.5452 30.4457 25.9999C30.4457 28.4544 28.4557 30.4444 26.0012 30.4444C23.5465 30.4444 21.5568 28.4544 21.5568 25.9999C21.5568 23.5452 23.5465 21.5554 26.0012 21.5554Z" fill="white"/>
</svg>
