<svg width="31" height="22" viewBox="0 0 31 22" fill="none" xmlns="http://www.w3.org/2000/svg">
<path d="M30.9929 7.75349C31.0625 5.7178 30.6217 3.69734 29.7114 1.87972C29.0938 1.13391 28.2366 0.630603 27.2893 0.457504C23.371 0.0984297 19.4365 -0.0487431 15.5026 0.0166162C11.5831 -0.0517096 7.66277 0.0907141 3.75823 0.443282C2.98628 0.585101 2.2719 0.95079 1.70226 1.49572C0.434875 2.67617 0.294055 4.69572 0.153235 6.40238C-0.0510783 9.47091 -0.0510783 12.5498 0.153235 15.6184C0.193974 16.5789 0.335588 17.5324 0.575695 18.4628C0.745489 19.1811 1.08902 19.8457 1.57552 20.397C2.14903 20.9708 2.88006 21.3573 3.67374 21.5064C6.70971 21.8848 9.76875 22.0417 12.8271 21.9757C17.7558 22.0468 22.0789 21.9757 27.1907 21.5775C28.0039 21.4376 28.7555 21.0506 29.3453 20.4681C29.7395 20.0698 30.034 19.5822 30.2043 19.0459C30.7079 17.4852 30.9552 15.8518 30.9365 14.2104C30.9929 13.4139 30.9929 8.60682 30.9929 7.75349ZM12.3201 15.0637V6.26016L20.6567 10.6833C18.319 11.9917 15.2351 13.4708 12.3201 15.0637Z" fill="white"/>
</svg>
