<svg width="23" height="26" viewBox="0 0 23 26" fill="none" xmlns="http://www.w3.org/2000/svg">
<path d="M21.3545 6.091C20.0564 5.81333 18.8809 5.12829 17.9994 4.13574C17.1179 3.14319 16.5765 1.89503 16.4541 0.573225V0H11.9762V17.7713C11.9734 18.558 11.7242 19.3241 11.2636 19.962C10.803 20.5998 10.1541 21.0772 9.40808 21.3272C8.66209 21.5772 7.85653 21.5872 7.10458 21.3558C6.35263 21.1243 5.6921 20.6631 5.2158 20.0369C4.73211 19.4002 4.4638 18.626 4.44977 17.8265C4.43574 17.0271 4.67672 16.2439 5.13777 15.5907C5.59882 14.9374 6.25597 14.448 7.01392 14.1934C7.77188 13.9388 8.59123 13.9322 9.35316 14.1746V9.62524C7.65409 9.39036 5.9241 9.69243 4.40516 10.4892C2.88623 11.286 1.65432 12.5376 0.881753 14.069C0.109185 15.6003 -0.165401 17.3349 0.0964021 19.03C0.358205 20.7252 1.1433 22.2961 2.34188 23.523C3.4849 24.6925 4.95049 25.4949 6.55158 25.8278C8.15267 26.1606 9.81663 26.0088 11.331 25.3917C12.8455 24.7746 14.1417 23.7202 15.0541 22.3632C15.9666 21.0061 16.454 19.4079 16.4541 17.7726V8.69196C18.2638 9.98573 20.4336 10.6795 22.6582 10.6755V6.22618C22.2201 6.22673 21.7832 6.18142 21.3545 6.091Z" fill="white"/>
</svg>
